; NON-PLATED HOLES START AT T1
; THROUGH (PLATED) HOLES START AT T100
M48
INCH
T1C0.086614
T100C0.038000
T101C0.040000
%
T1
X029218Y015829
X029225Y000908
X000978Y000895
X000971Y015816
T100
X012084Y007241
X012084Y011241
X018084Y009235
X020084Y009235
X018084Y007241
X014084Y009235
X018084Y011241
X020084Y007241
X020084Y011241
X008084Y009235
X014084Y007241
X010084Y009235
X014084Y011241
X008084Y007241
X010084Y007241
X022084Y009235
X010084Y011241
X016084Y009235
X022084Y007241
X016084Y007241
X012084Y009235
X016084Y011241
T101
X028731Y007243
X026255Y003243
X008739Y004243
X016240Y004250
X028744Y002257
X011261Y004257
X003760Y003250
X026242Y014234
X001238Y003237
X018754Y003270
X008739Y002243
X016240Y002250
X021244Y004250
X016252Y015248
X021230Y014241
X023733Y003263
X011261Y002257
X013750Y003270
X003740Y015248
X028731Y011243
X006250Y003263
X028731Y008243
X021244Y002250
X018741Y014261
X026255Y004243
X028744Y003257
X023753Y014254
X001541Y008492
X003760Y004250
X026242Y015234
X001238Y004237
X018754Y004270
X026255Y002243
X008739Y003243
X016240Y003250
X021230Y015241
X023733Y004263
X011261Y003257
X013750Y004270
X003760Y002250
X001238Y002237
X006250Y004263
X018754Y002270
X001541Y009870
X028731Y009243
X021244Y003250
X016252Y014248
X018741Y015261
X023733Y002263
X013750Y002270
X028744Y004257
X003740Y014248
X023753Y015254
X028731Y010243
X006250Y002263
T00
M30
