G04 MADE WITH FRITZING*
G04 WWW.FRITZING.ORG*
G04 DOUBLE SIDED*
G04 HOLES PLATED*
G04 CONTOUR ON CENTER OF CONTOUR VECTOR*
%ASAXBY*%
%FSLAX23Y23*%
%MOIN*%
%OFA0B0*%
%SFA1.0B1.0*%
%ADD10C,0.074000*%
%ADD11C,0.080000*%
%ADD12C,0.078000*%
%ADD13R,0.074000X0.074000*%
%ADD14R,0.080000X0.080000*%
%ADD15C,0.024000*%
%LNCOPPER0*%
G90*
G70*
G54D10*
X374Y1425D03*
X374Y1525D03*
X2874Y226D03*
X2874Y326D03*
X2874Y426D03*
X2626Y224D03*
X2626Y324D03*
X2626Y424D03*
X2373Y226D03*
X2373Y326D03*
X2373Y426D03*
X2124Y225D03*
X2124Y325D03*
X2124Y425D03*
X1875Y227D03*
X1875Y327D03*
X1875Y427D03*
X1624Y225D03*
X1624Y325D03*
X1624Y425D03*
X1375Y227D03*
X1375Y327D03*
X1375Y427D03*
X1126Y226D03*
X1126Y326D03*
X1126Y426D03*
X874Y224D03*
X874Y324D03*
X874Y424D03*
X625Y226D03*
X625Y326D03*
X625Y426D03*
X376Y225D03*
X376Y325D03*
X376Y425D03*
X124Y224D03*
X124Y324D03*
X124Y424D03*
X2873Y724D03*
X2873Y824D03*
X2873Y924D03*
X2873Y1024D03*
X2873Y1124D03*
X2624Y1423D03*
X2624Y1523D03*
X2375Y1425D03*
X2375Y1525D03*
X2123Y1424D03*
X2123Y1524D03*
X1874Y1426D03*
X1874Y1526D03*
X1625Y1425D03*
X1625Y1525D03*
G54D11*
X154Y849D03*
X154Y987D03*
G54D12*
X1008Y1124D03*
X1208Y1124D03*
X1408Y1124D03*
X1608Y1124D03*
X1808Y1124D03*
X2008Y1124D03*
X808Y724D03*
X1008Y724D03*
X1208Y724D03*
X1408Y724D03*
X1608Y724D03*
X1808Y724D03*
X2008Y724D03*
X2208Y724D03*
X808Y924D03*
X1008Y924D03*
X1208Y924D03*
X1408Y924D03*
X1608Y924D03*
X1808Y924D03*
X2008Y924D03*
X2208Y924D03*
G54D13*
X374Y1425D03*
X2874Y226D03*
X2626Y224D03*
X2373Y226D03*
X2124Y225D03*
X1875Y227D03*
X1624Y225D03*
X1375Y227D03*
X1126Y226D03*
X874Y224D03*
X625Y226D03*
X376Y225D03*
X124Y224D03*
X2873Y724D03*
X2624Y1423D03*
X2375Y1425D03*
X2123Y1424D03*
X1874Y1426D03*
X1625Y1425D03*
G54D14*
X154Y849D03*
G54D15*
X2730Y724D02*
X2842Y724D01*
D02*
X2226Y1228D02*
X2730Y724D01*
D02*
X1625Y1228D02*
X2226Y1228D01*
D02*
X1625Y1394D02*
X1625Y1228D01*
D02*
X2730Y824D02*
X2842Y824D01*
D02*
X2273Y1285D02*
X2730Y824D01*
D02*
X1874Y1285D02*
X2273Y1285D01*
D02*
X1874Y1395D02*
X1874Y1285D01*
D02*
X2232Y1425D02*
X2730Y924D01*
D02*
X2730Y924D02*
X2842Y924D01*
D02*
X2154Y1424D02*
X2232Y1425D01*
D02*
X2763Y1024D02*
X2842Y1024D01*
D02*
X2397Y1403D02*
X2763Y1024D01*
D02*
X257Y324D02*
X257Y821D01*
D02*
X257Y821D02*
X905Y821D01*
D02*
X905Y821D02*
X905Y924D01*
D02*
X905Y924D02*
X978Y924D01*
D02*
X155Y324D02*
X257Y324D01*
D02*
X511Y325D02*
X511Y627D01*
D02*
X511Y627D02*
X908Y627D01*
D02*
X908Y627D02*
X908Y724D01*
D02*
X908Y724D02*
X978Y724D01*
D02*
X407Y325D02*
X511Y325D01*
D02*
X758Y571D02*
X1111Y571D01*
D02*
X758Y326D02*
X758Y571D01*
D02*
X1111Y571D02*
X1111Y924D01*
D02*
X1111Y924D02*
X1178Y924D01*
D02*
X656Y326D02*
X758Y326D01*
D02*
X1008Y324D02*
X1008Y514D01*
D02*
X1008Y514D02*
X1208Y514D01*
D02*
X1208Y514D02*
X1208Y694D01*
D02*
X905Y324D02*
X1008Y324D01*
D02*
X1292Y326D02*
X1292Y924D01*
D02*
X1292Y924D02*
X1378Y924D01*
D02*
X1157Y326D02*
X1292Y326D01*
D02*
X1478Y327D02*
X1478Y724D01*
D02*
X1478Y724D02*
X1439Y724D01*
D02*
X1406Y327D02*
X1478Y327D01*
D02*
X1542Y325D02*
X1593Y325D01*
D02*
X1542Y724D02*
X1542Y325D01*
D02*
X1578Y724D02*
X1542Y724D01*
D02*
X1725Y924D02*
X1725Y327D01*
D02*
X1725Y327D02*
X1844Y327D01*
D02*
X1639Y924D02*
X1725Y924D01*
D02*
X2009Y325D02*
X2093Y325D01*
D02*
X2009Y514D02*
X2009Y325D01*
D02*
X1808Y514D02*
X2009Y514D01*
D02*
X1808Y694D02*
X1808Y514D01*
D02*
X2259Y326D02*
X2342Y326D01*
D02*
X2259Y574D02*
X2259Y326D01*
D02*
X1902Y574D02*
X2259Y574D01*
D02*
X1902Y924D02*
X1902Y574D01*
D02*
X1839Y924D02*
X1902Y924D01*
D02*
X2509Y324D02*
X2594Y324D01*
D02*
X2509Y631D02*
X2509Y324D01*
D02*
X2109Y631D02*
X2509Y631D01*
D02*
X2109Y724D02*
X2109Y631D01*
D02*
X2039Y724D02*
X2109Y724D01*
D02*
X2760Y564D02*
X2760Y326D01*
D02*
X2760Y326D02*
X2843Y326D01*
D02*
X2493Y828D02*
X2760Y564D01*
D02*
X2109Y828D02*
X2493Y828D01*
D02*
X2109Y924D02*
X2109Y828D01*
D02*
X2039Y924D02*
X2109Y924D01*
G04 End of Copper0*
M02*