G04 MADE WITH FRITZING*
G04 WWW.FRITZING.ORG*
G04 DOUBLE SIDED*
G04 HOLES PLATED*
G04 CONTOUR ON CENTER OF CONTOUR VECTOR*
%ASAXBY*%
%FSLAX23Y23*%
%MOIN*%
%OFA0B0*%
%SFA1.0B1.0*%
%ADD10C,0.074000*%
%ADD11C,0.080000*%
%ADD12C,0.078000*%
%ADD13R,0.074000X0.074000*%
%ADD14R,0.080000X0.080000*%
%ADD15C,0.024000*%
%LNCOPPER1*%
G90*
G70*
G54D10*
X374Y1425D03*
X374Y1525D03*
X2874Y226D03*
X2874Y326D03*
X2874Y426D03*
X2626Y224D03*
X2626Y324D03*
X2626Y424D03*
X2373Y226D03*
X2373Y326D03*
X2373Y426D03*
X2124Y225D03*
X2124Y325D03*
X2124Y425D03*
X1875Y227D03*
X1875Y327D03*
X1875Y427D03*
X1624Y225D03*
X1624Y325D03*
X1624Y425D03*
X1375Y227D03*
X1375Y327D03*
X1375Y427D03*
X1126Y226D03*
X1126Y326D03*
X1126Y426D03*
X874Y224D03*
X874Y324D03*
X874Y424D03*
X625Y226D03*
X625Y326D03*
X625Y426D03*
X376Y225D03*
X376Y325D03*
X376Y425D03*
X124Y224D03*
X124Y324D03*
X124Y424D03*
X2873Y724D03*
X2873Y824D03*
X2873Y924D03*
X2873Y1024D03*
X2873Y1124D03*
X2624Y1423D03*
X2624Y1523D03*
X2375Y1425D03*
X2375Y1525D03*
X2123Y1424D03*
X2123Y1524D03*
X1874Y1426D03*
X1874Y1526D03*
X1625Y1425D03*
X1625Y1525D03*
G54D11*
X154Y849D03*
X154Y987D03*
G54D12*
X1008Y1124D03*
X1208Y1124D03*
X1408Y1124D03*
X1608Y1124D03*
X1808Y1124D03*
X2008Y1124D03*
X808Y724D03*
X1008Y724D03*
X1208Y724D03*
X1408Y724D03*
X1608Y724D03*
X1808Y724D03*
X2008Y724D03*
X2208Y724D03*
X808Y924D03*
X1008Y924D03*
X1208Y924D03*
X1408Y924D03*
X1608Y924D03*
X1808Y924D03*
X2008Y924D03*
X2208Y924D03*
G54D13*
X374Y1425D03*
X2874Y226D03*
X2626Y224D03*
X2373Y226D03*
X2124Y225D03*
X1875Y227D03*
X1624Y225D03*
X1375Y227D03*
X1126Y226D03*
X874Y224D03*
X625Y226D03*
X376Y225D03*
X124Y224D03*
X2873Y724D03*
X2624Y1423D03*
X2375Y1425D03*
X2123Y1424D03*
X1874Y1426D03*
X1625Y1425D03*
G54D14*
X154Y849D03*
G54D15*
X345Y425D02*
X155Y424D01*
D02*
X407Y425D02*
X594Y426D01*
D02*
X656Y426D02*
X843Y425D01*
D02*
X905Y425D02*
X1095Y426D01*
D02*
X1157Y426D02*
X1344Y427D01*
D02*
X1157Y226D02*
X1344Y227D01*
D02*
X1095Y226D02*
X905Y225D01*
D02*
X843Y225D02*
X656Y226D01*
D02*
X594Y226D02*
X407Y225D01*
D02*
X345Y225D02*
X155Y224D01*
D02*
X1844Y427D02*
X1655Y425D01*
D02*
X1655Y225D02*
X1844Y227D01*
D02*
X1907Y427D02*
X2093Y425D01*
D02*
X1907Y227D02*
X2093Y225D01*
D02*
X2156Y425D02*
X2342Y426D01*
D02*
X2156Y225D02*
X2342Y226D01*
D02*
X2404Y426D02*
X2594Y425D01*
D02*
X2404Y226D02*
X2594Y225D01*
D02*
X2657Y425D02*
X2843Y426D01*
D02*
X2657Y225D02*
X2843Y226D01*
D02*
X1594Y1525D02*
X405Y1525D01*
D02*
X1656Y1525D02*
X1843Y1526D01*
D02*
X1905Y1526D02*
X2092Y1524D01*
D02*
X2154Y1524D02*
X2344Y1525D01*
D02*
X2406Y1525D02*
X2593Y1524D01*
D02*
X1593Y425D02*
X1406Y427D01*
D02*
X1593Y225D02*
X1406Y227D01*
D02*
X2873Y1523D02*
X2873Y1155D01*
D02*
X2655Y1523D02*
X2873Y1523D01*
D02*
X154Y1525D02*
X154Y1018D01*
D02*
X343Y1525D02*
X154Y1525D01*
D02*
X2973Y226D02*
X2906Y226D01*
D02*
X2973Y1124D02*
X2973Y226D01*
D02*
X2904Y1124D02*
X2973Y1124D01*
D02*
X44Y224D02*
X93Y224D01*
D02*
X44Y987D02*
X44Y224D01*
D02*
X123Y987D02*
X44Y987D01*
D02*
X124Y567D02*
X154Y681D01*
D02*
X154Y681D02*
X154Y818D01*
D02*
X124Y455D02*
X124Y567D01*
D02*
X374Y849D02*
X374Y1394D01*
D02*
X185Y849D02*
X374Y849D01*
D02*
X2624Y1124D02*
X2624Y1392D01*
D02*
X2039Y1124D02*
X2624Y1124D01*
D02*
X2208Y1124D02*
X2208Y954D01*
D02*
X2039Y1124D02*
X2208Y1124D01*
D02*
X2208Y893D02*
X2208Y754D01*
D02*
X2208Y425D02*
X2208Y694D01*
D02*
X2156Y425D02*
X2208Y425D01*
D02*
X808Y893D02*
X808Y754D01*
D02*
X808Y1124D02*
X978Y1124D01*
D02*
X808Y954D02*
X808Y1124D01*
D02*
X1008Y1525D02*
X1008Y1154D01*
D02*
X405Y1525D02*
X1008Y1525D01*
D02*
X1208Y1425D02*
X1208Y1154D01*
D02*
X1594Y1425D02*
X1208Y1425D01*
D02*
X1408Y1348D02*
X1408Y1154D01*
D02*
X1874Y1348D02*
X1408Y1348D01*
D02*
X1874Y1395D02*
X1874Y1348D01*
D02*
X2123Y1285D02*
X1608Y1285D01*
D02*
X1608Y1285D02*
X1608Y1154D01*
D02*
X2123Y1393D02*
X2123Y1285D01*
D02*
X1808Y1225D02*
X1808Y1154D01*
D02*
X2375Y1225D02*
X1808Y1225D01*
D02*
X2375Y1394D02*
X2375Y1225D01*
G04 End of Copper1*
M02*