; NON-PLATED HOLES START AT T1
; THROUGH (PLATED) HOLES START AT T100
M48
INCH
T1C0.086614
T100C0.040000
T101C0.030000
T102C0.038000
T103C0.035000
%
T1
X011852Y000731
X011870Y007143
X000741Y007143
X000741Y000731
T100
X011333Y002873
X001561Y004985
X011041Y005755
X011041Y004377
X011333Y001873
X001561Y003607
T101
X007932Y001650
X006930Y001650
X004207Y001644
X003205Y001644
T102
X003473Y004304
X003473Y005304
X003473Y003304
T103
X004947Y004795
X007947Y002795
X004947Y005795
X007947Y003795
X009299Y005657
X007947Y004795
X005819Y007128
X007947Y005795
X004947Y002795
X009299Y001657
X004947Y003795
X001819Y007128
T00
M30
