G04 MADE WITH FRITZING*
G04 WWW.FRITZING.ORG*
G04 DOUBLE SIDED*
G04 HOLES PLATED*
G04 CONTOUR ON CENTER OF CONTOUR VECTOR*
%ASAXBY*%
%FSLAX23Y23*%
%MOIN*%
%OFA0B0*%
%SFA1.0B1.0*%
%ADD10R,0.225000X0.205000X0.215000X0.195000*%
%ADD11C,0.005000*%
%ADD12R,0.055000X0.105000X0.045000X0.095000*%
%ADD13C,0.010000*%
%ADD14R,0.001000X0.001000*%
%LNSILK1*%
G90*
G70*
G54D11*
X1013Y337D02*
X1233Y337D01*
X1233Y137D01*
X1013Y137D01*
X1013Y337D01*
D02*
X1183Y287D02*
X1233Y287D01*
X1233Y187D01*
X1183Y187D01*
X1183Y287D01*
D02*
G54D13*
X445Y630D02*
X445Y230D01*
D02*
X445Y230D02*
X845Y230D01*
D02*
X845Y230D02*
X845Y630D01*
D02*
X445Y630D02*
X595Y630D01*
D02*
X695Y630D02*
X845Y630D01*
D02*
X963Y456D02*
X963Y256D01*
D02*
X963Y256D02*
X897Y256D01*
D02*
X897Y256D02*
X897Y456D01*
D02*
X897Y456D02*
X963Y456D01*
D02*
X291Y746D02*
X491Y746D01*
D02*
X491Y746D02*
X491Y680D01*
D02*
X491Y680D02*
X291Y680D01*
D02*
X291Y680D02*
X291Y746D01*
D02*
X297Y580D02*
X297Y280D01*
D02*
X297Y280D02*
X397Y280D01*
D02*
X397Y280D02*
X397Y580D01*
D02*
X397Y580D02*
X297Y580D01*
D02*
X244Y287D02*
X244Y572D01*
D02*
X244Y572D02*
X28Y572D01*
D02*
X28Y572D02*
X28Y287D01*
D02*
X28Y287D02*
X244Y287D01*
G54D11*
D02*
X68Y572D02*
X68Y287D01*
G54D13*
D02*
X1016Y649D02*
X1016Y364D01*
D02*
X1016Y364D02*
X1232Y364D01*
D02*
X1232Y364D02*
X1232Y649D01*
D02*
X1232Y649D02*
X1016Y649D01*
G54D11*
D02*
X1192Y364D02*
X1192Y649D01*
G54D14*
X0Y787D02*
X1258Y787D01*
X0Y786D02*
X1258Y786D01*
X0Y785D02*
X1258Y785D01*
X0Y784D02*
X1258Y784D01*
X0Y783D02*
X1258Y783D01*
X0Y782D02*
X1258Y782D01*
X0Y781D02*
X1258Y781D01*
X0Y780D02*
X1258Y780D01*
X0Y779D02*
X7Y779D01*
X1251Y779D02*
X1258Y779D01*
X0Y778D02*
X7Y778D01*
X1251Y778D02*
X1258Y778D01*
X0Y777D02*
X7Y777D01*
X1251Y777D02*
X1258Y777D01*
X0Y776D02*
X7Y776D01*
X1251Y776D02*
X1258Y776D01*
X0Y775D02*
X7Y775D01*
X1251Y775D02*
X1258Y775D01*
X0Y774D02*
X7Y774D01*
X1251Y774D02*
X1258Y774D01*
X0Y773D02*
X7Y773D01*
X1251Y773D02*
X1258Y773D01*
X0Y772D02*
X7Y772D01*
X1251Y772D02*
X1258Y772D01*
X0Y771D02*
X7Y771D01*
X1251Y771D02*
X1258Y771D01*
X0Y770D02*
X7Y770D01*
X1251Y770D02*
X1258Y770D01*
X0Y769D02*
X7Y769D01*
X1251Y769D02*
X1258Y769D01*
X0Y768D02*
X7Y768D01*
X1251Y768D02*
X1258Y768D01*
X0Y767D02*
X7Y767D01*
X1251Y767D02*
X1258Y767D01*
X0Y766D02*
X7Y766D01*
X1251Y766D02*
X1258Y766D01*
X0Y765D02*
X7Y765D01*
X1251Y765D02*
X1258Y765D01*
X0Y764D02*
X7Y764D01*
X1251Y764D02*
X1258Y764D01*
X0Y763D02*
X7Y763D01*
X1251Y763D02*
X1258Y763D01*
X0Y762D02*
X7Y762D01*
X1251Y762D02*
X1258Y762D01*
X0Y761D02*
X7Y761D01*
X1251Y761D02*
X1258Y761D01*
X0Y760D02*
X7Y760D01*
X1251Y760D02*
X1258Y760D01*
X0Y759D02*
X7Y759D01*
X1251Y759D02*
X1258Y759D01*
X0Y758D02*
X7Y758D01*
X1251Y758D02*
X1258Y758D01*
X0Y757D02*
X7Y757D01*
X1251Y757D02*
X1258Y757D01*
X0Y756D02*
X7Y756D01*
X1251Y756D02*
X1258Y756D01*
X0Y755D02*
X7Y755D01*
X1251Y755D02*
X1258Y755D01*
X0Y754D02*
X7Y754D01*
X1251Y754D02*
X1258Y754D01*
X0Y753D02*
X7Y753D01*
X1251Y753D02*
X1258Y753D01*
X0Y752D02*
X7Y752D01*
X1251Y752D02*
X1258Y752D01*
X0Y751D02*
X7Y751D01*
X1251Y751D02*
X1258Y751D01*
X0Y750D02*
X7Y750D01*
X1251Y750D02*
X1258Y750D01*
X0Y749D02*
X7Y749D01*
X1251Y749D02*
X1258Y749D01*
X0Y748D02*
X7Y748D01*
X1251Y748D02*
X1258Y748D01*
X0Y747D02*
X7Y747D01*
X1251Y747D02*
X1258Y747D01*
X0Y746D02*
X7Y746D01*
X1251Y746D02*
X1258Y746D01*
X0Y745D02*
X7Y745D01*
X1251Y745D02*
X1258Y745D01*
X0Y744D02*
X7Y744D01*
X1251Y744D02*
X1258Y744D01*
X0Y743D02*
X7Y743D01*
X1251Y743D02*
X1258Y743D01*
X0Y742D02*
X7Y742D01*
X1251Y742D02*
X1258Y742D01*
X0Y741D02*
X7Y741D01*
X1251Y741D02*
X1258Y741D01*
X0Y740D02*
X7Y740D01*
X1251Y740D02*
X1258Y740D01*
X0Y739D02*
X7Y739D01*
X1251Y739D02*
X1258Y739D01*
X0Y738D02*
X7Y738D01*
X1251Y738D02*
X1258Y738D01*
X0Y737D02*
X7Y737D01*
X1251Y737D02*
X1258Y737D01*
X0Y736D02*
X7Y736D01*
X1251Y736D02*
X1258Y736D01*
X0Y735D02*
X7Y735D01*
X1251Y735D02*
X1258Y735D01*
X0Y734D02*
X7Y734D01*
X1251Y734D02*
X1258Y734D01*
X0Y733D02*
X7Y733D01*
X1251Y733D02*
X1258Y733D01*
X0Y732D02*
X7Y732D01*
X1251Y732D02*
X1258Y732D01*
X0Y731D02*
X7Y731D01*
X1251Y731D02*
X1258Y731D01*
X0Y730D02*
X7Y730D01*
X1251Y730D02*
X1258Y730D01*
X0Y729D02*
X7Y729D01*
X1251Y729D02*
X1258Y729D01*
X0Y728D02*
X7Y728D01*
X1251Y728D02*
X1258Y728D01*
X0Y727D02*
X7Y727D01*
X337Y727D02*
X342Y727D01*
X372Y727D02*
X382Y727D01*
X399Y727D02*
X415Y727D01*
X1251Y727D02*
X1258Y727D01*
X0Y726D02*
X7Y726D01*
X337Y726D02*
X342Y726D01*
X371Y726D02*
X383Y726D01*
X398Y726D02*
X416Y726D01*
X436Y726D02*
X441Y726D01*
X1251Y726D02*
X1258Y726D01*
X0Y725D02*
X7Y725D01*
X337Y725D02*
X342Y725D01*
X371Y725D02*
X383Y725D01*
X398Y725D02*
X417Y725D01*
X433Y725D02*
X444Y725D01*
X1251Y725D02*
X1258Y725D01*
X0Y724D02*
X7Y724D01*
X337Y724D02*
X341Y724D01*
X371Y724D02*
X383Y724D01*
X397Y724D02*
X417Y724D01*
X431Y724D02*
X446Y724D01*
X1251Y724D02*
X1258Y724D01*
X0Y723D02*
X7Y723D01*
X337Y723D02*
X340Y723D01*
X371Y723D02*
X374Y723D01*
X380Y723D02*
X383Y723D01*
X397Y723D02*
X400Y723D01*
X414Y723D02*
X417Y723D01*
X430Y723D02*
X437Y723D01*
X441Y723D02*
X448Y723D01*
X1251Y723D02*
X1258Y723D01*
X0Y722D02*
X7Y722D01*
X337Y722D02*
X340Y722D01*
X371Y722D02*
X374Y722D01*
X380Y722D02*
X383Y722D01*
X397Y722D02*
X400Y722D01*
X414Y722D02*
X417Y722D01*
X429Y722D02*
X434Y722D01*
X444Y722D02*
X449Y722D01*
X1251Y722D02*
X1258Y722D01*
X0Y721D02*
X7Y721D01*
X337Y721D02*
X340Y721D01*
X371Y721D02*
X374Y721D01*
X380Y721D02*
X383Y721D01*
X397Y721D02*
X400Y721D01*
X414Y721D02*
X417Y721D01*
X428Y721D02*
X432Y721D01*
X445Y721D02*
X449Y721D01*
X1023Y721D02*
X1036Y721D01*
X1052Y721D02*
X1059Y721D01*
X1077Y721D02*
X1079Y721D01*
X1097Y721D02*
X1111Y721D01*
X1251Y721D02*
X1258Y721D01*
X0Y720D02*
X7Y720D01*
X337Y720D02*
X340Y720D01*
X371Y720D02*
X374Y720D01*
X380Y720D02*
X383Y720D01*
X397Y720D02*
X400Y720D01*
X414Y720D02*
X417Y720D01*
X427Y720D02*
X431Y720D01*
X446Y720D02*
X450Y720D01*
X1021Y720D02*
X1037Y720D01*
X1052Y720D02*
X1059Y720D01*
X1076Y720D02*
X1080Y720D01*
X1096Y720D02*
X1114Y720D01*
X1251Y720D02*
X1258Y720D01*
X0Y719D02*
X7Y719D01*
X337Y719D02*
X340Y719D01*
X371Y719D02*
X374Y719D01*
X380Y719D02*
X383Y719D01*
X397Y719D02*
X400Y719D01*
X414Y719D02*
X417Y719D01*
X427Y719D02*
X430Y719D01*
X447Y719D02*
X451Y719D01*
X1020Y719D02*
X1037Y719D01*
X1052Y719D02*
X1060Y719D01*
X1076Y719D02*
X1081Y719D01*
X1096Y719D02*
X1115Y719D01*
X1251Y719D02*
X1258Y719D01*
X0Y718D02*
X7Y718D01*
X337Y718D02*
X340Y718D01*
X371Y718D02*
X374Y718D01*
X380Y718D02*
X383Y718D01*
X397Y718D02*
X400Y718D01*
X414Y718D02*
X417Y718D01*
X426Y718D02*
X430Y718D01*
X448Y718D02*
X451Y718D01*
X1019Y718D02*
X1037Y718D01*
X1052Y718D02*
X1060Y718D01*
X1076Y718D02*
X1081Y718D01*
X1096Y718D02*
X1116Y718D01*
X1251Y718D02*
X1258Y718D01*
X0Y717D02*
X7Y717D01*
X224Y717D02*
X290Y717D01*
X337Y717D02*
X340Y717D01*
X371Y717D02*
X374Y717D01*
X380Y717D02*
X383Y717D01*
X397Y717D02*
X400Y717D01*
X414Y717D02*
X417Y717D01*
X426Y717D02*
X429Y717D01*
X448Y717D02*
X452Y717D01*
X491Y717D02*
X538Y717D01*
X1018Y717D02*
X1037Y717D01*
X1052Y717D02*
X1061Y717D01*
X1076Y717D02*
X1081Y717D01*
X1096Y717D02*
X1117Y717D01*
X1251Y717D02*
X1258Y717D01*
X0Y716D02*
X7Y716D01*
X224Y716D02*
X290Y716D01*
X337Y716D02*
X340Y716D01*
X371Y716D02*
X374Y716D01*
X380Y716D02*
X383Y716D01*
X397Y716D02*
X400Y716D01*
X414Y716D02*
X417Y716D01*
X426Y716D02*
X429Y716D01*
X448Y716D02*
X452Y716D01*
X491Y716D02*
X538Y716D01*
X1017Y716D02*
X1036Y716D01*
X1052Y716D02*
X1061Y716D01*
X1076Y716D02*
X1081Y716D01*
X1097Y716D02*
X1117Y716D01*
X1251Y716D02*
X1258Y716D01*
X0Y715D02*
X7Y715D01*
X224Y715D02*
X290Y715D01*
X337Y715D02*
X340Y715D01*
X371Y715D02*
X374Y715D01*
X380Y715D02*
X383Y715D01*
X397Y715D02*
X400Y715D01*
X414Y715D02*
X417Y715D01*
X425Y715D02*
X429Y715D01*
X448Y715D02*
X452Y715D01*
X491Y715D02*
X538Y715D01*
X1016Y715D02*
X1024Y715D01*
X1052Y715D02*
X1062Y715D01*
X1076Y715D02*
X1081Y715D01*
X1101Y715D02*
X1107Y715D01*
X1111Y715D02*
X1118Y715D01*
X1251Y715D02*
X1258Y715D01*
X0Y714D02*
X7Y714D01*
X224Y714D02*
X290Y714D01*
X337Y714D02*
X340Y714D01*
X371Y714D02*
X375Y714D01*
X379Y714D02*
X383Y714D01*
X397Y714D02*
X400Y714D01*
X414Y714D02*
X417Y714D01*
X425Y714D02*
X429Y714D01*
X449Y714D02*
X452Y714D01*
X491Y714D02*
X538Y714D01*
X1016Y714D02*
X1022Y714D01*
X1052Y714D02*
X1062Y714D01*
X1076Y714D02*
X1081Y714D01*
X1101Y714D02*
X1107Y714D01*
X1112Y714D02*
X1118Y714D01*
X1251Y714D02*
X1258Y714D01*
X0Y713D02*
X7Y713D01*
X224Y713D02*
X290Y713D01*
X337Y713D02*
X340Y713D01*
X369Y713D02*
X385Y713D01*
X397Y713D02*
X400Y713D01*
X414Y713D02*
X417Y713D01*
X425Y713D02*
X429Y713D01*
X449Y713D02*
X452Y713D01*
X491Y713D02*
X538Y713D01*
X1015Y713D02*
X1022Y713D01*
X1052Y713D02*
X1062Y713D01*
X1076Y713D02*
X1081Y713D01*
X1101Y713D02*
X1107Y713D01*
X1113Y713D02*
X1119Y713D01*
X1251Y713D02*
X1258Y713D01*
X0Y712D02*
X7Y712D01*
X224Y712D02*
X290Y712D01*
X337Y712D02*
X340Y712D01*
X368Y712D02*
X386Y712D01*
X397Y712D02*
X400Y712D01*
X414Y712D02*
X417Y712D01*
X425Y712D02*
X429Y712D01*
X449Y712D02*
X452Y712D01*
X491Y712D02*
X538Y712D01*
X1014Y712D02*
X1021Y712D01*
X1052Y712D02*
X1063Y712D01*
X1076Y712D02*
X1081Y712D01*
X1101Y712D02*
X1107Y712D01*
X1113Y712D02*
X1119Y712D01*
X1251Y712D02*
X1258Y712D01*
X0Y711D02*
X7Y711D01*
X224Y711D02*
X290Y711D01*
X337Y711D02*
X340Y711D01*
X367Y711D02*
X387Y711D01*
X397Y711D02*
X400Y711D01*
X414Y711D02*
X417Y711D01*
X425Y711D02*
X429Y711D01*
X449Y711D02*
X452Y711D01*
X491Y711D02*
X538Y711D01*
X1013Y711D02*
X1020Y711D01*
X1052Y711D02*
X1063Y711D01*
X1076Y711D02*
X1081Y711D01*
X1101Y711D02*
X1107Y711D01*
X1114Y711D02*
X1120Y711D01*
X1251Y711D02*
X1258Y711D01*
X0Y710D02*
X7Y710D01*
X224Y710D02*
X290Y710D01*
X337Y710D02*
X356Y710D01*
X367Y710D02*
X387Y710D01*
X397Y710D02*
X400Y710D01*
X414Y710D02*
X417Y710D01*
X425Y710D02*
X429Y710D01*
X449Y710D02*
X452Y710D01*
X491Y710D02*
X538Y710D01*
X1013Y710D02*
X1019Y710D01*
X1052Y710D02*
X1064Y710D01*
X1076Y710D02*
X1081Y710D01*
X1101Y710D02*
X1107Y710D01*
X1114Y710D02*
X1120Y710D01*
X1251Y710D02*
X1258Y710D01*
X0Y709D02*
X7Y709D01*
X224Y709D02*
X290Y709D01*
X337Y709D02*
X357Y709D01*
X367Y709D02*
X370Y709D01*
X384Y709D02*
X387Y709D01*
X397Y709D02*
X400Y709D01*
X414Y709D02*
X417Y709D01*
X425Y709D02*
X429Y709D01*
X448Y709D02*
X452Y709D01*
X491Y709D02*
X538Y709D01*
X1012Y709D02*
X1019Y709D01*
X1052Y709D02*
X1057Y709D01*
X1059Y709D02*
X1064Y709D01*
X1076Y709D02*
X1081Y709D01*
X1101Y709D02*
X1107Y709D01*
X1115Y709D02*
X1121Y709D01*
X1251Y709D02*
X1258Y709D01*
X0Y708D02*
X7Y708D01*
X224Y708D02*
X290Y708D01*
X337Y708D02*
X357Y708D01*
X367Y708D02*
X370Y708D01*
X384Y708D02*
X387Y708D01*
X397Y708D02*
X400Y708D01*
X414Y708D02*
X417Y708D01*
X426Y708D02*
X429Y708D01*
X448Y708D02*
X452Y708D01*
X492Y708D02*
X539Y708D01*
X1011Y708D02*
X1018Y708D01*
X1052Y708D02*
X1057Y708D01*
X1059Y708D02*
X1065Y708D01*
X1076Y708D02*
X1081Y708D01*
X1101Y708D02*
X1107Y708D01*
X1115Y708D02*
X1121Y708D01*
X1251Y708D02*
X1258Y708D01*
X0Y707D02*
X7Y707D01*
X337Y707D02*
X357Y707D01*
X367Y707D02*
X370Y707D01*
X384Y707D02*
X387Y707D01*
X397Y707D02*
X400Y707D01*
X414Y707D02*
X417Y707D01*
X426Y707D02*
X429Y707D01*
X448Y707D02*
X451Y707D01*
X1010Y707D02*
X1017Y707D01*
X1052Y707D02*
X1057Y707D01*
X1059Y707D02*
X1065Y707D01*
X1076Y707D02*
X1081Y707D01*
X1101Y707D02*
X1107Y707D01*
X1116Y707D02*
X1122Y707D01*
X1251Y707D02*
X1258Y707D01*
X0Y706D02*
X7Y706D01*
X337Y706D02*
X341Y706D01*
X353Y706D02*
X357Y706D01*
X367Y706D02*
X370Y706D01*
X384Y706D02*
X387Y706D01*
X397Y706D02*
X400Y706D01*
X414Y706D02*
X417Y706D01*
X426Y706D02*
X430Y706D01*
X448Y706D02*
X451Y706D01*
X1010Y706D02*
X1016Y706D01*
X1052Y706D02*
X1057Y706D01*
X1060Y706D02*
X1066Y706D01*
X1076Y706D02*
X1081Y706D01*
X1101Y706D02*
X1107Y706D01*
X1116Y706D02*
X1122Y706D01*
X1251Y706D02*
X1258Y706D01*
X0Y705D02*
X7Y705D01*
X337Y705D02*
X340Y705D01*
X354Y705D02*
X357Y705D01*
X367Y705D02*
X370Y705D01*
X384Y705D02*
X387Y705D01*
X397Y705D02*
X400Y705D01*
X414Y705D02*
X417Y705D01*
X427Y705D02*
X430Y705D01*
X447Y705D02*
X451Y705D01*
X1009Y705D02*
X1015Y705D01*
X1052Y705D02*
X1057Y705D01*
X1060Y705D02*
X1066Y705D01*
X1076Y705D02*
X1081Y705D01*
X1101Y705D02*
X1107Y705D01*
X1117Y705D02*
X1123Y705D01*
X1251Y705D02*
X1258Y705D01*
X0Y704D02*
X7Y704D01*
X337Y704D02*
X340Y704D01*
X354Y704D02*
X357Y704D01*
X367Y704D02*
X370Y704D01*
X384Y704D02*
X387Y704D01*
X397Y704D02*
X400Y704D01*
X414Y704D02*
X417Y704D01*
X427Y704D02*
X431Y704D01*
X447Y704D02*
X450Y704D01*
X1009Y704D02*
X1015Y704D01*
X1052Y704D02*
X1057Y704D01*
X1061Y704D02*
X1066Y704D01*
X1076Y704D02*
X1081Y704D01*
X1101Y704D02*
X1107Y704D01*
X1117Y704D02*
X1123Y704D01*
X1251Y704D02*
X1258Y704D01*
X0Y703D02*
X7Y703D01*
X337Y703D02*
X340Y703D01*
X354Y703D02*
X357Y703D01*
X367Y703D02*
X370Y703D01*
X384Y703D02*
X387Y703D01*
X397Y703D02*
X400Y703D01*
X414Y703D02*
X417Y703D01*
X428Y703D02*
X431Y703D01*
X446Y703D02*
X449Y703D01*
X1008Y703D02*
X1014Y703D01*
X1052Y703D02*
X1057Y703D01*
X1061Y703D02*
X1067Y703D01*
X1076Y703D02*
X1081Y703D01*
X1101Y703D02*
X1107Y703D01*
X1118Y703D02*
X1124Y703D01*
X1251Y703D02*
X1258Y703D01*
X0Y702D02*
X7Y702D01*
X337Y702D02*
X340Y702D01*
X354Y702D02*
X357Y702D01*
X367Y702D02*
X370Y702D01*
X384Y702D02*
X387Y702D01*
X397Y702D02*
X400Y702D01*
X414Y702D02*
X417Y702D01*
X429Y702D02*
X432Y702D01*
X445Y702D02*
X449Y702D01*
X1008Y702D02*
X1014Y702D01*
X1052Y702D02*
X1057Y702D01*
X1062Y702D02*
X1067Y702D01*
X1076Y702D02*
X1081Y702D01*
X1101Y702D02*
X1107Y702D01*
X1118Y702D02*
X1124Y702D01*
X1251Y702D02*
X1258Y702D01*
X0Y701D02*
X7Y701D01*
X337Y701D02*
X340Y701D01*
X354Y701D02*
X357Y701D01*
X367Y701D02*
X370Y701D01*
X384Y701D02*
X387Y701D01*
X397Y701D02*
X400Y701D01*
X414Y701D02*
X417Y701D01*
X430Y701D02*
X433Y701D01*
X445Y701D02*
X448Y701D01*
X1008Y701D02*
X1013Y701D01*
X1052Y701D02*
X1057Y701D01*
X1062Y701D02*
X1068Y701D01*
X1076Y701D02*
X1081Y701D01*
X1101Y701D02*
X1107Y701D01*
X1119Y701D02*
X1124Y701D01*
X1251Y701D02*
X1258Y701D01*
X0Y700D02*
X7Y700D01*
X337Y700D02*
X340Y700D01*
X354Y700D02*
X357Y700D01*
X367Y700D02*
X370Y700D01*
X384Y700D02*
X387Y700D01*
X397Y700D02*
X401Y700D01*
X414Y700D02*
X417Y700D01*
X431Y700D02*
X434Y700D01*
X444Y700D02*
X447Y700D01*
X1008Y700D02*
X1013Y700D01*
X1052Y700D02*
X1057Y700D01*
X1062Y700D02*
X1068Y700D01*
X1076Y700D02*
X1081Y700D01*
X1101Y700D02*
X1107Y700D01*
X1119Y700D02*
X1124Y700D01*
X1251Y700D02*
X1258Y700D01*
X0Y699D02*
X7Y699D01*
X337Y699D02*
X357Y699D01*
X367Y699D02*
X387Y699D01*
X397Y699D02*
X417Y699D01*
X432Y699D02*
X435Y699D01*
X442Y699D02*
X446Y699D01*
X1008Y699D02*
X1013Y699D01*
X1052Y699D02*
X1057Y699D01*
X1063Y699D02*
X1069Y699D01*
X1076Y699D02*
X1081Y699D01*
X1101Y699D02*
X1107Y699D01*
X1119Y699D02*
X1124Y699D01*
X1251Y699D02*
X1258Y699D01*
X0Y698D02*
X7Y698D01*
X337Y698D02*
X357Y698D01*
X368Y698D02*
X387Y698D01*
X398Y698D02*
X417Y698D01*
X424Y698D02*
X436Y698D01*
X442Y698D02*
X453Y698D01*
X1008Y698D02*
X1013Y698D01*
X1052Y698D02*
X1057Y698D01*
X1063Y698D02*
X1069Y698D01*
X1076Y698D02*
X1081Y698D01*
X1101Y698D02*
X1107Y698D01*
X1119Y698D02*
X1125Y698D01*
X1251Y698D02*
X1258Y698D01*
X0Y697D02*
X7Y697D01*
X337Y697D02*
X357Y697D01*
X368Y697D02*
X386Y697D01*
X398Y697D02*
X416Y697D01*
X424Y697D02*
X436Y697D01*
X442Y697D02*
X453Y697D01*
X1008Y697D02*
X1013Y697D01*
X1052Y697D02*
X1057Y697D01*
X1064Y697D02*
X1069Y697D01*
X1076Y697D02*
X1081Y697D01*
X1101Y697D02*
X1107Y697D01*
X1119Y697D02*
X1125Y697D01*
X1251Y697D02*
X1258Y697D01*
X0Y696D02*
X7Y696D01*
X338Y696D02*
X356Y696D01*
X369Y696D02*
X385Y696D01*
X399Y696D02*
X415Y696D01*
X424Y696D02*
X436Y696D01*
X442Y696D02*
X453Y696D01*
X1008Y696D02*
X1013Y696D01*
X1052Y696D02*
X1057Y696D01*
X1064Y696D02*
X1070Y696D01*
X1076Y696D02*
X1081Y696D01*
X1101Y696D02*
X1107Y696D01*
X1119Y696D02*
X1124Y696D01*
X1251Y696D02*
X1258Y696D01*
X0Y695D02*
X7Y695D01*
X1008Y695D02*
X1013Y695D01*
X1024Y695D02*
X1037Y695D01*
X1052Y695D02*
X1057Y695D01*
X1065Y695D02*
X1070Y695D01*
X1076Y695D02*
X1081Y695D01*
X1101Y695D02*
X1107Y695D01*
X1119Y695D02*
X1124Y695D01*
X1251Y695D02*
X1258Y695D01*
X0Y694D02*
X7Y694D01*
X1008Y694D02*
X1013Y694D01*
X1023Y694D02*
X1037Y694D01*
X1052Y694D02*
X1057Y694D01*
X1065Y694D02*
X1071Y694D01*
X1076Y694D02*
X1081Y694D01*
X1101Y694D02*
X1107Y694D01*
X1118Y694D02*
X1124Y694D01*
X1251Y694D02*
X1258Y694D01*
X0Y693D02*
X7Y693D01*
X1008Y693D02*
X1013Y693D01*
X1023Y693D02*
X1037Y693D01*
X1052Y693D02*
X1057Y693D01*
X1066Y693D02*
X1071Y693D01*
X1076Y693D02*
X1081Y693D01*
X1101Y693D02*
X1107Y693D01*
X1118Y693D02*
X1124Y693D01*
X1251Y693D02*
X1258Y693D01*
X0Y692D02*
X7Y692D01*
X1008Y692D02*
X1013Y692D01*
X1023Y692D02*
X1037Y692D01*
X1052Y692D02*
X1057Y692D01*
X1066Y692D02*
X1072Y692D01*
X1076Y692D02*
X1081Y692D01*
X1101Y692D02*
X1107Y692D01*
X1117Y692D02*
X1123Y692D01*
X1251Y692D02*
X1258Y692D01*
X0Y691D02*
X7Y691D01*
X1008Y691D02*
X1013Y691D01*
X1024Y691D02*
X1037Y691D01*
X1052Y691D02*
X1057Y691D01*
X1066Y691D02*
X1072Y691D01*
X1076Y691D02*
X1081Y691D01*
X1101Y691D02*
X1107Y691D01*
X1117Y691D02*
X1123Y691D01*
X1251Y691D02*
X1258Y691D01*
X0Y690D02*
X7Y690D01*
X1008Y690D02*
X1013Y690D01*
X1025Y690D02*
X1037Y690D01*
X1052Y690D02*
X1057Y690D01*
X1067Y690D02*
X1073Y690D01*
X1076Y690D02*
X1081Y690D01*
X1101Y690D02*
X1107Y690D01*
X1116Y690D02*
X1122Y690D01*
X1251Y690D02*
X1258Y690D01*
X0Y689D02*
X7Y689D01*
X1008Y689D02*
X1013Y689D01*
X1032Y689D02*
X1037Y689D01*
X1052Y689D02*
X1057Y689D01*
X1067Y689D02*
X1073Y689D01*
X1076Y689D02*
X1081Y689D01*
X1101Y689D02*
X1107Y689D01*
X1116Y689D02*
X1122Y689D01*
X1251Y689D02*
X1258Y689D01*
X0Y688D02*
X7Y688D01*
X1008Y688D02*
X1013Y688D01*
X1032Y688D02*
X1037Y688D01*
X1052Y688D02*
X1057Y688D01*
X1068Y688D02*
X1073Y688D01*
X1076Y688D02*
X1081Y688D01*
X1101Y688D02*
X1107Y688D01*
X1115Y688D02*
X1121Y688D01*
X1251Y688D02*
X1258Y688D01*
X0Y687D02*
X7Y687D01*
X1008Y687D02*
X1013Y687D01*
X1032Y687D02*
X1037Y687D01*
X1052Y687D02*
X1057Y687D01*
X1068Y687D02*
X1074Y687D01*
X1076Y687D02*
X1081Y687D01*
X1101Y687D02*
X1107Y687D01*
X1115Y687D02*
X1121Y687D01*
X1251Y687D02*
X1258Y687D01*
X0Y686D02*
X7Y686D01*
X1008Y686D02*
X1013Y686D01*
X1032Y686D02*
X1037Y686D01*
X1052Y686D02*
X1057Y686D01*
X1069Y686D02*
X1081Y686D01*
X1101Y686D02*
X1107Y686D01*
X1114Y686D02*
X1120Y686D01*
X1251Y686D02*
X1258Y686D01*
X0Y685D02*
X7Y685D01*
X1008Y685D02*
X1013Y685D01*
X1032Y685D02*
X1037Y685D01*
X1052Y685D02*
X1057Y685D01*
X1069Y685D02*
X1081Y685D01*
X1101Y685D02*
X1107Y685D01*
X1114Y685D02*
X1120Y685D01*
X1251Y685D02*
X1258Y685D01*
X0Y684D02*
X7Y684D01*
X1008Y684D02*
X1013Y684D01*
X1032Y684D02*
X1037Y684D01*
X1052Y684D02*
X1057Y684D01*
X1069Y684D02*
X1081Y684D01*
X1101Y684D02*
X1107Y684D01*
X1113Y684D02*
X1119Y684D01*
X1251Y684D02*
X1258Y684D01*
X0Y683D02*
X7Y683D01*
X1008Y683D02*
X1013Y683D01*
X1032Y683D02*
X1037Y683D01*
X1052Y683D02*
X1057Y683D01*
X1070Y683D02*
X1081Y683D01*
X1101Y683D02*
X1107Y683D01*
X1113Y683D02*
X1119Y683D01*
X1251Y683D02*
X1258Y683D01*
X0Y682D02*
X7Y682D01*
X1008Y682D02*
X1013Y682D01*
X1032Y682D02*
X1037Y682D01*
X1052Y682D02*
X1057Y682D01*
X1070Y682D02*
X1081Y682D01*
X1101Y682D02*
X1107Y682D01*
X1112Y682D02*
X1118Y682D01*
X1251Y682D02*
X1258Y682D01*
X0Y681D02*
X7Y681D01*
X1008Y681D02*
X1014Y681D01*
X1031Y681D02*
X1037Y681D01*
X1052Y681D02*
X1057Y681D01*
X1071Y681D02*
X1081Y681D01*
X1101Y681D02*
X1107Y681D01*
X1112Y681D02*
X1118Y681D01*
X1251Y681D02*
X1258Y681D01*
X0Y680D02*
X7Y680D01*
X1009Y680D02*
X1036Y680D01*
X1052Y680D02*
X1057Y680D01*
X1071Y680D02*
X1081Y680D01*
X1097Y680D02*
X1117Y680D01*
X1251Y680D02*
X1258Y680D01*
X0Y679D02*
X7Y679D01*
X1009Y679D02*
X1036Y679D01*
X1052Y679D02*
X1057Y679D01*
X1072Y679D02*
X1081Y679D01*
X1096Y679D02*
X1117Y679D01*
X1251Y679D02*
X1258Y679D01*
X0Y678D02*
X7Y678D01*
X1010Y678D02*
X1035Y678D01*
X1052Y678D02*
X1057Y678D01*
X1072Y678D02*
X1081Y678D01*
X1096Y678D02*
X1116Y678D01*
X1251Y678D02*
X1258Y678D01*
X0Y677D02*
X7Y677D01*
X1011Y677D02*
X1034Y677D01*
X1052Y677D02*
X1057Y677D01*
X1073Y677D02*
X1081Y677D01*
X1096Y677D02*
X1115Y677D01*
X1251Y677D02*
X1258Y677D01*
X0Y676D02*
X7Y676D01*
X1012Y676D02*
X1033Y676D01*
X1052Y676D02*
X1056Y676D01*
X1073Y676D02*
X1081Y676D01*
X1096Y676D02*
X1114Y676D01*
X1251Y676D02*
X1258Y676D01*
X0Y675D02*
X7Y675D01*
X1013Y675D02*
X1032Y675D01*
X1053Y675D02*
X1056Y675D01*
X1073Y675D02*
X1081Y675D01*
X1097Y675D02*
X1112Y675D01*
X1251Y675D02*
X1258Y675D01*
X0Y674D02*
X7Y674D01*
X1251Y674D02*
X1258Y674D01*
X0Y673D02*
X7Y673D01*
X1251Y673D02*
X1258Y673D01*
X0Y672D02*
X7Y672D01*
X1251Y672D02*
X1258Y672D01*
X0Y671D02*
X7Y671D01*
X1251Y671D02*
X1258Y671D01*
X0Y670D02*
X7Y670D01*
X1251Y670D02*
X1258Y670D01*
X0Y669D02*
X7Y669D01*
X1251Y669D02*
X1258Y669D01*
X0Y668D02*
X7Y668D01*
X1251Y668D02*
X1258Y668D01*
X0Y667D02*
X7Y667D01*
X1251Y667D02*
X1258Y667D01*
X0Y666D02*
X7Y666D01*
X1251Y666D02*
X1258Y666D01*
X0Y665D02*
X7Y665D01*
X1251Y665D02*
X1258Y665D01*
X0Y664D02*
X7Y664D01*
X1251Y664D02*
X1258Y664D01*
X0Y663D02*
X7Y663D01*
X1251Y663D02*
X1258Y663D01*
X0Y662D02*
X7Y662D01*
X1251Y662D02*
X1258Y662D01*
X0Y661D02*
X7Y661D01*
X1251Y661D02*
X1258Y661D01*
X0Y660D02*
X7Y660D01*
X1251Y660D02*
X1258Y660D01*
X0Y659D02*
X7Y659D01*
X1251Y659D02*
X1258Y659D01*
X0Y658D02*
X7Y658D01*
X1251Y658D02*
X1258Y658D01*
X0Y657D02*
X7Y657D01*
X1251Y657D02*
X1258Y657D01*
X0Y656D02*
X7Y656D01*
X1251Y656D02*
X1258Y656D01*
X0Y655D02*
X7Y655D01*
X1251Y655D02*
X1258Y655D01*
X0Y654D02*
X7Y654D01*
X1251Y654D02*
X1258Y654D01*
X0Y653D02*
X7Y653D01*
X1251Y653D02*
X1258Y653D01*
X0Y652D02*
X7Y652D01*
X1251Y652D02*
X1258Y652D01*
X0Y651D02*
X7Y651D01*
X1251Y651D02*
X1258Y651D01*
X0Y650D02*
X7Y650D01*
X1251Y650D02*
X1258Y650D01*
X0Y649D02*
X7Y649D01*
X1251Y649D02*
X1258Y649D01*
X0Y648D02*
X7Y648D01*
X1251Y648D02*
X1258Y648D01*
X0Y647D02*
X7Y647D01*
X1251Y647D02*
X1258Y647D01*
X0Y646D02*
X7Y646D01*
X1251Y646D02*
X1258Y646D01*
X0Y645D02*
X7Y645D01*
X1251Y645D02*
X1258Y645D01*
X0Y644D02*
X7Y644D01*
X1251Y644D02*
X1258Y644D01*
X0Y643D02*
X7Y643D01*
X1251Y643D02*
X1258Y643D01*
X0Y642D02*
X7Y642D01*
X108Y642D02*
X111Y642D01*
X141Y642D02*
X142Y642D01*
X165Y642D02*
X166Y642D01*
X183Y642D02*
X212Y642D01*
X321Y642D02*
X326Y642D01*
X353Y642D02*
X360Y642D01*
X378Y642D02*
X381Y642D01*
X1251Y642D02*
X1258Y642D01*
X0Y641D02*
X7Y641D01*
X106Y641D02*
X113Y641D01*
X139Y641D02*
X143Y641D01*
X163Y641D02*
X167Y641D01*
X183Y641D02*
X212Y641D01*
X319Y641D02*
X328Y641D01*
X353Y641D02*
X361Y641D01*
X377Y641D02*
X382Y641D01*
X1251Y641D02*
X1258Y641D01*
X0Y640D02*
X7Y640D01*
X105Y640D02*
X115Y640D01*
X139Y640D02*
X144Y640D01*
X163Y640D02*
X168Y640D01*
X183Y640D02*
X212Y640D01*
X318Y640D02*
X329Y640D01*
X353Y640D02*
X361Y640D01*
X377Y640D02*
X382Y640D01*
X1251Y640D02*
X1258Y640D01*
X0Y639D02*
X7Y639D01*
X104Y639D02*
X115Y639D01*
X139Y639D02*
X144Y639D01*
X163Y639D02*
X168Y639D01*
X183Y639D02*
X212Y639D01*
X317Y639D02*
X330Y639D01*
X353Y639D02*
X362Y639D01*
X377Y639D02*
X382Y639D01*
X1251Y639D02*
X1258Y639D01*
X0Y638D02*
X7Y638D01*
X103Y638D02*
X116Y638D01*
X139Y638D02*
X144Y638D01*
X163Y638D02*
X168Y638D01*
X183Y638D02*
X212Y638D01*
X317Y638D02*
X330Y638D01*
X353Y638D02*
X362Y638D01*
X377Y638D02*
X382Y638D01*
X1251Y638D02*
X1258Y638D01*
X0Y637D02*
X7Y637D01*
X102Y637D02*
X117Y637D01*
X139Y637D02*
X144Y637D01*
X163Y637D02*
X168Y637D01*
X183Y637D02*
X212Y637D01*
X316Y637D02*
X331Y637D01*
X353Y637D02*
X362Y637D01*
X377Y637D02*
X382Y637D01*
X1251Y637D02*
X1258Y637D01*
X0Y636D02*
X7Y636D01*
X102Y636D02*
X108Y636D01*
X111Y636D02*
X117Y636D01*
X139Y636D02*
X144Y636D01*
X163Y636D02*
X168Y636D01*
X183Y636D02*
X188Y636D01*
X194Y636D02*
X200Y636D01*
X206Y636D02*
X212Y636D01*
X316Y636D02*
X322Y636D01*
X325Y636D02*
X331Y636D01*
X353Y636D02*
X363Y636D01*
X377Y636D02*
X382Y636D01*
X1251Y636D02*
X1258Y636D01*
X0Y635D02*
X7Y635D01*
X102Y635D02*
X107Y635D01*
X112Y635D02*
X118Y635D01*
X139Y635D02*
X144Y635D01*
X163Y635D02*
X168Y635D01*
X183Y635D02*
X188Y635D01*
X195Y635D02*
X200Y635D01*
X207Y635D02*
X212Y635D01*
X315Y635D02*
X321Y635D01*
X326Y635D02*
X332Y635D01*
X353Y635D02*
X363Y635D01*
X377Y635D02*
X382Y635D01*
X1251Y635D02*
X1258Y635D01*
X0Y634D02*
X7Y634D01*
X101Y634D02*
X107Y634D01*
X112Y634D02*
X118Y634D01*
X139Y634D02*
X144Y634D01*
X163Y634D02*
X168Y634D01*
X183Y634D02*
X188Y634D01*
X195Y634D02*
X200Y634D01*
X207Y634D02*
X212Y634D01*
X315Y634D02*
X321Y634D01*
X326Y634D02*
X332Y634D01*
X353Y634D02*
X364Y634D01*
X377Y634D02*
X382Y634D01*
X1251Y634D02*
X1258Y634D01*
X0Y633D02*
X7Y633D01*
X101Y633D02*
X106Y633D01*
X113Y633D02*
X119Y633D01*
X139Y633D02*
X144Y633D01*
X163Y633D02*
X168Y633D01*
X183Y633D02*
X187Y633D01*
X195Y633D02*
X200Y633D01*
X207Y633D02*
X211Y633D01*
X314Y633D02*
X320Y633D01*
X327Y633D02*
X333Y633D01*
X353Y633D02*
X364Y633D01*
X377Y633D02*
X382Y633D01*
X1251Y633D02*
X1258Y633D01*
X0Y632D02*
X7Y632D01*
X100Y632D02*
X106Y632D01*
X113Y632D02*
X119Y632D01*
X139Y632D02*
X144Y632D01*
X163Y632D02*
X168Y632D01*
X183Y632D02*
X187Y632D01*
X195Y632D02*
X200Y632D01*
X207Y632D02*
X211Y632D01*
X314Y632D02*
X320Y632D01*
X328Y632D02*
X333Y632D01*
X353Y632D02*
X365Y632D01*
X377Y632D02*
X382Y632D01*
X1251Y632D02*
X1258Y632D01*
X0Y631D02*
X7Y631D01*
X100Y631D02*
X105Y631D01*
X114Y631D02*
X120Y631D01*
X139Y631D02*
X144Y631D01*
X163Y631D02*
X168Y631D01*
X195Y631D02*
X200Y631D01*
X313Y631D02*
X319Y631D01*
X328Y631D02*
X334Y631D01*
X353Y631D02*
X365Y631D01*
X377Y631D02*
X382Y631D01*
X1251Y631D02*
X1258Y631D01*
X0Y630D02*
X7Y630D01*
X99Y630D02*
X105Y630D01*
X114Y630D02*
X120Y630D01*
X139Y630D02*
X144Y630D01*
X163Y630D02*
X168Y630D01*
X195Y630D02*
X200Y630D01*
X313Y630D02*
X319Y630D01*
X329Y630D02*
X334Y630D01*
X353Y630D02*
X358Y630D01*
X360Y630D02*
X365Y630D01*
X377Y630D02*
X382Y630D01*
X1251Y630D02*
X1258Y630D01*
X0Y629D02*
X7Y629D01*
X99Y629D02*
X104Y629D01*
X115Y629D02*
X121Y629D01*
X139Y629D02*
X144Y629D01*
X163Y629D02*
X168Y629D01*
X195Y629D02*
X200Y629D01*
X312Y629D02*
X318Y629D01*
X329Y629D02*
X335Y629D01*
X353Y629D02*
X358Y629D01*
X360Y629D02*
X366Y629D01*
X377Y629D02*
X382Y629D01*
X1251Y629D02*
X1258Y629D01*
X0Y628D02*
X7Y628D01*
X98Y628D02*
X104Y628D01*
X115Y628D02*
X121Y628D01*
X139Y628D02*
X144Y628D01*
X163Y628D02*
X168Y628D01*
X195Y628D02*
X200Y628D01*
X312Y628D02*
X318Y628D01*
X330Y628D02*
X335Y628D01*
X353Y628D02*
X358Y628D01*
X361Y628D02*
X366Y628D01*
X377Y628D02*
X382Y628D01*
X1251Y628D02*
X1258Y628D01*
X0Y627D02*
X7Y627D01*
X98Y627D02*
X103Y627D01*
X116Y627D02*
X122Y627D01*
X139Y627D02*
X144Y627D01*
X163Y627D02*
X168Y627D01*
X195Y627D02*
X200Y627D01*
X311Y627D02*
X317Y627D01*
X330Y627D02*
X336Y627D01*
X353Y627D02*
X358Y627D01*
X361Y627D02*
X367Y627D01*
X377Y627D02*
X382Y627D01*
X1251Y627D02*
X1258Y627D01*
X0Y626D02*
X7Y626D01*
X97Y626D02*
X103Y626D01*
X116Y626D02*
X122Y626D01*
X139Y626D02*
X144Y626D01*
X163Y626D02*
X168Y626D01*
X195Y626D02*
X200Y626D01*
X311Y626D02*
X317Y626D01*
X331Y626D02*
X336Y626D01*
X353Y626D02*
X358Y626D01*
X362Y626D02*
X367Y626D01*
X377Y626D02*
X382Y626D01*
X1251Y626D02*
X1258Y626D01*
X0Y625D02*
X7Y625D01*
X97Y625D02*
X102Y625D01*
X117Y625D02*
X123Y625D01*
X139Y625D02*
X144Y625D01*
X163Y625D02*
X168Y625D01*
X195Y625D02*
X200Y625D01*
X310Y625D02*
X316Y625D01*
X331Y625D02*
X337Y625D01*
X353Y625D02*
X358Y625D01*
X362Y625D02*
X368Y625D01*
X377Y625D02*
X382Y625D01*
X1251Y625D02*
X1258Y625D01*
X0Y624D02*
X7Y624D01*
X96Y624D02*
X102Y624D01*
X117Y624D02*
X123Y624D01*
X139Y624D02*
X144Y624D01*
X163Y624D02*
X168Y624D01*
X195Y624D02*
X200Y624D01*
X310Y624D02*
X316Y624D01*
X332Y624D02*
X337Y624D01*
X353Y624D02*
X358Y624D01*
X362Y624D02*
X368Y624D01*
X377Y624D02*
X382Y624D01*
X1251Y624D02*
X1258Y624D01*
X0Y623D02*
X7Y623D01*
X96Y623D02*
X101Y623D01*
X118Y623D02*
X123Y623D01*
X139Y623D02*
X144Y623D01*
X163Y623D02*
X168Y623D01*
X195Y623D02*
X200Y623D01*
X310Y623D02*
X315Y623D01*
X332Y623D02*
X338Y623D01*
X353Y623D02*
X358Y623D01*
X363Y623D02*
X369Y623D01*
X377Y623D02*
X382Y623D01*
X1251Y623D02*
X1258Y623D01*
X0Y622D02*
X7Y622D01*
X95Y622D02*
X101Y622D01*
X118Y622D02*
X124Y622D01*
X139Y622D02*
X144Y622D01*
X163Y622D02*
X168Y622D01*
X195Y622D02*
X200Y622D01*
X309Y622D02*
X315Y622D01*
X332Y622D02*
X338Y622D01*
X353Y622D02*
X358Y622D01*
X363Y622D02*
X369Y622D01*
X377Y622D02*
X382Y622D01*
X1251Y622D02*
X1258Y622D01*
X0Y621D02*
X7Y621D01*
X95Y621D02*
X101Y621D01*
X119Y621D02*
X124Y621D01*
X139Y621D02*
X144Y621D01*
X163Y621D02*
X168Y621D01*
X195Y621D02*
X200Y621D01*
X309Y621D02*
X314Y621D01*
X333Y621D02*
X338Y621D01*
X353Y621D02*
X358Y621D01*
X364Y621D02*
X369Y621D01*
X377Y621D02*
X382Y621D01*
X1251Y621D02*
X1258Y621D01*
X0Y620D02*
X7Y620D01*
X95Y620D02*
X100Y620D01*
X119Y620D02*
X124Y620D01*
X139Y620D02*
X144Y620D01*
X163Y620D02*
X168Y620D01*
X195Y620D02*
X200Y620D01*
X309Y620D02*
X314Y620D01*
X333Y620D02*
X338Y620D01*
X353Y620D02*
X358Y620D01*
X364Y620D02*
X370Y620D01*
X377Y620D02*
X382Y620D01*
X1251Y620D02*
X1258Y620D01*
X0Y619D02*
X7Y619D01*
X95Y619D02*
X100Y619D01*
X119Y619D02*
X124Y619D01*
X139Y619D02*
X144Y619D01*
X163Y619D02*
X168Y619D01*
X195Y619D02*
X200Y619D01*
X309Y619D02*
X314Y619D01*
X333Y619D02*
X338Y619D01*
X353Y619D02*
X358Y619D01*
X365Y619D02*
X370Y619D01*
X377Y619D02*
X382Y619D01*
X1251Y619D02*
X1258Y619D01*
X0Y618D02*
X7Y618D01*
X95Y618D02*
X100Y618D01*
X119Y618D02*
X124Y618D01*
X139Y618D02*
X144Y618D01*
X163Y618D02*
X168Y618D01*
X195Y618D02*
X200Y618D01*
X309Y618D02*
X314Y618D01*
X333Y618D02*
X338Y618D01*
X353Y618D02*
X358Y618D01*
X365Y618D02*
X371Y618D01*
X377Y618D02*
X382Y618D01*
X1251Y618D02*
X1258Y618D01*
X0Y617D02*
X7Y617D01*
X95Y617D02*
X100Y617D01*
X119Y617D02*
X124Y617D01*
X139Y617D02*
X144Y617D01*
X163Y617D02*
X168Y617D01*
X195Y617D02*
X200Y617D01*
X309Y617D02*
X314Y617D01*
X333Y617D02*
X338Y617D01*
X353Y617D02*
X358Y617D01*
X365Y617D02*
X371Y617D01*
X377Y617D02*
X382Y617D01*
X1251Y617D02*
X1258Y617D01*
X0Y616D02*
X7Y616D01*
X95Y616D02*
X101Y616D01*
X118Y616D02*
X124Y616D01*
X139Y616D02*
X144Y616D01*
X163Y616D02*
X168Y616D01*
X195Y616D02*
X200Y616D01*
X309Y616D02*
X315Y616D01*
X332Y616D02*
X338Y616D01*
X353Y616D02*
X358Y616D01*
X366Y616D02*
X372Y616D01*
X377Y616D02*
X382Y616D01*
X1251Y616D02*
X1258Y616D01*
X0Y615D02*
X7Y615D01*
X96Y615D02*
X101Y615D01*
X118Y615D02*
X124Y615D01*
X139Y615D02*
X144Y615D01*
X163Y615D02*
X168Y615D01*
X195Y615D02*
X200Y615D01*
X310Y615D02*
X315Y615D01*
X332Y615D02*
X337Y615D01*
X353Y615D02*
X358Y615D01*
X366Y615D02*
X372Y615D01*
X377Y615D02*
X382Y615D01*
X1251Y615D02*
X1258Y615D01*
X0Y614D02*
X7Y614D01*
X96Y614D02*
X102Y614D01*
X118Y614D02*
X123Y614D01*
X139Y614D02*
X144Y614D01*
X163Y614D02*
X168Y614D01*
X195Y614D02*
X200Y614D01*
X310Y614D02*
X316Y614D01*
X331Y614D02*
X337Y614D01*
X353Y614D02*
X358Y614D01*
X367Y614D02*
X372Y614D01*
X377Y614D02*
X382Y614D01*
X1251Y614D02*
X1258Y614D01*
X0Y613D02*
X7Y613D01*
X96Y613D02*
X102Y613D01*
X117Y613D02*
X123Y613D01*
X139Y613D02*
X144Y613D01*
X163Y613D02*
X168Y613D01*
X195Y613D02*
X200Y613D01*
X310Y613D02*
X316Y613D01*
X331Y613D02*
X337Y613D01*
X353Y613D02*
X358Y613D01*
X367Y613D02*
X373Y613D01*
X377Y613D02*
X382Y613D01*
X1251Y613D02*
X1258Y613D01*
X0Y612D02*
X7Y612D01*
X97Y612D02*
X103Y612D01*
X117Y612D02*
X122Y612D01*
X139Y612D02*
X144Y612D01*
X163Y612D02*
X168Y612D01*
X195Y612D02*
X200Y612D01*
X311Y612D02*
X317Y612D01*
X330Y612D02*
X336Y612D01*
X353Y612D02*
X358Y612D01*
X368Y612D02*
X373Y612D01*
X377Y612D02*
X382Y612D01*
X1251Y612D02*
X1258Y612D01*
X0Y611D02*
X7Y611D01*
X97Y611D02*
X103Y611D01*
X116Y611D02*
X122Y611D01*
X139Y611D02*
X144Y611D01*
X163Y611D02*
X168Y611D01*
X195Y611D02*
X200Y611D01*
X311Y611D02*
X317Y611D01*
X330Y611D02*
X336Y611D01*
X353Y611D02*
X358Y611D01*
X368Y611D02*
X374Y611D01*
X377Y611D02*
X382Y611D01*
X1251Y611D02*
X1258Y611D01*
X0Y610D02*
X7Y610D01*
X98Y610D02*
X104Y610D01*
X116Y610D02*
X121Y610D01*
X139Y610D02*
X144Y610D01*
X163Y610D02*
X168Y610D01*
X195Y610D02*
X200Y610D01*
X312Y610D02*
X318Y610D01*
X329Y610D02*
X335Y610D01*
X353Y610D02*
X358Y610D01*
X369Y610D02*
X374Y610D01*
X377Y610D02*
X382Y610D01*
X1251Y610D02*
X1258Y610D01*
X0Y609D02*
X7Y609D01*
X98Y609D02*
X104Y609D01*
X115Y609D02*
X121Y609D01*
X139Y609D02*
X144Y609D01*
X163Y609D02*
X168Y609D01*
X195Y609D02*
X200Y609D01*
X312Y609D02*
X318Y609D01*
X329Y609D02*
X335Y609D01*
X353Y609D02*
X358Y609D01*
X369Y609D02*
X375Y609D01*
X377Y609D02*
X382Y609D01*
X1251Y609D02*
X1258Y609D01*
X0Y608D02*
X7Y608D01*
X99Y608D02*
X105Y608D01*
X115Y608D02*
X120Y608D01*
X139Y608D02*
X144Y608D01*
X163Y608D02*
X168Y608D01*
X195Y608D02*
X200Y608D01*
X313Y608D02*
X319Y608D01*
X328Y608D02*
X334Y608D01*
X353Y608D02*
X358Y608D01*
X369Y608D02*
X375Y608D01*
X377Y608D02*
X382Y608D01*
X1251Y608D02*
X1258Y608D01*
X0Y607D02*
X7Y607D01*
X99Y607D02*
X105Y607D01*
X114Y607D02*
X120Y607D01*
X139Y607D02*
X144Y607D01*
X163Y607D02*
X168Y607D01*
X195Y607D02*
X200Y607D01*
X313Y607D02*
X319Y607D01*
X328Y607D02*
X334Y607D01*
X353Y607D02*
X358Y607D01*
X370Y607D02*
X382Y607D01*
X1251Y607D02*
X1258Y607D01*
X0Y606D02*
X7Y606D01*
X100Y606D02*
X106Y606D01*
X114Y606D02*
X119Y606D01*
X139Y606D02*
X144Y606D01*
X163Y606D02*
X168Y606D01*
X195Y606D02*
X200Y606D01*
X314Y606D02*
X320Y606D01*
X327Y606D02*
X333Y606D01*
X353Y606D02*
X358Y606D01*
X370Y606D02*
X382Y606D01*
X1251Y606D02*
X1258Y606D01*
X0Y605D02*
X7Y605D01*
X100Y605D02*
X106Y605D01*
X113Y605D02*
X119Y605D01*
X139Y605D02*
X144Y605D01*
X163Y605D02*
X168Y605D01*
X195Y605D02*
X200Y605D01*
X314Y605D02*
X320Y605D01*
X327Y605D02*
X333Y605D01*
X353Y605D02*
X358Y605D01*
X371Y605D02*
X382Y605D01*
X1251Y605D02*
X1258Y605D01*
X0Y604D02*
X7Y604D01*
X101Y604D02*
X107Y604D01*
X113Y604D02*
X118Y604D01*
X139Y604D02*
X144Y604D01*
X163Y604D02*
X168Y604D01*
X195Y604D02*
X200Y604D01*
X315Y604D02*
X321Y604D01*
X326Y604D02*
X332Y604D01*
X353Y604D02*
X358Y604D01*
X371Y604D02*
X382Y604D01*
X1251Y604D02*
X1258Y604D01*
X0Y603D02*
X7Y603D01*
X101Y603D02*
X107Y603D01*
X112Y603D02*
X118Y603D01*
X139Y603D02*
X144Y603D01*
X162Y603D02*
X168Y603D01*
X195Y603D02*
X200Y603D01*
X315Y603D02*
X321Y603D01*
X326Y603D02*
X332Y603D01*
X353Y603D02*
X358Y603D01*
X372Y603D02*
X382Y603D01*
X1251Y603D02*
X1258Y603D01*
X0Y602D02*
X7Y602D01*
X102Y602D02*
X108Y602D01*
X112Y602D02*
X117Y602D01*
X139Y602D02*
X145Y602D01*
X162Y602D02*
X168Y602D01*
X195Y602D02*
X200Y602D01*
X316Y602D02*
X322Y602D01*
X325Y602D02*
X331Y602D01*
X353Y602D02*
X358Y602D01*
X372Y602D02*
X382Y602D01*
X1251Y602D02*
X1258Y602D01*
X0Y601D02*
X7Y601D01*
X102Y601D02*
X117Y601D01*
X139Y601D02*
X167Y601D01*
X195Y601D02*
X200Y601D01*
X316Y601D02*
X331Y601D01*
X353Y601D02*
X358Y601D01*
X372Y601D02*
X382Y601D01*
X1251Y601D02*
X1258Y601D01*
X0Y600D02*
X7Y600D01*
X103Y600D02*
X116Y600D01*
X140Y600D02*
X167Y600D01*
X195Y600D02*
X200Y600D01*
X317Y600D02*
X330Y600D01*
X353Y600D02*
X358Y600D01*
X373Y600D02*
X382Y600D01*
X1251Y600D02*
X1258Y600D01*
X0Y599D02*
X7Y599D01*
X103Y599D02*
X116Y599D01*
X140Y599D02*
X166Y599D01*
X195Y599D02*
X200Y599D01*
X318Y599D02*
X330Y599D01*
X353Y599D02*
X358Y599D01*
X373Y599D02*
X382Y599D01*
X1251Y599D02*
X1258Y599D01*
X0Y598D02*
X7Y598D01*
X104Y598D02*
X115Y598D01*
X141Y598D02*
X165Y598D01*
X195Y598D02*
X200Y598D01*
X318Y598D02*
X329Y598D01*
X353Y598D02*
X358Y598D01*
X374Y598D02*
X382Y598D01*
X1251Y598D02*
X1258Y598D01*
X0Y597D02*
X7Y597D01*
X105Y597D02*
X114Y597D01*
X142Y597D02*
X164Y597D01*
X195Y597D02*
X199Y597D01*
X320Y597D02*
X328Y597D01*
X353Y597D02*
X357Y597D01*
X374Y597D02*
X382Y597D01*
X1251Y597D02*
X1258Y597D01*
X0Y596D02*
X7Y596D01*
X107Y596D02*
X113Y596D01*
X144Y596D02*
X163Y596D01*
X196Y596D02*
X199Y596D01*
X322Y596D02*
X326Y596D01*
X354Y596D02*
X356Y596D01*
X375Y596D02*
X382Y596D01*
X1251Y596D02*
X1258Y596D01*
X0Y595D02*
X7Y595D01*
X1251Y595D02*
X1258Y595D01*
X0Y594D02*
X7Y594D01*
X1251Y594D02*
X1258Y594D01*
X0Y593D02*
X7Y593D01*
X1251Y593D02*
X1258Y593D01*
X0Y592D02*
X7Y592D01*
X1251Y592D02*
X1258Y592D01*
X0Y591D02*
X7Y591D01*
X1251Y591D02*
X1258Y591D01*
X0Y590D02*
X7Y590D01*
X614Y590D02*
X665Y590D01*
X1251Y590D02*
X1258Y590D01*
X0Y589D02*
X7Y589D01*
X614Y589D02*
X666Y589D01*
X1251Y589D02*
X1258Y589D01*
X0Y588D02*
X7Y588D01*
X614Y588D02*
X667Y588D01*
X1251Y588D02*
X1258Y588D01*
X0Y587D02*
X7Y587D01*
X614Y587D02*
X667Y587D01*
X1251Y587D02*
X1258Y587D01*
X0Y586D02*
X7Y586D01*
X614Y586D02*
X666Y586D01*
X1251Y586D02*
X1258Y586D01*
X0Y585D02*
X7Y585D01*
X614Y585D02*
X666Y585D01*
X1251Y585D02*
X1258Y585D01*
X0Y584D02*
X7Y584D01*
X614Y584D02*
X664Y584D01*
X1251Y584D02*
X1258Y584D01*
X0Y583D02*
X7Y583D01*
X614Y583D02*
X620Y583D01*
X1251Y583D02*
X1258Y583D01*
X0Y582D02*
X7Y582D01*
X330Y582D02*
X330Y582D01*
X614Y582D02*
X620Y582D01*
X1251Y582D02*
X1258Y582D01*
X0Y581D02*
X7Y581D01*
X329Y581D02*
X331Y581D01*
X614Y581D02*
X620Y581D01*
X1251Y581D02*
X1258Y581D01*
X0Y580D02*
X7Y580D01*
X328Y580D02*
X332Y580D01*
X614Y580D02*
X620Y580D01*
X1251Y580D02*
X1258Y580D01*
X0Y579D02*
X7Y579D01*
X327Y579D02*
X333Y579D01*
X614Y579D02*
X620Y579D01*
X1251Y579D02*
X1258Y579D01*
X0Y578D02*
X7Y578D01*
X326Y578D02*
X332Y578D01*
X614Y578D02*
X620Y578D01*
X1251Y578D02*
X1258Y578D01*
X0Y577D02*
X7Y577D01*
X325Y577D02*
X331Y577D01*
X614Y577D02*
X620Y577D01*
X1251Y577D02*
X1258Y577D01*
X0Y576D02*
X7Y576D01*
X324Y576D02*
X330Y576D01*
X614Y576D02*
X620Y576D01*
X1251Y576D02*
X1258Y576D01*
X0Y575D02*
X7Y575D01*
X323Y575D02*
X329Y575D01*
X614Y575D02*
X620Y575D01*
X1251Y575D02*
X1258Y575D01*
X0Y574D02*
X7Y574D01*
X614Y574D02*
X620Y574D01*
X1251Y574D02*
X1258Y574D01*
X0Y573D02*
X7Y573D01*
X614Y573D02*
X620Y573D01*
X1251Y573D02*
X1258Y573D01*
X0Y572D02*
X7Y572D01*
X614Y572D02*
X620Y572D01*
X1251Y572D02*
X1258Y572D01*
X0Y571D02*
X7Y571D01*
X614Y571D02*
X620Y571D01*
X1251Y571D02*
X1258Y571D01*
X0Y570D02*
X7Y570D01*
X614Y570D02*
X620Y570D01*
X1251Y570D02*
X1258Y570D01*
X0Y569D02*
X7Y569D01*
X614Y569D02*
X620Y569D01*
X1251Y569D02*
X1258Y569D01*
X0Y568D02*
X7Y568D01*
X614Y568D02*
X620Y568D01*
X1251Y568D02*
X1258Y568D01*
X0Y567D02*
X7Y567D01*
X614Y567D02*
X620Y567D01*
X1251Y567D02*
X1258Y567D01*
X0Y566D02*
X7Y566D01*
X614Y566D02*
X620Y566D01*
X1251Y566D02*
X1258Y566D01*
X0Y565D02*
X7Y565D01*
X614Y565D02*
X620Y565D01*
X1251Y565D02*
X1258Y565D01*
X0Y564D02*
X7Y564D01*
X614Y564D02*
X620Y564D01*
X1251Y564D02*
X1258Y564D01*
X0Y563D02*
X7Y563D01*
X614Y563D02*
X620Y563D01*
X1251Y563D02*
X1258Y563D01*
X0Y562D02*
X7Y562D01*
X614Y562D02*
X620Y562D01*
X1251Y562D02*
X1258Y562D01*
X0Y561D02*
X7Y561D01*
X614Y561D02*
X620Y561D01*
X1251Y561D02*
X1258Y561D01*
X0Y560D02*
X7Y560D01*
X614Y560D02*
X620Y560D01*
X1251Y560D02*
X1258Y560D01*
X0Y559D02*
X7Y559D01*
X614Y559D02*
X620Y559D01*
X1251Y559D02*
X1258Y559D01*
X0Y558D02*
X7Y558D01*
X614Y558D02*
X619Y558D01*
X1251Y558D02*
X1258Y558D01*
X0Y557D02*
X7Y557D01*
X615Y557D02*
X618Y557D01*
X1251Y557D02*
X1258Y557D01*
X0Y556D02*
X7Y556D01*
X1251Y556D02*
X1258Y556D01*
X0Y555D02*
X7Y555D01*
X1251Y555D02*
X1258Y555D01*
X0Y554D02*
X7Y554D01*
X302Y554D02*
X302Y554D01*
X1251Y554D02*
X1258Y554D01*
X0Y553D02*
X7Y553D01*
X301Y553D02*
X302Y553D01*
X1251Y553D02*
X1258Y553D01*
X0Y552D02*
X7Y552D01*
X300Y552D02*
X302Y552D01*
X1251Y552D02*
X1258Y552D01*
X0Y551D02*
X7Y551D01*
X299Y551D02*
X302Y551D01*
X1251Y551D02*
X1258Y551D01*
X0Y550D02*
X7Y550D01*
X298Y550D02*
X302Y550D01*
X1251Y550D02*
X1258Y550D01*
X0Y549D02*
X7Y549D01*
X297Y549D02*
X302Y549D01*
X1251Y549D02*
X1258Y549D01*
X0Y548D02*
X7Y548D01*
X296Y548D02*
X302Y548D01*
X1251Y548D02*
X1258Y548D01*
X0Y547D02*
X7Y547D01*
X296Y547D02*
X301Y547D01*
X1251Y547D02*
X1258Y547D01*
X0Y546D02*
X7Y546D01*
X297Y546D02*
X300Y546D01*
X1251Y546D02*
X1258Y546D01*
X0Y545D02*
X7Y545D01*
X298Y545D02*
X299Y545D01*
X1251Y545D02*
X1258Y545D01*
X0Y544D02*
X7Y544D01*
X1251Y544D02*
X1258Y544D01*
X0Y543D02*
X7Y543D01*
X1251Y543D02*
X1258Y543D01*
X0Y542D02*
X7Y542D01*
X1251Y542D02*
X1258Y542D01*
X0Y541D02*
X7Y541D01*
X1251Y541D02*
X1258Y541D01*
X0Y540D02*
X7Y540D01*
X615Y540D02*
X667Y540D01*
X1251Y540D02*
X1258Y540D01*
X0Y539D02*
X7Y539D01*
X614Y539D02*
X667Y539D01*
X1251Y539D02*
X1258Y539D01*
X0Y538D02*
X7Y538D01*
X614Y538D02*
X667Y538D01*
X1251Y538D02*
X1258Y538D01*
X0Y537D02*
X7Y537D01*
X614Y537D02*
X667Y537D01*
X1251Y537D02*
X1258Y537D01*
X0Y536D02*
X7Y536D01*
X614Y536D02*
X667Y536D01*
X1251Y536D02*
X1258Y536D01*
X0Y535D02*
X7Y535D01*
X614Y535D02*
X667Y535D01*
X1251Y535D02*
X1258Y535D01*
X0Y534D02*
X7Y534D01*
X616Y534D02*
X667Y534D01*
X1251Y534D02*
X1258Y534D01*
X0Y533D02*
X7Y533D01*
X657Y533D02*
X667Y533D01*
X1251Y533D02*
X1258Y533D01*
X0Y532D02*
X7Y532D01*
X656Y532D02*
X667Y532D01*
X1251Y532D02*
X1258Y532D01*
X0Y531D02*
X7Y531D01*
X654Y531D02*
X665Y531D01*
X1251Y531D02*
X1258Y531D01*
X0Y530D02*
X7Y530D01*
X653Y530D02*
X664Y530D01*
X1251Y530D02*
X1258Y530D01*
X0Y529D02*
X7Y529D01*
X651Y529D02*
X663Y529D01*
X1251Y529D02*
X1258Y529D01*
X0Y528D02*
X7Y528D01*
X650Y528D02*
X661Y528D01*
X1251Y528D02*
X1258Y528D01*
X0Y527D02*
X7Y527D01*
X648Y527D02*
X660Y527D01*
X1251Y527D02*
X1258Y527D01*
X0Y526D02*
X7Y526D01*
X644Y526D02*
X658Y526D01*
X1251Y526D02*
X1258Y526D01*
X0Y525D02*
X7Y525D01*
X644Y525D02*
X657Y525D01*
X1251Y525D02*
X1258Y525D01*
X0Y524D02*
X7Y524D01*
X643Y524D02*
X656Y524D01*
X1251Y524D02*
X1258Y524D01*
X0Y523D02*
X7Y523D01*
X643Y523D02*
X655Y523D01*
X924Y523D02*
X933Y523D01*
X1251Y523D02*
X1258Y523D01*
X0Y522D02*
X7Y522D01*
X643Y522D02*
X657Y522D01*
X924Y522D02*
X933Y522D01*
X1251Y522D02*
X1258Y522D01*
X0Y521D02*
X7Y521D01*
X644Y521D02*
X658Y521D01*
X924Y521D02*
X933Y521D01*
X1251Y521D02*
X1258Y521D01*
X0Y520D02*
X7Y520D01*
X646Y520D02*
X659Y520D01*
X924Y520D02*
X933Y520D01*
X1251Y520D02*
X1258Y520D01*
X0Y519D02*
X7Y519D01*
X650Y519D02*
X661Y519D01*
X924Y519D02*
X933Y519D01*
X1251Y519D02*
X1258Y519D01*
X0Y518D02*
X7Y518D01*
X651Y518D02*
X662Y518D01*
X924Y518D02*
X933Y518D01*
X1251Y518D02*
X1258Y518D01*
X0Y517D02*
X7Y517D01*
X653Y517D02*
X664Y517D01*
X924Y517D02*
X933Y517D01*
X1251Y517D02*
X1258Y517D01*
X0Y516D02*
X7Y516D01*
X654Y516D02*
X665Y516D01*
X924Y516D02*
X933Y516D01*
X1251Y516D02*
X1258Y516D01*
X0Y515D02*
X7Y515D01*
X655Y515D02*
X667Y515D01*
X924Y515D02*
X933Y515D01*
X1251Y515D02*
X1258Y515D01*
X0Y514D02*
X7Y514D01*
X657Y514D02*
X667Y514D01*
X924Y514D02*
X933Y514D01*
X1251Y514D02*
X1258Y514D01*
X0Y513D02*
X7Y513D01*
X617Y513D02*
X667Y513D01*
X924Y513D02*
X933Y513D01*
X1251Y513D02*
X1258Y513D01*
X0Y512D02*
X7Y512D01*
X615Y512D02*
X667Y512D01*
X924Y512D02*
X933Y512D01*
X1251Y512D02*
X1258Y512D01*
X0Y511D02*
X7Y511D01*
X614Y511D02*
X667Y511D01*
X924Y511D02*
X933Y511D01*
X1251Y511D02*
X1258Y511D01*
X0Y510D02*
X7Y510D01*
X614Y510D02*
X667Y510D01*
X924Y510D02*
X933Y510D01*
X1251Y510D02*
X1258Y510D01*
X0Y509D02*
X7Y509D01*
X614Y509D02*
X667Y509D01*
X924Y509D02*
X933Y509D01*
X1251Y509D02*
X1258Y509D01*
X0Y508D02*
X7Y508D01*
X614Y508D02*
X667Y508D01*
X924Y508D02*
X933Y508D01*
X1251Y508D02*
X1258Y508D01*
X0Y507D02*
X7Y507D01*
X615Y507D02*
X667Y507D01*
X924Y507D02*
X933Y507D01*
X1251Y507D02*
X1258Y507D01*
X0Y506D02*
X7Y506D01*
X924Y506D02*
X933Y506D01*
X1251Y506D02*
X1258Y506D01*
X0Y505D02*
X7Y505D01*
X924Y505D02*
X933Y505D01*
X1251Y505D02*
X1258Y505D01*
X0Y504D02*
X7Y504D01*
X924Y504D02*
X933Y504D01*
X1251Y504D02*
X1258Y504D01*
X0Y503D02*
X7Y503D01*
X924Y503D02*
X933Y503D01*
X1251Y503D02*
X1258Y503D01*
X0Y502D02*
X7Y502D01*
X924Y502D02*
X933Y502D01*
X1251Y502D02*
X1258Y502D01*
X0Y501D02*
X7Y501D01*
X924Y501D02*
X933Y501D01*
X1251Y501D02*
X1258Y501D01*
X0Y500D02*
X7Y500D01*
X924Y500D02*
X933Y500D01*
X1251Y500D02*
X1258Y500D01*
X0Y499D02*
X7Y499D01*
X924Y499D02*
X933Y499D01*
X1251Y499D02*
X1258Y499D01*
X0Y498D02*
X7Y498D01*
X924Y498D02*
X933Y498D01*
X1251Y498D02*
X1258Y498D01*
X0Y497D02*
X7Y497D01*
X924Y497D02*
X933Y497D01*
X1251Y497D02*
X1258Y497D01*
X0Y496D02*
X7Y496D01*
X924Y496D02*
X933Y496D01*
X1251Y496D02*
X1258Y496D01*
X0Y495D02*
X7Y495D01*
X924Y495D02*
X933Y495D01*
X1251Y495D02*
X1258Y495D01*
X0Y494D02*
X7Y494D01*
X924Y494D02*
X933Y494D01*
X1251Y494D02*
X1258Y494D01*
X0Y493D02*
X7Y493D01*
X924Y493D02*
X933Y493D01*
X1251Y493D02*
X1258Y493D01*
X0Y492D02*
X7Y492D01*
X924Y492D02*
X933Y492D01*
X1251Y492D02*
X1258Y492D01*
X0Y491D02*
X7Y491D01*
X924Y491D02*
X933Y491D01*
X1251Y491D02*
X1258Y491D01*
X0Y490D02*
X7Y490D01*
X616Y490D02*
X618Y490D01*
X663Y490D02*
X665Y490D01*
X924Y490D02*
X933Y490D01*
X1251Y490D02*
X1258Y490D01*
X0Y489D02*
X7Y489D01*
X614Y489D02*
X619Y489D01*
X661Y489D02*
X666Y489D01*
X924Y489D02*
X933Y489D01*
X1251Y489D02*
X1258Y489D01*
X0Y488D02*
X7Y488D01*
X614Y488D02*
X619Y488D01*
X661Y488D02*
X667Y488D01*
X924Y488D02*
X933Y488D01*
X1251Y488D02*
X1258Y488D01*
X0Y487D02*
X7Y487D01*
X614Y487D02*
X620Y487D01*
X661Y487D02*
X667Y487D01*
X924Y487D02*
X933Y487D01*
X1251Y487D02*
X1258Y487D01*
X0Y486D02*
X7Y486D01*
X614Y486D02*
X620Y486D01*
X661Y486D02*
X667Y486D01*
X924Y486D02*
X933Y486D01*
X1251Y486D02*
X1258Y486D01*
X0Y485D02*
X7Y485D01*
X614Y485D02*
X620Y485D01*
X661Y485D02*
X667Y485D01*
X924Y485D02*
X933Y485D01*
X1251Y485D02*
X1258Y485D01*
X0Y484D02*
X7Y484D01*
X614Y484D02*
X620Y484D01*
X661Y484D02*
X667Y484D01*
X924Y484D02*
X933Y484D01*
X1251Y484D02*
X1258Y484D01*
X0Y483D02*
X7Y483D01*
X614Y483D02*
X620Y483D01*
X661Y483D02*
X667Y483D01*
X924Y483D02*
X933Y483D01*
X1251Y483D02*
X1258Y483D01*
X0Y482D02*
X7Y482D01*
X614Y482D02*
X620Y482D01*
X661Y482D02*
X667Y482D01*
X924Y482D02*
X933Y482D01*
X1251Y482D02*
X1258Y482D01*
X0Y481D02*
X7Y481D01*
X614Y481D02*
X620Y481D01*
X661Y481D02*
X667Y481D01*
X924Y481D02*
X933Y481D01*
X1251Y481D02*
X1258Y481D01*
X0Y480D02*
X7Y480D01*
X614Y480D02*
X620Y480D01*
X661Y480D02*
X667Y480D01*
X924Y480D02*
X933Y480D01*
X1251Y480D02*
X1258Y480D01*
X0Y479D02*
X7Y479D01*
X614Y479D02*
X620Y479D01*
X661Y479D02*
X667Y479D01*
X924Y479D02*
X933Y479D01*
X1251Y479D02*
X1258Y479D01*
X0Y478D02*
X7Y478D01*
X614Y478D02*
X620Y478D01*
X661Y478D02*
X667Y478D01*
X924Y478D02*
X933Y478D01*
X1251Y478D02*
X1258Y478D01*
X0Y477D02*
X7Y477D01*
X614Y477D02*
X620Y477D01*
X661Y477D02*
X667Y477D01*
X924Y477D02*
X933Y477D01*
X1251Y477D02*
X1258Y477D01*
X0Y476D02*
X7Y476D01*
X614Y476D02*
X667Y476D01*
X924Y476D02*
X933Y476D01*
X1251Y476D02*
X1258Y476D01*
X0Y475D02*
X7Y475D01*
X614Y475D02*
X667Y475D01*
X924Y475D02*
X933Y475D01*
X1251Y475D02*
X1258Y475D01*
X0Y474D02*
X7Y474D01*
X614Y474D02*
X667Y474D01*
X924Y474D02*
X933Y474D01*
X1251Y474D02*
X1258Y474D01*
X0Y473D02*
X7Y473D01*
X614Y473D02*
X667Y473D01*
X924Y473D02*
X933Y473D01*
X1251Y473D02*
X1258Y473D01*
X0Y472D02*
X7Y472D01*
X614Y472D02*
X667Y472D01*
X924Y472D02*
X933Y472D01*
X1251Y472D02*
X1258Y472D01*
X0Y471D02*
X7Y471D01*
X614Y471D02*
X667Y471D01*
X924Y471D02*
X933Y471D01*
X1251Y471D02*
X1258Y471D01*
X0Y470D02*
X7Y470D01*
X614Y470D02*
X667Y470D01*
X924Y470D02*
X933Y470D01*
X1251Y470D02*
X1258Y470D01*
X0Y469D02*
X7Y469D01*
X614Y469D02*
X620Y469D01*
X924Y469D02*
X933Y469D01*
X1251Y469D02*
X1258Y469D01*
X0Y468D02*
X7Y468D01*
X614Y468D02*
X620Y468D01*
X924Y468D02*
X933Y468D01*
X1251Y468D02*
X1258Y468D01*
X0Y467D02*
X7Y467D01*
X614Y467D02*
X620Y467D01*
X924Y467D02*
X933Y467D01*
X1251Y467D02*
X1258Y467D01*
X0Y466D02*
X7Y466D01*
X614Y466D02*
X620Y466D01*
X924Y466D02*
X933Y466D01*
X1251Y466D02*
X1258Y466D01*
X0Y465D02*
X7Y465D01*
X614Y465D02*
X620Y465D01*
X924Y465D02*
X933Y465D01*
X1251Y465D02*
X1258Y465D01*
X0Y464D02*
X7Y464D01*
X614Y464D02*
X620Y464D01*
X924Y464D02*
X933Y464D01*
X1251Y464D02*
X1258Y464D01*
X0Y463D02*
X7Y463D01*
X614Y463D02*
X620Y463D01*
X924Y463D02*
X933Y463D01*
X1251Y463D02*
X1258Y463D01*
X0Y462D02*
X7Y462D01*
X614Y462D02*
X636Y462D01*
X924Y462D02*
X933Y462D01*
X1251Y462D02*
X1258Y462D01*
X0Y461D02*
X7Y461D01*
X614Y461D02*
X637Y461D01*
X924Y461D02*
X933Y461D01*
X1251Y461D02*
X1258Y461D01*
X0Y460D02*
X7Y460D01*
X614Y460D02*
X637Y460D01*
X924Y460D02*
X933Y460D01*
X1251Y460D02*
X1258Y460D01*
X0Y459D02*
X7Y459D01*
X614Y459D02*
X637Y459D01*
X924Y459D02*
X933Y459D01*
X1251Y459D02*
X1258Y459D01*
X0Y458D02*
X7Y458D01*
X614Y458D02*
X637Y458D01*
X924Y458D02*
X933Y458D01*
X1251Y458D02*
X1258Y458D01*
X0Y457D02*
X7Y457D01*
X615Y457D02*
X636Y457D01*
X924Y457D02*
X933Y457D01*
X1251Y457D02*
X1258Y457D01*
X0Y456D02*
X7Y456D01*
X617Y456D02*
X634Y456D01*
X1251Y456D02*
X1258Y456D01*
X0Y455D02*
X7Y455D01*
X1251Y455D02*
X1258Y455D01*
X0Y454D02*
X7Y454D01*
X1251Y454D02*
X1258Y454D01*
X0Y453D02*
X7Y453D01*
X1251Y453D02*
X1258Y453D01*
X0Y452D02*
X7Y452D01*
X1251Y452D02*
X1258Y452D01*
X0Y451D02*
X7Y451D01*
X1251Y451D02*
X1258Y451D01*
X0Y450D02*
X7Y450D01*
X1251Y450D02*
X1258Y450D01*
X0Y449D02*
X7Y449D01*
X1251Y449D02*
X1258Y449D01*
X0Y448D02*
X7Y448D01*
X1251Y448D02*
X1258Y448D01*
X0Y447D02*
X7Y447D01*
X1251Y447D02*
X1258Y447D01*
X0Y446D02*
X7Y446D01*
X1251Y446D02*
X1258Y446D01*
X0Y445D02*
X7Y445D01*
X1251Y445D02*
X1258Y445D01*
X0Y444D02*
X7Y444D01*
X1251Y444D02*
X1258Y444D01*
X0Y443D02*
X7Y443D01*
X1251Y443D02*
X1258Y443D01*
X0Y442D02*
X7Y442D01*
X1251Y442D02*
X1258Y442D01*
X0Y441D02*
X7Y441D01*
X1251Y441D02*
X1258Y441D01*
X0Y440D02*
X7Y440D01*
X619Y440D02*
X638Y440D01*
X1251Y440D02*
X1258Y440D01*
X0Y439D02*
X7Y439D01*
X617Y439D02*
X640Y439D01*
X1251Y439D02*
X1258Y439D01*
X0Y438D02*
X7Y438D01*
X616Y438D02*
X641Y438D01*
X1251Y438D02*
X1258Y438D01*
X0Y437D02*
X7Y437D01*
X615Y437D02*
X642Y437D01*
X1251Y437D02*
X1258Y437D01*
X0Y436D02*
X7Y436D01*
X614Y436D02*
X643Y436D01*
X1251Y436D02*
X1258Y436D01*
X0Y435D02*
X7Y435D01*
X614Y435D02*
X643Y435D01*
X1251Y435D02*
X1258Y435D01*
X0Y434D02*
X7Y434D01*
X614Y434D02*
X643Y434D01*
X1251Y434D02*
X1258Y434D01*
X0Y433D02*
X7Y433D01*
X614Y433D02*
X620Y433D01*
X637Y433D02*
X665Y433D01*
X1251Y433D02*
X1258Y433D01*
X0Y432D02*
X7Y432D01*
X614Y432D02*
X620Y432D01*
X637Y432D02*
X666Y432D01*
X1251Y432D02*
X1258Y432D01*
X0Y431D02*
X7Y431D01*
X614Y431D02*
X620Y431D01*
X637Y431D02*
X667Y431D01*
X1251Y431D02*
X1258Y431D01*
X0Y430D02*
X7Y430D01*
X614Y430D02*
X620Y430D01*
X637Y430D02*
X667Y430D01*
X1251Y430D02*
X1258Y430D01*
X0Y429D02*
X7Y429D01*
X614Y429D02*
X620Y429D01*
X637Y429D02*
X667Y429D01*
X915Y429D02*
X944Y429D01*
X1251Y429D02*
X1258Y429D01*
X0Y428D02*
X7Y428D01*
X614Y428D02*
X620Y428D01*
X637Y428D02*
X667Y428D01*
X914Y428D02*
X945Y428D01*
X1251Y428D02*
X1258Y428D01*
X0Y427D02*
X7Y427D01*
X614Y427D02*
X620Y427D01*
X637Y427D02*
X667Y427D01*
X913Y427D02*
X945Y427D01*
X1251Y427D02*
X1258Y427D01*
X0Y426D02*
X7Y426D01*
X614Y426D02*
X620Y426D01*
X637Y426D02*
X643Y426D01*
X661Y426D02*
X667Y426D01*
X913Y426D02*
X945Y426D01*
X1251Y426D02*
X1258Y426D01*
X0Y425D02*
X7Y425D01*
X614Y425D02*
X620Y425D01*
X637Y425D02*
X643Y425D01*
X661Y425D02*
X667Y425D01*
X913Y425D02*
X917Y425D01*
X924Y425D02*
X928Y425D01*
X941Y425D02*
X945Y425D01*
X1251Y425D02*
X1258Y425D01*
X0Y424D02*
X7Y424D01*
X614Y424D02*
X620Y424D01*
X637Y424D02*
X643Y424D01*
X661Y424D02*
X667Y424D01*
X913Y424D02*
X917Y424D01*
X924Y424D02*
X927Y424D01*
X942Y424D02*
X944Y424D01*
X1251Y424D02*
X1258Y424D01*
X0Y423D02*
X7Y423D01*
X614Y423D02*
X620Y423D01*
X637Y423D02*
X643Y423D01*
X661Y423D02*
X667Y423D01*
X913Y423D02*
X917Y423D01*
X924Y423D02*
X927Y423D01*
X1251Y423D02*
X1258Y423D01*
X0Y422D02*
X7Y422D01*
X614Y422D02*
X620Y422D01*
X637Y422D02*
X643Y422D01*
X661Y422D02*
X667Y422D01*
X913Y422D02*
X917Y422D01*
X924Y422D02*
X927Y422D01*
X1251Y422D02*
X1258Y422D01*
X0Y421D02*
X7Y421D01*
X614Y421D02*
X620Y421D01*
X637Y421D02*
X643Y421D01*
X661Y421D02*
X667Y421D01*
X913Y421D02*
X917Y421D01*
X924Y421D02*
X927Y421D01*
X1251Y421D02*
X1258Y421D01*
X0Y420D02*
X7Y420D01*
X614Y420D02*
X620Y420D01*
X637Y420D02*
X643Y420D01*
X661Y420D02*
X667Y420D01*
X913Y420D02*
X917Y420D01*
X924Y420D02*
X927Y420D01*
X1251Y420D02*
X1258Y420D01*
X0Y419D02*
X7Y419D01*
X614Y419D02*
X620Y419D01*
X637Y419D02*
X667Y419D01*
X913Y419D02*
X917Y419D01*
X924Y419D02*
X927Y419D01*
X1251Y419D02*
X1258Y419D01*
X0Y418D02*
X7Y418D01*
X614Y418D02*
X620Y418D01*
X637Y418D02*
X667Y418D01*
X913Y418D02*
X917Y418D01*
X924Y418D02*
X927Y418D01*
X1251Y418D02*
X1258Y418D01*
X0Y417D02*
X7Y417D01*
X614Y417D02*
X620Y417D01*
X637Y417D02*
X667Y417D01*
X913Y417D02*
X917Y417D01*
X924Y417D02*
X927Y417D01*
X1251Y417D02*
X1258Y417D01*
X0Y416D02*
X7Y416D01*
X614Y416D02*
X620Y416D01*
X637Y416D02*
X667Y416D01*
X913Y416D02*
X917Y416D01*
X924Y416D02*
X927Y416D01*
X1251Y416D02*
X1258Y416D01*
X0Y415D02*
X7Y415D01*
X614Y415D02*
X620Y415D01*
X637Y415D02*
X667Y415D01*
X913Y415D02*
X917Y415D01*
X924Y415D02*
X927Y415D01*
X1251Y415D02*
X1258Y415D01*
X0Y414D02*
X7Y414D01*
X614Y414D02*
X620Y414D01*
X637Y414D02*
X666Y414D01*
X913Y414D02*
X917Y414D01*
X924Y414D02*
X927Y414D01*
X1251Y414D02*
X1258Y414D01*
X0Y413D02*
X7Y413D01*
X614Y413D02*
X620Y413D01*
X637Y413D02*
X665Y413D01*
X913Y413D02*
X917Y413D01*
X924Y413D02*
X927Y413D01*
X1251Y413D02*
X1258Y413D01*
X0Y412D02*
X7Y412D01*
X614Y412D02*
X643Y412D01*
X913Y412D02*
X927Y412D01*
X1251Y412D02*
X1258Y412D01*
X0Y411D02*
X7Y411D01*
X614Y411D02*
X643Y411D01*
X913Y411D02*
X927Y411D01*
X1251Y411D02*
X1258Y411D01*
X0Y410D02*
X7Y410D01*
X614Y410D02*
X643Y410D01*
X913Y410D02*
X927Y410D01*
X1251Y410D02*
X1258Y410D01*
X0Y409D02*
X7Y409D01*
X615Y409D02*
X642Y409D01*
X914Y409D02*
X926Y409D01*
X1251Y409D02*
X1258Y409D01*
X0Y408D02*
X7Y408D01*
X616Y408D02*
X641Y408D01*
X1251Y408D02*
X1258Y408D01*
X0Y407D02*
X7Y407D01*
X617Y407D02*
X640Y407D01*
X1251Y407D02*
X1258Y407D01*
X0Y406D02*
X7Y406D01*
X619Y406D02*
X638Y406D01*
X1251Y406D02*
X1258Y406D01*
X0Y405D02*
X7Y405D01*
X1251Y405D02*
X1258Y405D01*
X0Y404D02*
X7Y404D01*
X1251Y404D02*
X1258Y404D01*
X0Y403D02*
X7Y403D01*
X1251Y403D02*
X1258Y403D01*
X0Y402D02*
X7Y402D01*
X1251Y402D02*
X1258Y402D01*
X0Y401D02*
X7Y401D01*
X1251Y401D02*
X1258Y401D01*
X0Y400D02*
X7Y400D01*
X1251Y400D02*
X1258Y400D01*
X0Y399D02*
X7Y399D01*
X917Y399D02*
X927Y399D01*
X1251Y399D02*
X1258Y399D01*
X0Y398D02*
X7Y398D01*
X915Y398D02*
X929Y398D01*
X1251Y398D02*
X1258Y398D01*
X0Y397D02*
X7Y397D01*
X914Y397D02*
X930Y397D01*
X1251Y397D02*
X1258Y397D01*
X0Y396D02*
X7Y396D01*
X914Y396D02*
X930Y396D01*
X1251Y396D02*
X1258Y396D01*
X0Y395D02*
X7Y395D01*
X913Y395D02*
X931Y395D01*
X1251Y395D02*
X1258Y395D01*
X0Y394D02*
X7Y394D01*
X913Y394D02*
X917Y394D01*
X927Y394D02*
X944Y394D01*
X1251Y394D02*
X1258Y394D01*
X0Y393D02*
X7Y393D01*
X913Y393D02*
X917Y393D01*
X927Y393D02*
X945Y393D01*
X1251Y393D02*
X1258Y393D01*
X0Y392D02*
X7Y392D01*
X913Y392D02*
X917Y392D01*
X927Y392D02*
X945Y392D01*
X1251Y392D02*
X1258Y392D01*
X0Y391D02*
X7Y391D01*
X913Y391D02*
X917Y391D01*
X927Y391D02*
X945Y391D01*
X1251Y391D02*
X1258Y391D01*
X0Y390D02*
X7Y390D01*
X620Y390D02*
X637Y390D01*
X913Y390D02*
X917Y390D01*
X927Y390D02*
X931Y390D01*
X942Y390D02*
X945Y390D01*
X1251Y390D02*
X1258Y390D01*
X0Y389D02*
X7Y389D01*
X617Y389D02*
X640Y389D01*
X913Y389D02*
X917Y389D01*
X927Y389D02*
X931Y389D01*
X942Y389D02*
X945Y389D01*
X1251Y389D02*
X1258Y389D01*
X0Y388D02*
X7Y388D01*
X616Y388D02*
X641Y388D01*
X913Y388D02*
X917Y388D01*
X927Y388D02*
X931Y388D01*
X942Y388D02*
X945Y388D01*
X1251Y388D02*
X1258Y388D01*
X0Y387D02*
X7Y387D01*
X615Y387D02*
X642Y387D01*
X913Y387D02*
X917Y387D01*
X927Y387D02*
X931Y387D01*
X941Y387D02*
X945Y387D01*
X1251Y387D02*
X1258Y387D01*
X0Y386D02*
X7Y386D01*
X614Y386D02*
X643Y386D01*
X913Y386D02*
X917Y386D01*
X927Y386D02*
X945Y386D01*
X1251Y386D02*
X1258Y386D01*
X0Y385D02*
X7Y385D01*
X614Y385D02*
X643Y385D01*
X913Y385D02*
X917Y385D01*
X927Y385D02*
X945Y385D01*
X1251Y385D02*
X1258Y385D01*
X0Y384D02*
X7Y384D01*
X614Y384D02*
X643Y384D01*
X913Y384D02*
X917Y384D01*
X927Y384D02*
X945Y384D01*
X1251Y384D02*
X1258Y384D01*
X0Y383D02*
X7Y383D01*
X614Y383D02*
X620Y383D01*
X637Y383D02*
X664Y383D01*
X913Y383D02*
X917Y383D01*
X927Y383D02*
X944Y383D01*
X1251Y383D02*
X1258Y383D01*
X0Y382D02*
X7Y382D01*
X614Y382D02*
X620Y382D01*
X637Y382D02*
X666Y382D01*
X913Y382D02*
X931Y382D01*
X1251Y382D02*
X1258Y382D01*
X0Y381D02*
X7Y381D01*
X614Y381D02*
X620Y381D01*
X637Y381D02*
X667Y381D01*
X914Y381D02*
X930Y381D01*
X1251Y381D02*
X1258Y381D01*
X0Y380D02*
X7Y380D01*
X614Y380D02*
X620Y380D01*
X637Y380D02*
X667Y380D01*
X914Y380D02*
X930Y380D01*
X1251Y380D02*
X1258Y380D01*
X0Y379D02*
X7Y379D01*
X614Y379D02*
X620Y379D01*
X637Y379D02*
X667Y379D01*
X915Y379D02*
X928Y379D01*
X1251Y379D02*
X1258Y379D01*
X0Y378D02*
X7Y378D01*
X614Y378D02*
X620Y378D01*
X637Y378D02*
X667Y378D01*
X1251Y378D02*
X1258Y378D01*
X0Y377D02*
X7Y377D01*
X614Y377D02*
X620Y377D01*
X637Y377D02*
X667Y377D01*
X1251Y377D02*
X1258Y377D01*
X0Y376D02*
X7Y376D01*
X614Y376D02*
X620Y376D01*
X637Y376D02*
X643Y376D01*
X661Y376D02*
X667Y376D01*
X1251Y376D02*
X1258Y376D01*
X0Y375D02*
X7Y375D01*
X614Y375D02*
X620Y375D01*
X637Y375D02*
X643Y375D01*
X661Y375D02*
X667Y375D01*
X1251Y375D02*
X1258Y375D01*
X0Y374D02*
X7Y374D01*
X614Y374D02*
X620Y374D01*
X637Y374D02*
X643Y374D01*
X661Y374D02*
X667Y374D01*
X1251Y374D02*
X1258Y374D01*
X0Y373D02*
X7Y373D01*
X614Y373D02*
X620Y373D01*
X637Y373D02*
X643Y373D01*
X661Y373D02*
X667Y373D01*
X1251Y373D02*
X1258Y373D01*
X0Y372D02*
X7Y372D01*
X614Y372D02*
X620Y372D01*
X637Y372D02*
X643Y372D01*
X661Y372D02*
X667Y372D01*
X1251Y372D02*
X1258Y372D01*
X0Y371D02*
X7Y371D01*
X614Y371D02*
X620Y371D01*
X637Y371D02*
X643Y371D01*
X661Y371D02*
X667Y371D01*
X1251Y371D02*
X1258Y371D01*
X0Y370D02*
X7Y370D01*
X614Y370D02*
X620Y370D01*
X637Y370D02*
X643Y370D01*
X661Y370D02*
X667Y370D01*
X1251Y370D02*
X1258Y370D01*
X0Y369D02*
X7Y369D01*
X614Y369D02*
X620Y369D01*
X637Y369D02*
X667Y369D01*
X917Y369D02*
X941Y369D01*
X1251Y369D02*
X1258Y369D01*
X0Y368D02*
X7Y368D01*
X614Y368D02*
X620Y368D01*
X637Y368D02*
X667Y368D01*
X915Y368D02*
X943Y368D01*
X1251Y368D02*
X1258Y368D01*
X0Y367D02*
X7Y367D01*
X614Y367D02*
X620Y367D01*
X637Y367D02*
X667Y367D01*
X914Y367D02*
X944Y367D01*
X1251Y367D02*
X1258Y367D01*
X0Y366D02*
X7Y366D01*
X614Y366D02*
X620Y366D01*
X637Y366D02*
X667Y366D01*
X914Y366D02*
X945Y366D01*
X1251Y366D02*
X1258Y366D01*
X0Y365D02*
X7Y365D01*
X614Y365D02*
X620Y365D01*
X637Y365D02*
X667Y365D01*
X913Y365D02*
X945Y365D01*
X1251Y365D02*
X1258Y365D01*
X0Y364D02*
X7Y364D01*
X614Y364D02*
X620Y364D01*
X637Y364D02*
X666Y364D01*
X913Y364D02*
X917Y364D01*
X942Y364D02*
X945Y364D01*
X1251Y364D02*
X1258Y364D01*
X0Y363D02*
X7Y363D01*
X614Y363D02*
X620Y363D01*
X637Y363D02*
X665Y363D01*
X913Y363D02*
X917Y363D01*
X942Y363D02*
X945Y363D01*
X1251Y363D02*
X1258Y363D01*
X0Y362D02*
X7Y362D01*
X614Y362D02*
X643Y362D01*
X913Y362D02*
X917Y362D01*
X942Y362D02*
X945Y362D01*
X1251Y362D02*
X1258Y362D01*
X0Y361D02*
X7Y361D01*
X614Y361D02*
X643Y361D01*
X913Y361D02*
X917Y361D01*
X942Y361D02*
X945Y361D01*
X1251Y361D02*
X1258Y361D01*
X0Y360D02*
X7Y360D01*
X614Y360D02*
X643Y360D01*
X913Y360D02*
X917Y360D01*
X942Y360D02*
X945Y360D01*
X1251Y360D02*
X1258Y360D01*
X0Y359D02*
X7Y359D01*
X615Y359D02*
X642Y359D01*
X913Y359D02*
X917Y359D01*
X942Y359D02*
X945Y359D01*
X1251Y359D02*
X1258Y359D01*
X0Y358D02*
X7Y358D01*
X615Y358D02*
X641Y358D01*
X913Y358D02*
X917Y358D01*
X942Y358D02*
X945Y358D01*
X1251Y358D02*
X1258Y358D01*
X0Y357D02*
X7Y357D01*
X617Y357D02*
X640Y357D01*
X913Y357D02*
X917Y357D01*
X942Y357D02*
X945Y357D01*
X1251Y357D02*
X1258Y357D01*
X0Y356D02*
X7Y356D01*
X618Y356D02*
X639Y356D01*
X913Y356D02*
X917Y356D01*
X942Y356D02*
X945Y356D01*
X1251Y356D02*
X1258Y356D01*
X0Y355D02*
X7Y355D01*
X913Y355D02*
X917Y355D01*
X942Y355D02*
X945Y355D01*
X1251Y355D02*
X1258Y355D01*
X0Y354D02*
X7Y354D01*
X913Y354D02*
X917Y354D01*
X942Y354D02*
X945Y354D01*
X1251Y354D02*
X1258Y354D01*
X0Y353D02*
X7Y353D01*
X913Y353D02*
X917Y353D01*
X942Y353D02*
X945Y353D01*
X1251Y353D02*
X1258Y353D01*
X0Y352D02*
X7Y352D01*
X913Y352D02*
X945Y352D01*
X1251Y352D02*
X1258Y352D01*
X0Y351D02*
X7Y351D01*
X914Y351D02*
X944Y351D01*
X1251Y351D02*
X1258Y351D01*
X0Y350D02*
X7Y350D01*
X914Y350D02*
X944Y350D01*
X1251Y350D02*
X1258Y350D01*
X0Y349D02*
X7Y349D01*
X915Y349D02*
X943Y349D01*
X1251Y349D02*
X1258Y349D01*
X0Y348D02*
X7Y348D01*
X1251Y348D02*
X1258Y348D01*
X0Y347D02*
X7Y347D01*
X1251Y347D02*
X1258Y347D01*
X0Y346D02*
X7Y346D01*
X1251Y346D02*
X1258Y346D01*
X0Y345D02*
X7Y345D01*
X1251Y345D02*
X1258Y345D01*
X0Y344D02*
X7Y344D01*
X1251Y344D02*
X1258Y344D01*
X0Y343D02*
X7Y343D01*
X1251Y343D02*
X1258Y343D01*
X0Y342D02*
X7Y342D01*
X1251Y342D02*
X1258Y342D01*
X0Y341D02*
X7Y341D01*
X1251Y341D02*
X1258Y341D01*
X0Y340D02*
X7Y340D01*
X1251Y340D02*
X1258Y340D01*
X0Y339D02*
X7Y339D01*
X615Y339D02*
X618Y339D01*
X662Y339D02*
X666Y339D01*
X1251Y339D02*
X1258Y339D01*
X0Y338D02*
X7Y338D01*
X614Y338D02*
X619Y338D01*
X661Y338D02*
X666Y338D01*
X914Y338D02*
X944Y338D01*
X1251Y338D02*
X1258Y338D01*
X0Y337D02*
X7Y337D01*
X614Y337D02*
X620Y337D01*
X661Y337D02*
X667Y337D01*
X913Y337D02*
X945Y337D01*
X1251Y337D02*
X1258Y337D01*
X0Y336D02*
X7Y336D01*
X614Y336D02*
X620Y336D01*
X661Y336D02*
X667Y336D01*
X914Y336D02*
X945Y336D01*
X1251Y336D02*
X1258Y336D01*
X0Y335D02*
X7Y335D01*
X614Y335D02*
X620Y335D01*
X661Y335D02*
X667Y335D01*
X914Y335D02*
X944Y335D01*
X1251Y335D02*
X1258Y335D01*
X0Y334D02*
X7Y334D01*
X614Y334D02*
X620Y334D01*
X661Y334D02*
X667Y334D01*
X922Y334D02*
X927Y334D01*
X1251Y334D02*
X1258Y334D01*
X0Y333D02*
X7Y333D01*
X614Y333D02*
X620Y333D01*
X661Y333D02*
X667Y333D01*
X923Y333D02*
X928Y333D01*
X1251Y333D02*
X1258Y333D01*
X0Y332D02*
X7Y332D01*
X614Y332D02*
X620Y332D01*
X661Y332D02*
X667Y332D01*
X923Y332D02*
X928Y332D01*
X1251Y332D02*
X1258Y332D01*
X0Y331D02*
X7Y331D01*
X614Y331D02*
X620Y331D01*
X661Y331D02*
X667Y331D01*
X922Y331D02*
X929Y331D01*
X1251Y331D02*
X1258Y331D01*
X0Y330D02*
X7Y330D01*
X614Y330D02*
X620Y330D01*
X661Y330D02*
X667Y330D01*
X921Y330D02*
X930Y330D01*
X1251Y330D02*
X1258Y330D01*
X0Y329D02*
X7Y329D01*
X614Y329D02*
X620Y329D01*
X661Y329D02*
X667Y329D01*
X920Y329D02*
X931Y329D01*
X1251Y329D02*
X1258Y329D01*
X0Y328D02*
X7Y328D01*
X614Y328D02*
X620Y328D01*
X661Y328D02*
X667Y328D01*
X919Y328D02*
X924Y328D01*
X927Y328D02*
X932Y328D01*
X1251Y328D02*
X1258Y328D01*
X0Y327D02*
X7Y327D01*
X614Y327D02*
X620Y327D01*
X661Y327D02*
X667Y327D01*
X918Y327D02*
X923Y327D01*
X928Y327D02*
X933Y327D01*
X1251Y327D02*
X1258Y327D01*
X0Y326D02*
X7Y326D01*
X614Y326D02*
X667Y326D01*
X918Y326D02*
X922Y326D01*
X929Y326D02*
X934Y326D01*
X1251Y326D02*
X1258Y326D01*
X0Y325D02*
X7Y325D01*
X614Y325D02*
X667Y325D01*
X917Y325D02*
X921Y325D01*
X930Y325D02*
X934Y325D01*
X1251Y325D02*
X1258Y325D01*
X0Y324D02*
X7Y324D01*
X614Y324D02*
X667Y324D01*
X916Y324D02*
X920Y324D01*
X931Y324D02*
X935Y324D01*
X1251Y324D02*
X1258Y324D01*
X0Y323D02*
X7Y323D01*
X614Y323D02*
X667Y323D01*
X915Y323D02*
X919Y323D01*
X932Y323D02*
X936Y323D01*
X1251Y323D02*
X1258Y323D01*
X0Y322D02*
X7Y322D01*
X614Y322D02*
X667Y322D01*
X914Y322D02*
X919Y322D01*
X932Y322D02*
X936Y322D01*
X1251Y322D02*
X1258Y322D01*
X0Y321D02*
X7Y321D01*
X614Y321D02*
X667Y321D01*
X913Y321D02*
X918Y321D01*
X933Y321D02*
X935Y321D01*
X1251Y321D02*
X1258Y321D01*
X0Y320D02*
X7Y320D01*
X614Y320D02*
X667Y320D01*
X913Y320D02*
X917Y320D01*
X1251Y320D02*
X1258Y320D01*
X0Y319D02*
X7Y319D01*
X614Y319D02*
X620Y319D01*
X914Y319D02*
X916Y319D01*
X1251Y319D02*
X1258Y319D01*
X0Y318D02*
X7Y318D01*
X614Y318D02*
X620Y318D01*
X1251Y318D02*
X1258Y318D01*
X0Y317D02*
X7Y317D01*
X614Y317D02*
X620Y317D01*
X1251Y317D02*
X1258Y317D01*
X0Y316D02*
X7Y316D01*
X614Y316D02*
X620Y316D01*
X1251Y316D02*
X1258Y316D01*
X0Y315D02*
X7Y315D01*
X614Y315D02*
X620Y315D01*
X1251Y315D02*
X1258Y315D01*
X0Y314D02*
X7Y314D01*
X614Y314D02*
X620Y314D01*
X1251Y314D02*
X1258Y314D01*
X0Y313D02*
X7Y313D01*
X614Y313D02*
X620Y313D01*
X1251Y313D02*
X1258Y313D01*
X0Y312D02*
X7Y312D01*
X614Y312D02*
X635Y312D01*
X914Y312D02*
X915Y312D01*
X1251Y312D02*
X1258Y312D01*
X0Y311D02*
X7Y311D01*
X614Y311D02*
X637Y311D01*
X913Y311D02*
X915Y311D01*
X1251Y311D02*
X1258Y311D01*
X0Y310D02*
X7Y310D01*
X614Y310D02*
X637Y310D01*
X913Y310D02*
X915Y310D01*
X924Y310D02*
X935Y310D01*
X1251Y310D02*
X1258Y310D01*
X0Y309D02*
X7Y309D01*
X614Y309D02*
X637Y309D01*
X913Y309D02*
X915Y309D01*
X922Y309D02*
X937Y309D01*
X1251Y309D02*
X1258Y309D01*
X0Y308D02*
X7Y308D01*
X614Y308D02*
X637Y308D01*
X913Y308D02*
X915Y308D01*
X921Y308D02*
X938Y308D01*
X1251Y308D02*
X1258Y308D01*
X0Y307D02*
X7Y307D01*
X614Y307D02*
X637Y307D01*
X913Y307D02*
X915Y307D01*
X920Y307D02*
X939Y307D01*
X1251Y307D02*
X1258Y307D01*
X0Y306D02*
X7Y306D01*
X615Y306D02*
X636Y306D01*
X913Y306D02*
X915Y306D01*
X919Y306D02*
X925Y306D01*
X934Y306D02*
X940Y306D01*
X1251Y306D02*
X1258Y306D01*
X0Y305D02*
X7Y305D01*
X913Y305D02*
X915Y305D01*
X918Y305D02*
X922Y305D01*
X937Y305D02*
X941Y305D01*
X1251Y305D02*
X1258Y305D01*
X0Y304D02*
X7Y304D01*
X913Y304D02*
X920Y304D01*
X938Y304D02*
X941Y304D01*
X1251Y304D02*
X1258Y304D01*
X0Y303D02*
X7Y303D01*
X913Y303D02*
X919Y303D01*
X939Y303D02*
X942Y303D01*
X1251Y303D02*
X1258Y303D01*
X0Y302D02*
X7Y302D01*
X913Y302D02*
X918Y302D01*
X940Y302D02*
X942Y302D01*
X1251Y302D02*
X1258Y302D01*
X0Y301D02*
X7Y301D01*
X913Y301D02*
X917Y301D01*
X940Y301D02*
X943Y301D01*
X1251Y301D02*
X1258Y301D01*
X0Y300D02*
X7Y300D01*
X913Y300D02*
X916Y300D01*
X941Y300D02*
X943Y300D01*
X1251Y300D02*
X1258Y300D01*
X0Y299D02*
X7Y299D01*
X941Y299D02*
X943Y299D01*
X1251Y299D02*
X1258Y299D01*
X0Y298D02*
X7Y298D01*
X941Y298D02*
X943Y298D01*
X1251Y298D02*
X1258Y298D01*
X0Y297D02*
X7Y297D01*
X941Y297D02*
X943Y297D01*
X1251Y297D02*
X1258Y297D01*
X0Y296D02*
X7Y296D01*
X941Y296D02*
X943Y296D01*
X1251Y296D02*
X1258Y296D01*
X0Y295D02*
X7Y295D01*
X941Y295D02*
X943Y295D01*
X1251Y295D02*
X1258Y295D01*
X0Y294D02*
X7Y294D01*
X913Y294D02*
X916Y294D01*
X941Y294D02*
X943Y294D01*
X1251Y294D02*
X1258Y294D01*
X0Y293D02*
X7Y293D01*
X913Y293D02*
X917Y293D01*
X940Y293D02*
X943Y293D01*
X1251Y293D02*
X1258Y293D01*
X0Y292D02*
X7Y292D01*
X913Y292D02*
X917Y292D01*
X940Y292D02*
X942Y292D01*
X1251Y292D02*
X1258Y292D01*
X0Y291D02*
X7Y291D01*
X913Y291D02*
X918Y291D01*
X939Y291D02*
X942Y291D01*
X1251Y291D02*
X1258Y291D01*
X0Y290D02*
X7Y290D01*
X913Y290D02*
X920Y290D01*
X938Y290D02*
X941Y290D01*
X1251Y290D02*
X1258Y290D01*
X0Y289D02*
X7Y289D01*
X615Y289D02*
X667Y289D01*
X913Y289D02*
X915Y289D01*
X918Y289D02*
X922Y289D01*
X937Y289D02*
X941Y289D01*
X1251Y289D02*
X1258Y289D01*
X0Y288D02*
X7Y288D01*
X614Y288D02*
X667Y288D01*
X913Y288D02*
X915Y288D01*
X918Y288D02*
X924Y288D01*
X934Y288D02*
X940Y288D01*
X1251Y288D02*
X1258Y288D01*
X0Y287D02*
X7Y287D01*
X614Y287D02*
X667Y287D01*
X913Y287D02*
X915Y287D01*
X919Y287D02*
X939Y287D01*
X1251Y287D02*
X1258Y287D01*
X0Y286D02*
X7Y286D01*
X614Y286D02*
X667Y286D01*
X913Y286D02*
X915Y286D01*
X921Y286D02*
X938Y286D01*
X1251Y286D02*
X1258Y286D01*
X0Y285D02*
X7Y285D01*
X614Y285D02*
X667Y285D01*
X913Y285D02*
X915Y285D01*
X922Y285D02*
X937Y285D01*
X1251Y285D02*
X1258Y285D01*
X0Y284D02*
X7Y284D01*
X615Y284D02*
X667Y284D01*
X913Y284D02*
X915Y284D01*
X924Y284D02*
X935Y284D01*
X1251Y284D02*
X1258Y284D01*
X0Y283D02*
X7Y283D01*
X616Y283D02*
X667Y283D01*
X913Y283D02*
X915Y283D01*
X928Y283D02*
X930Y283D01*
X1251Y283D02*
X1258Y283D01*
X0Y282D02*
X7Y282D01*
X654Y282D02*
X667Y282D01*
X914Y282D02*
X915Y282D01*
X1251Y282D02*
X1258Y282D01*
X0Y281D02*
X7Y281D01*
X651Y281D02*
X667Y281D01*
X1251Y281D02*
X1258Y281D01*
X0Y280D02*
X7Y280D01*
X649Y280D02*
X666Y280D01*
X1251Y280D02*
X1258Y280D01*
X0Y279D02*
X7Y279D01*
X647Y279D02*
X663Y279D01*
X1251Y279D02*
X1258Y279D01*
X0Y278D02*
X7Y278D01*
X644Y278D02*
X661Y278D01*
X1251Y278D02*
X1258Y278D01*
X0Y277D02*
X7Y277D01*
X642Y277D02*
X659Y277D01*
X1251Y277D02*
X1258Y277D01*
X0Y276D02*
X7Y276D01*
X640Y276D02*
X656Y276D01*
X1251Y276D02*
X1258Y276D01*
X0Y275D02*
X7Y275D01*
X638Y275D02*
X654Y275D01*
X1251Y275D02*
X1258Y275D01*
X0Y274D02*
X7Y274D01*
X635Y274D02*
X652Y274D01*
X1251Y274D02*
X1258Y274D01*
X0Y273D02*
X7Y273D01*
X633Y273D02*
X650Y273D01*
X1251Y273D02*
X1258Y273D01*
X0Y272D02*
X7Y272D01*
X631Y272D02*
X647Y272D01*
X1251Y272D02*
X1258Y272D01*
X0Y271D02*
X7Y271D01*
X628Y271D02*
X645Y271D01*
X1251Y271D02*
X1258Y271D01*
X0Y270D02*
X7Y270D01*
X626Y270D02*
X643Y270D01*
X1251Y270D02*
X1258Y270D01*
X0Y269D02*
X7Y269D01*
X624Y269D02*
X641Y269D01*
X1251Y269D02*
X1258Y269D01*
X0Y268D02*
X7Y268D01*
X119Y268D02*
X147Y268D01*
X162Y268D02*
X170Y268D01*
X187Y268D02*
X190Y268D01*
X622Y268D02*
X638Y268D01*
X1251Y268D02*
X1258Y268D01*
X0Y267D02*
X7Y267D01*
X119Y267D02*
X147Y267D01*
X162Y267D02*
X170Y267D01*
X187Y267D02*
X191Y267D01*
X301Y267D02*
X307Y267D01*
X333Y267D02*
X361Y267D01*
X377Y267D02*
X405Y267D01*
X619Y267D02*
X636Y267D01*
X1251Y267D02*
X1258Y267D01*
X0Y266D02*
X7Y266D01*
X119Y266D02*
X148Y266D01*
X162Y266D02*
X171Y266D01*
X186Y266D02*
X191Y266D01*
X300Y266D02*
X308Y266D01*
X333Y266D02*
X362Y266D01*
X377Y266D02*
X406Y266D01*
X617Y266D02*
X634Y266D01*
X1251Y266D02*
X1258Y266D01*
X0Y265D02*
X7Y265D01*
X119Y265D02*
X147Y265D01*
X162Y265D02*
X171Y265D01*
X186Y265D02*
X191Y265D01*
X299Y265D02*
X309Y265D01*
X333Y265D02*
X362Y265D01*
X377Y265D02*
X406Y265D01*
X615Y265D02*
X631Y265D01*
X1251Y265D02*
X1258Y265D01*
X0Y264D02*
X7Y264D01*
X119Y264D02*
X147Y264D01*
X162Y264D02*
X171Y264D01*
X186Y264D02*
X191Y264D01*
X298Y264D02*
X310Y264D01*
X333Y264D02*
X362Y264D01*
X377Y264D02*
X406Y264D01*
X614Y264D02*
X629Y264D01*
X1251Y264D02*
X1258Y264D01*
X0Y263D02*
X7Y263D01*
X121Y263D02*
X146Y263D01*
X162Y263D02*
X172Y263D01*
X186Y263D02*
X191Y263D01*
X297Y263D02*
X311Y263D01*
X333Y263D02*
X362Y263D01*
X377Y263D02*
X406Y263D01*
X614Y263D02*
X627Y263D01*
X1251Y263D02*
X1258Y263D01*
X0Y262D02*
X7Y262D01*
X130Y262D02*
X136Y262D01*
X162Y262D02*
X172Y262D01*
X186Y262D02*
X191Y262D01*
X297Y262D02*
X311Y262D01*
X333Y262D02*
X361Y262D01*
X377Y262D02*
X404Y262D01*
X614Y262D02*
X664Y262D01*
X1251Y262D02*
X1258Y262D01*
X0Y261D02*
X7Y261D01*
X130Y261D02*
X136Y261D01*
X162Y261D02*
X173Y261D01*
X186Y261D02*
X191Y261D01*
X296Y261D02*
X302Y261D01*
X306Y261D02*
X312Y261D01*
X333Y261D02*
X338Y261D01*
X377Y261D02*
X382Y261D01*
X614Y261D02*
X666Y261D01*
X1251Y261D02*
X1258Y261D01*
X0Y260D02*
X7Y260D01*
X130Y260D02*
X136Y260D01*
X162Y260D02*
X173Y260D01*
X186Y260D02*
X191Y260D01*
X296Y260D02*
X302Y260D01*
X306Y260D02*
X312Y260D01*
X333Y260D02*
X338Y260D01*
X377Y260D02*
X382Y260D01*
X614Y260D02*
X667Y260D01*
X1251Y260D02*
X1258Y260D01*
X0Y259D02*
X7Y259D01*
X130Y259D02*
X136Y259D01*
X162Y259D02*
X174Y259D01*
X186Y259D02*
X191Y259D01*
X295Y259D02*
X301Y259D01*
X307Y259D02*
X313Y259D01*
X333Y259D02*
X338Y259D01*
X377Y259D02*
X382Y259D01*
X614Y259D02*
X667Y259D01*
X1251Y259D02*
X1258Y259D01*
X0Y258D02*
X7Y258D01*
X130Y258D02*
X136Y258D01*
X162Y258D02*
X174Y258D01*
X186Y258D02*
X191Y258D01*
X295Y258D02*
X301Y258D01*
X307Y258D02*
X313Y258D01*
X333Y258D02*
X338Y258D01*
X377Y258D02*
X382Y258D01*
X614Y258D02*
X667Y258D01*
X1251Y258D02*
X1258Y258D01*
X0Y257D02*
X7Y257D01*
X130Y257D02*
X136Y257D01*
X162Y257D02*
X175Y257D01*
X186Y257D02*
X191Y257D01*
X294Y257D02*
X300Y257D01*
X308Y257D02*
X314Y257D01*
X333Y257D02*
X338Y257D01*
X377Y257D02*
X382Y257D01*
X614Y257D02*
X666Y257D01*
X1251Y257D02*
X1258Y257D01*
X0Y256D02*
X7Y256D01*
X130Y256D02*
X136Y256D01*
X162Y256D02*
X167Y256D01*
X169Y256D02*
X175Y256D01*
X186Y256D02*
X191Y256D01*
X294Y256D02*
X300Y256D01*
X308Y256D02*
X314Y256D01*
X333Y256D02*
X338Y256D01*
X377Y256D02*
X382Y256D01*
X614Y256D02*
X665Y256D01*
X924Y256D02*
X933Y256D01*
X1251Y256D02*
X1258Y256D01*
X0Y255D02*
X7Y255D01*
X130Y255D02*
X136Y255D01*
X162Y255D02*
X167Y255D01*
X170Y255D02*
X175Y255D01*
X186Y255D02*
X191Y255D01*
X293Y255D02*
X299Y255D01*
X309Y255D02*
X315Y255D01*
X333Y255D02*
X338Y255D01*
X377Y255D02*
X382Y255D01*
X924Y255D02*
X933Y255D01*
X1251Y255D02*
X1258Y255D01*
X0Y254D02*
X7Y254D01*
X130Y254D02*
X136Y254D01*
X162Y254D02*
X167Y254D01*
X170Y254D02*
X176Y254D01*
X186Y254D02*
X191Y254D01*
X293Y254D02*
X299Y254D01*
X309Y254D02*
X315Y254D01*
X333Y254D02*
X338Y254D01*
X377Y254D02*
X382Y254D01*
X924Y254D02*
X933Y254D01*
X1251Y254D02*
X1258Y254D01*
X0Y253D02*
X7Y253D01*
X130Y253D02*
X136Y253D01*
X162Y253D02*
X167Y253D01*
X171Y253D02*
X176Y253D01*
X186Y253D02*
X191Y253D01*
X292Y253D02*
X298Y253D01*
X310Y253D02*
X316Y253D01*
X333Y253D02*
X338Y253D01*
X377Y253D02*
X382Y253D01*
X924Y253D02*
X933Y253D01*
X1251Y253D02*
X1258Y253D01*
X0Y252D02*
X7Y252D01*
X130Y252D02*
X136Y252D01*
X162Y252D02*
X167Y252D01*
X171Y252D02*
X177Y252D01*
X186Y252D02*
X191Y252D01*
X292Y252D02*
X298Y252D01*
X310Y252D02*
X316Y252D01*
X333Y252D02*
X355Y252D01*
X377Y252D02*
X398Y252D01*
X924Y252D02*
X933Y252D01*
X1251Y252D02*
X1258Y252D01*
X0Y251D02*
X7Y251D01*
X130Y251D02*
X136Y251D01*
X162Y251D02*
X167Y251D01*
X171Y251D02*
X177Y251D01*
X186Y251D02*
X191Y251D01*
X291Y251D02*
X297Y251D01*
X311Y251D02*
X317Y251D01*
X333Y251D02*
X356Y251D01*
X377Y251D02*
X399Y251D01*
X924Y251D02*
X933Y251D01*
X1251Y251D02*
X1258Y251D01*
X0Y250D02*
X7Y250D01*
X130Y250D02*
X136Y250D01*
X162Y250D02*
X167Y250D01*
X172Y250D02*
X178Y250D01*
X186Y250D02*
X191Y250D01*
X291Y250D02*
X297Y250D01*
X311Y250D02*
X317Y250D01*
X333Y250D02*
X356Y250D01*
X377Y250D02*
X400Y250D01*
X924Y250D02*
X933Y250D01*
X1251Y250D02*
X1258Y250D01*
X0Y249D02*
X7Y249D01*
X130Y249D02*
X136Y249D01*
X162Y249D02*
X167Y249D01*
X172Y249D02*
X178Y249D01*
X186Y249D02*
X191Y249D01*
X290Y249D02*
X296Y249D01*
X312Y249D02*
X318Y249D01*
X333Y249D02*
X356Y249D01*
X377Y249D02*
X400Y249D01*
X924Y249D02*
X933Y249D01*
X1251Y249D02*
X1258Y249D01*
X0Y248D02*
X7Y248D01*
X130Y248D02*
X136Y248D01*
X162Y248D02*
X167Y248D01*
X173Y248D02*
X178Y248D01*
X186Y248D02*
X191Y248D01*
X290Y248D02*
X296Y248D01*
X312Y248D02*
X318Y248D01*
X333Y248D02*
X356Y248D01*
X377Y248D02*
X400Y248D01*
X924Y248D02*
X933Y248D01*
X1251Y248D02*
X1258Y248D01*
X0Y247D02*
X7Y247D01*
X130Y247D02*
X136Y247D01*
X162Y247D02*
X167Y247D01*
X173Y247D02*
X179Y247D01*
X186Y247D02*
X191Y247D01*
X290Y247D02*
X295Y247D01*
X313Y247D02*
X318Y247D01*
X333Y247D02*
X355Y247D01*
X377Y247D02*
X399Y247D01*
X924Y247D02*
X933Y247D01*
X1251Y247D02*
X1258Y247D01*
X0Y246D02*
X7Y246D01*
X130Y246D02*
X136Y246D01*
X162Y246D02*
X167Y246D01*
X174Y246D02*
X179Y246D01*
X186Y246D02*
X191Y246D01*
X290Y246D02*
X295Y246D01*
X313Y246D02*
X318Y246D01*
X333Y246D02*
X339Y246D01*
X377Y246D02*
X382Y246D01*
X924Y246D02*
X933Y246D01*
X1251Y246D02*
X1258Y246D01*
X0Y245D02*
X7Y245D01*
X130Y245D02*
X136Y245D01*
X162Y245D02*
X167Y245D01*
X174Y245D02*
X180Y245D01*
X186Y245D02*
X191Y245D01*
X290Y245D02*
X295Y245D01*
X313Y245D02*
X319Y245D01*
X333Y245D02*
X338Y245D01*
X377Y245D02*
X382Y245D01*
X924Y245D02*
X933Y245D01*
X1251Y245D02*
X1258Y245D01*
X0Y244D02*
X7Y244D01*
X130Y244D02*
X136Y244D01*
X162Y244D02*
X167Y244D01*
X174Y244D02*
X180Y244D01*
X186Y244D02*
X191Y244D01*
X289Y244D02*
X295Y244D01*
X313Y244D02*
X319Y244D01*
X333Y244D02*
X338Y244D01*
X377Y244D02*
X382Y244D01*
X924Y244D02*
X933Y244D01*
X1251Y244D02*
X1258Y244D01*
X0Y243D02*
X7Y243D01*
X130Y243D02*
X136Y243D01*
X162Y243D02*
X167Y243D01*
X175Y243D02*
X181Y243D01*
X186Y243D02*
X191Y243D01*
X290Y243D02*
X295Y243D01*
X313Y243D02*
X318Y243D01*
X333Y243D02*
X338Y243D01*
X377Y243D02*
X382Y243D01*
X924Y243D02*
X933Y243D01*
X1251Y243D02*
X1258Y243D01*
X0Y242D02*
X7Y242D01*
X130Y242D02*
X136Y242D01*
X162Y242D02*
X167Y242D01*
X175Y242D02*
X181Y242D01*
X186Y242D02*
X191Y242D01*
X290Y242D02*
X295Y242D01*
X313Y242D02*
X318Y242D01*
X333Y242D02*
X338Y242D01*
X377Y242D02*
X382Y242D01*
X924Y242D02*
X933Y242D01*
X1251Y242D02*
X1258Y242D01*
X0Y241D02*
X7Y241D01*
X130Y241D02*
X136Y241D01*
X162Y241D02*
X167Y241D01*
X176Y241D02*
X182Y241D01*
X186Y241D02*
X191Y241D01*
X290Y241D02*
X295Y241D01*
X313Y241D02*
X318Y241D01*
X333Y241D02*
X338Y241D01*
X377Y241D02*
X382Y241D01*
X924Y241D02*
X933Y241D01*
X1251Y241D02*
X1258Y241D01*
X0Y240D02*
X7Y240D01*
X130Y240D02*
X136Y240D01*
X162Y240D02*
X167Y240D01*
X176Y240D02*
X182Y240D01*
X186Y240D02*
X191Y240D01*
X290Y240D02*
X296Y240D01*
X312Y240D02*
X318Y240D01*
X333Y240D02*
X338Y240D01*
X377Y240D02*
X382Y240D01*
X924Y240D02*
X933Y240D01*
X1251Y240D02*
X1258Y240D01*
X0Y239D02*
X7Y239D01*
X130Y239D02*
X136Y239D01*
X162Y239D02*
X167Y239D01*
X177Y239D02*
X182Y239D01*
X186Y239D02*
X191Y239D01*
X291Y239D02*
X296Y239D01*
X312Y239D02*
X317Y239D01*
X333Y239D02*
X338Y239D01*
X377Y239D02*
X382Y239D01*
X924Y239D02*
X933Y239D01*
X1251Y239D02*
X1258Y239D01*
X0Y238D02*
X7Y238D01*
X130Y238D02*
X136Y238D01*
X162Y238D02*
X167Y238D01*
X177Y238D02*
X183Y238D01*
X186Y238D02*
X191Y238D01*
X291Y238D02*
X297Y238D01*
X311Y238D02*
X317Y238D01*
X333Y238D02*
X338Y238D01*
X377Y238D02*
X382Y238D01*
X924Y238D02*
X933Y238D01*
X1251Y238D02*
X1258Y238D01*
X0Y237D02*
X7Y237D01*
X130Y237D02*
X136Y237D01*
X162Y237D02*
X167Y237D01*
X178Y237D02*
X183Y237D01*
X186Y237D02*
X191Y237D01*
X291Y237D02*
X297Y237D01*
X311Y237D02*
X317Y237D01*
X333Y237D02*
X338Y237D01*
X377Y237D02*
X382Y237D01*
X924Y237D02*
X933Y237D01*
X1251Y237D02*
X1258Y237D01*
X0Y236D02*
X7Y236D01*
X130Y236D02*
X136Y236D01*
X162Y236D02*
X167Y236D01*
X178Y236D02*
X184Y236D01*
X186Y236D02*
X191Y236D01*
X292Y236D02*
X298Y236D01*
X310Y236D02*
X316Y236D01*
X333Y236D02*
X338Y236D01*
X377Y236D02*
X382Y236D01*
X924Y236D02*
X933Y236D01*
X1251Y236D02*
X1258Y236D01*
X0Y235D02*
X7Y235D01*
X130Y235D02*
X136Y235D01*
X162Y235D02*
X167Y235D01*
X178Y235D02*
X184Y235D01*
X186Y235D02*
X191Y235D01*
X292Y235D02*
X298Y235D01*
X310Y235D02*
X316Y235D01*
X333Y235D02*
X338Y235D01*
X377Y235D02*
X382Y235D01*
X924Y235D02*
X933Y235D01*
X1251Y235D02*
X1258Y235D01*
X0Y234D02*
X7Y234D01*
X130Y234D02*
X136Y234D01*
X162Y234D02*
X167Y234D01*
X179Y234D02*
X191Y234D01*
X293Y234D02*
X299Y234D01*
X309Y234D02*
X315Y234D01*
X333Y234D02*
X338Y234D01*
X377Y234D02*
X382Y234D01*
X924Y234D02*
X933Y234D01*
X1251Y234D02*
X1258Y234D01*
X0Y233D02*
X7Y233D01*
X130Y233D02*
X136Y233D01*
X162Y233D02*
X167Y233D01*
X179Y233D02*
X191Y233D01*
X293Y233D02*
X299Y233D01*
X309Y233D02*
X315Y233D01*
X333Y233D02*
X338Y233D01*
X377Y233D02*
X382Y233D01*
X924Y233D02*
X933Y233D01*
X1251Y233D02*
X1258Y233D01*
X0Y232D02*
X7Y232D01*
X130Y232D02*
X136Y232D01*
X162Y232D02*
X167Y232D01*
X180Y232D02*
X191Y232D01*
X294Y232D02*
X300Y232D01*
X308Y232D02*
X314Y232D01*
X333Y232D02*
X338Y232D01*
X377Y232D02*
X382Y232D01*
X924Y232D02*
X933Y232D01*
X1251Y232D02*
X1258Y232D01*
X0Y231D02*
X7Y231D01*
X130Y231D02*
X136Y231D01*
X162Y231D02*
X167Y231D01*
X180Y231D02*
X191Y231D01*
X294Y231D02*
X300Y231D01*
X308Y231D02*
X314Y231D01*
X333Y231D02*
X338Y231D01*
X377Y231D02*
X382Y231D01*
X924Y231D02*
X933Y231D01*
X1251Y231D02*
X1258Y231D01*
X0Y230D02*
X7Y230D01*
X130Y230D02*
X136Y230D01*
X162Y230D02*
X167Y230D01*
X181Y230D02*
X191Y230D01*
X295Y230D02*
X301Y230D01*
X307Y230D02*
X313Y230D01*
X333Y230D02*
X338Y230D01*
X377Y230D02*
X382Y230D01*
X924Y230D02*
X933Y230D01*
X1251Y230D02*
X1258Y230D01*
X0Y229D02*
X7Y229D01*
X130Y229D02*
X136Y229D01*
X162Y229D02*
X167Y229D01*
X181Y229D02*
X191Y229D01*
X295Y229D02*
X301Y229D01*
X307Y229D02*
X313Y229D01*
X333Y229D02*
X338Y229D01*
X377Y229D02*
X382Y229D01*
X924Y229D02*
X933Y229D01*
X1251Y229D02*
X1258Y229D01*
X0Y228D02*
X7Y228D01*
X130Y228D02*
X136Y228D01*
X162Y228D02*
X167Y228D01*
X182Y228D02*
X191Y228D01*
X296Y228D02*
X302Y228D01*
X306Y228D02*
X312Y228D01*
X333Y228D02*
X338Y228D01*
X377Y228D02*
X382Y228D01*
X924Y228D02*
X933Y228D01*
X1251Y228D02*
X1258Y228D01*
X0Y227D02*
X7Y227D01*
X120Y227D02*
X147Y227D01*
X162Y227D02*
X167Y227D01*
X182Y227D02*
X191Y227D01*
X296Y227D02*
X303Y227D01*
X306Y227D02*
X312Y227D01*
X333Y227D02*
X338Y227D01*
X377Y227D02*
X382Y227D01*
X924Y227D02*
X933Y227D01*
X1251Y227D02*
X1258Y227D01*
X0Y226D02*
X7Y226D01*
X119Y226D02*
X147Y226D01*
X162Y226D02*
X167Y226D01*
X182Y226D02*
X191Y226D01*
X297Y226D02*
X311Y226D01*
X333Y226D02*
X338Y226D01*
X377Y226D02*
X382Y226D01*
X924Y226D02*
X933Y226D01*
X1251Y226D02*
X1258Y226D01*
X0Y225D02*
X7Y225D01*
X119Y225D02*
X148Y225D01*
X162Y225D02*
X167Y225D01*
X183Y225D02*
X191Y225D01*
X297Y225D02*
X311Y225D01*
X333Y225D02*
X338Y225D01*
X377Y225D02*
X382Y225D01*
X924Y225D02*
X933Y225D01*
X1251Y225D02*
X1258Y225D01*
X0Y224D02*
X7Y224D01*
X119Y224D02*
X147Y224D01*
X162Y224D02*
X167Y224D01*
X183Y224D02*
X191Y224D01*
X298Y224D02*
X310Y224D01*
X333Y224D02*
X338Y224D01*
X377Y224D02*
X382Y224D01*
X924Y224D02*
X933Y224D01*
X1251Y224D02*
X1258Y224D01*
X0Y223D02*
X7Y223D01*
X119Y223D02*
X147Y223D01*
X163Y223D02*
X167Y223D01*
X184Y223D02*
X191Y223D01*
X299Y223D02*
X309Y223D01*
X333Y223D02*
X338Y223D01*
X377Y223D02*
X382Y223D01*
X924Y223D02*
X933Y223D01*
X1251Y223D02*
X1258Y223D01*
X0Y222D02*
X7Y222D01*
X120Y222D02*
X146Y222D01*
X164Y222D02*
X166Y222D01*
X184Y222D02*
X191Y222D01*
X300Y222D02*
X308Y222D01*
X334Y222D02*
X338Y222D01*
X377Y222D02*
X382Y222D01*
X924Y222D02*
X933Y222D01*
X1251Y222D02*
X1258Y222D01*
X0Y221D02*
X7Y221D01*
X302Y221D02*
X306Y221D01*
X335Y221D02*
X337Y221D01*
X378Y221D02*
X381Y221D01*
X924Y221D02*
X933Y221D01*
X1251Y221D02*
X1258Y221D01*
X0Y220D02*
X7Y220D01*
X924Y220D02*
X933Y220D01*
X1251Y220D02*
X1258Y220D01*
X0Y219D02*
X7Y219D01*
X924Y219D02*
X933Y219D01*
X1251Y219D02*
X1258Y219D01*
X0Y218D02*
X7Y218D01*
X924Y218D02*
X933Y218D01*
X1251Y218D02*
X1258Y218D01*
X0Y217D02*
X7Y217D01*
X924Y217D02*
X933Y217D01*
X1251Y217D02*
X1258Y217D01*
X0Y216D02*
X7Y216D01*
X924Y216D02*
X933Y216D01*
X1251Y216D02*
X1258Y216D01*
X0Y215D02*
X7Y215D01*
X924Y215D02*
X933Y215D01*
X1251Y215D02*
X1258Y215D01*
X0Y214D02*
X7Y214D01*
X924Y214D02*
X933Y214D01*
X1251Y214D02*
X1258Y214D01*
X0Y213D02*
X7Y213D01*
X924Y213D02*
X933Y213D01*
X1251Y213D02*
X1258Y213D01*
X0Y212D02*
X7Y212D01*
X924Y212D02*
X933Y212D01*
X1251Y212D02*
X1258Y212D01*
X0Y211D02*
X7Y211D01*
X924Y211D02*
X933Y211D01*
X1251Y211D02*
X1258Y211D01*
X0Y210D02*
X7Y210D01*
X924Y210D02*
X933Y210D01*
X1251Y210D02*
X1258Y210D01*
X0Y209D02*
X7Y209D01*
X924Y209D02*
X933Y209D01*
X1251Y209D02*
X1258Y209D01*
X0Y208D02*
X7Y208D01*
X1251Y208D02*
X1258Y208D01*
X0Y207D02*
X7Y207D01*
X1251Y207D02*
X1258Y207D01*
X0Y206D02*
X7Y206D01*
X1251Y206D02*
X1258Y206D01*
X0Y205D02*
X7Y205D01*
X1251Y205D02*
X1258Y205D01*
X0Y204D02*
X7Y204D01*
X1251Y204D02*
X1258Y204D01*
X0Y203D02*
X7Y203D01*
X1251Y203D02*
X1258Y203D01*
X0Y202D02*
X7Y202D01*
X1251Y202D02*
X1258Y202D01*
X0Y201D02*
X7Y201D01*
X1251Y201D02*
X1258Y201D01*
X0Y200D02*
X7Y200D01*
X1251Y200D02*
X1258Y200D01*
X0Y199D02*
X7Y199D01*
X739Y199D02*
X745Y199D01*
X1251Y199D02*
X1258Y199D01*
X0Y198D02*
X7Y198D01*
X364Y198D02*
X376Y198D01*
X734Y198D02*
X751Y198D01*
X1251Y198D02*
X1258Y198D01*
X0Y197D02*
X7Y197D01*
X360Y197D02*
X380Y197D01*
X730Y197D02*
X754Y197D01*
X1251Y197D02*
X1258Y197D01*
X0Y196D02*
X7Y196D01*
X357Y196D02*
X382Y196D01*
X728Y196D02*
X756Y196D01*
X1251Y196D02*
X1258Y196D01*
X0Y195D02*
X7Y195D01*
X355Y195D02*
X385Y195D01*
X726Y195D02*
X758Y195D01*
X1251Y195D02*
X1258Y195D01*
X0Y194D02*
X7Y194D01*
X353Y194D02*
X386Y194D01*
X725Y194D02*
X760Y194D01*
X1251Y194D02*
X1258Y194D01*
X0Y193D02*
X7Y193D01*
X352Y193D02*
X388Y193D01*
X723Y193D02*
X761Y193D01*
X1251Y193D02*
X1258Y193D01*
X0Y192D02*
X7Y192D01*
X350Y192D02*
X389Y192D01*
X722Y192D02*
X762Y192D01*
X1251Y192D02*
X1258Y192D01*
X0Y191D02*
X7Y191D01*
X349Y191D02*
X369Y191D01*
X371Y191D02*
X390Y191D01*
X722Y191D02*
X736Y191D01*
X748Y191D02*
X762Y191D01*
X1251Y191D02*
X1258Y191D01*
X0Y190D02*
X7Y190D01*
X350Y190D02*
X362Y190D01*
X377Y190D02*
X390Y190D01*
X723Y190D02*
X733Y190D01*
X751Y190D02*
X762Y190D01*
X1251Y190D02*
X1258Y190D01*
X0Y189D02*
X7Y189D01*
X351Y189D02*
X360Y189D01*
X380Y189D02*
X389Y189D01*
X724Y189D02*
X731Y189D01*
X753Y189D02*
X761Y189D01*
X1251Y189D02*
X1258Y189D01*
X0Y188D02*
X7Y188D01*
X352Y188D02*
X358Y188D01*
X382Y188D02*
X388Y188D01*
X724Y188D02*
X729Y188D01*
X755Y188D02*
X760Y188D01*
X1251Y188D02*
X1258Y188D01*
X0Y187D02*
X7Y187D01*
X352Y187D02*
X356Y187D01*
X383Y187D02*
X387Y187D01*
X725Y187D02*
X727Y187D01*
X757Y187D02*
X759Y187D01*
X1251Y187D02*
X1258Y187D01*
X0Y186D02*
X7Y186D01*
X353Y186D02*
X355Y186D01*
X385Y186D02*
X387Y186D01*
X726Y186D02*
X726Y186D01*
X758Y186D02*
X759Y186D01*
X1251Y186D02*
X1258Y186D01*
X0Y185D02*
X7Y185D01*
X1251Y185D02*
X1258Y185D01*
X0Y184D02*
X7Y184D01*
X1251Y184D02*
X1258Y184D01*
X0Y183D02*
X7Y183D01*
X1251Y183D02*
X1258Y183D01*
X0Y182D02*
X7Y182D01*
X1251Y182D02*
X1258Y182D01*
X0Y181D02*
X7Y181D01*
X1251Y181D02*
X1258Y181D01*
X0Y180D02*
X7Y180D01*
X1251Y180D02*
X1258Y180D01*
X0Y179D02*
X7Y179D01*
X1251Y179D02*
X1258Y179D01*
X0Y178D02*
X7Y178D01*
X1251Y178D02*
X1258Y178D01*
X0Y177D02*
X7Y177D01*
X1251Y177D02*
X1258Y177D01*
X0Y176D02*
X7Y176D01*
X1251Y176D02*
X1258Y176D01*
X0Y175D02*
X7Y175D01*
X1251Y175D02*
X1258Y175D01*
X0Y174D02*
X7Y174D01*
X1251Y174D02*
X1258Y174D01*
X0Y173D02*
X7Y173D01*
X1251Y173D02*
X1258Y173D01*
X0Y172D02*
X7Y172D01*
X1251Y172D02*
X1258Y172D01*
X0Y171D02*
X7Y171D01*
X1251Y171D02*
X1258Y171D01*
X0Y170D02*
X7Y170D01*
X1251Y170D02*
X1258Y170D01*
X0Y169D02*
X7Y169D01*
X1251Y169D02*
X1258Y169D01*
X0Y168D02*
X7Y168D01*
X1251Y168D02*
X1258Y168D01*
X0Y167D02*
X7Y167D01*
X1251Y167D02*
X1258Y167D01*
X0Y166D02*
X7Y166D01*
X1251Y166D02*
X1258Y166D01*
X0Y165D02*
X7Y165D01*
X1251Y165D02*
X1258Y165D01*
X0Y164D02*
X7Y164D01*
X1251Y164D02*
X1258Y164D01*
X0Y163D02*
X7Y163D01*
X1251Y163D02*
X1258Y163D01*
X0Y162D02*
X7Y162D01*
X1251Y162D02*
X1258Y162D01*
X0Y161D02*
X7Y161D01*
X1251Y161D02*
X1258Y161D01*
X0Y160D02*
X7Y160D01*
X1251Y160D02*
X1258Y160D01*
X0Y159D02*
X7Y159D01*
X1251Y159D02*
X1258Y159D01*
X0Y158D02*
X7Y158D01*
X1251Y158D02*
X1258Y158D01*
X0Y157D02*
X7Y157D01*
X1251Y157D02*
X1258Y157D01*
X0Y156D02*
X7Y156D01*
X1251Y156D02*
X1258Y156D01*
X0Y155D02*
X7Y155D01*
X1251Y155D02*
X1258Y155D01*
X0Y154D02*
X7Y154D01*
X1251Y154D02*
X1258Y154D01*
X0Y153D02*
X7Y153D01*
X1251Y153D02*
X1258Y153D01*
X0Y152D02*
X7Y152D01*
X1251Y152D02*
X1258Y152D01*
X0Y151D02*
X7Y151D01*
X1251Y151D02*
X1258Y151D01*
X0Y150D02*
X7Y150D01*
X1251Y150D02*
X1258Y150D01*
X0Y149D02*
X7Y149D01*
X1251Y149D02*
X1258Y149D01*
X0Y148D02*
X7Y148D01*
X1251Y148D02*
X1258Y148D01*
X0Y147D02*
X7Y147D01*
X1251Y147D02*
X1258Y147D01*
X0Y146D02*
X7Y146D01*
X1251Y146D02*
X1258Y146D01*
X0Y145D02*
X7Y145D01*
X726Y145D02*
X726Y145D01*
X1251Y145D02*
X1258Y145D01*
X0Y144D02*
X7Y144D01*
X353Y144D02*
X354Y144D01*
X386Y144D02*
X386Y144D01*
X725Y144D02*
X727Y144D01*
X757Y144D02*
X759Y144D01*
X1251Y144D02*
X1258Y144D01*
X0Y143D02*
X7Y143D01*
X353Y143D02*
X356Y143D01*
X384Y143D02*
X387Y143D01*
X724Y143D02*
X729Y143D01*
X755Y143D02*
X760Y143D01*
X1251Y143D02*
X1258Y143D01*
X0Y142D02*
X7Y142D01*
X352Y142D02*
X357Y142D01*
X382Y142D02*
X388Y142D01*
X724Y142D02*
X731Y142D01*
X754Y142D02*
X761Y142D01*
X1251Y142D02*
X1258Y142D01*
X0Y141D02*
X7Y141D01*
X351Y141D02*
X359Y141D01*
X381Y141D02*
X389Y141D01*
X723Y141D02*
X733Y141D01*
X751Y141D02*
X761Y141D01*
X1251Y141D02*
X1258Y141D01*
X0Y140D02*
X7Y140D01*
X350Y140D02*
X361Y140D01*
X378Y140D02*
X390Y140D01*
X722Y140D02*
X736Y140D01*
X748Y140D02*
X762Y140D01*
X1251Y140D02*
X1258Y140D01*
X0Y139D02*
X7Y139D01*
X349Y139D02*
X365Y139D01*
X374Y139D02*
X390Y139D01*
X722Y139D02*
X762Y139D01*
X1251Y139D02*
X1258Y139D01*
X0Y138D02*
X7Y138D01*
X350Y138D02*
X390Y138D01*
X723Y138D02*
X761Y138D01*
X1251Y138D02*
X1258Y138D01*
X0Y137D02*
X7Y137D01*
X351Y137D02*
X388Y137D01*
X725Y137D02*
X760Y137D01*
X1251Y137D02*
X1258Y137D01*
X0Y136D02*
X7Y136D01*
X353Y136D02*
X387Y136D01*
X726Y136D02*
X758Y136D01*
X1251Y136D02*
X1258Y136D01*
X0Y135D02*
X7Y135D01*
X354Y135D02*
X385Y135D01*
X728Y135D02*
X756Y135D01*
X1251Y135D02*
X1258Y135D01*
X0Y134D02*
X7Y134D01*
X357Y134D02*
X383Y134D01*
X730Y134D02*
X754Y134D01*
X1251Y134D02*
X1258Y134D01*
X0Y133D02*
X7Y133D01*
X359Y133D02*
X381Y133D01*
X733Y133D02*
X751Y133D01*
X1251Y133D02*
X1258Y133D01*
X0Y132D02*
X7Y132D01*
X363Y132D02*
X377Y132D01*
X738Y132D02*
X746Y132D01*
X1251Y132D02*
X1258Y132D01*
X0Y131D02*
X7Y131D01*
X1251Y131D02*
X1258Y131D01*
X0Y130D02*
X7Y130D01*
X1251Y130D02*
X1258Y130D01*
X0Y129D02*
X7Y129D01*
X1251Y129D02*
X1258Y129D01*
X0Y128D02*
X7Y128D01*
X1251Y128D02*
X1258Y128D01*
X0Y127D02*
X7Y127D01*
X1251Y127D02*
X1258Y127D01*
X0Y126D02*
X7Y126D01*
X678Y126D02*
X686Y126D01*
X710Y126D02*
X723Y126D01*
X740Y126D02*
X753Y126D01*
X798Y126D02*
X815Y126D01*
X1251Y126D02*
X1258Y126D01*
X0Y125D02*
X7Y125D01*
X677Y125D02*
X688Y125D01*
X708Y125D02*
X725Y125D01*
X738Y125D02*
X755Y125D01*
X797Y125D02*
X816Y125D01*
X1251Y125D02*
X1258Y125D01*
X0Y124D02*
X7Y124D01*
X676Y124D02*
X688Y124D01*
X707Y124D02*
X726Y124D01*
X737Y124D02*
X756Y124D01*
X797Y124D02*
X817Y124D01*
X1251Y124D02*
X1258Y124D01*
X0Y123D02*
X7Y123D01*
X677Y123D02*
X688Y123D01*
X707Y123D02*
X726Y123D01*
X737Y123D02*
X756Y123D01*
X797Y123D02*
X816Y123D01*
X1251Y123D02*
X1258Y123D01*
X0Y122D02*
X7Y122D01*
X300Y122D02*
X310Y122D01*
X332Y122D02*
X345Y122D01*
X362Y122D02*
X375Y122D01*
X419Y122D02*
X437Y122D01*
X678Y122D02*
X688Y122D01*
X707Y122D02*
X726Y122D01*
X737Y122D02*
X756Y122D01*
X797Y122D02*
X815Y122D01*
X1251Y122D02*
X1258Y122D01*
X0Y121D02*
X7Y121D01*
X299Y121D02*
X310Y121D01*
X330Y121D02*
X347Y121D01*
X360Y121D02*
X377Y121D01*
X419Y121D02*
X439Y121D01*
X685Y121D02*
X688Y121D01*
X707Y121D02*
X710Y121D01*
X723Y121D02*
X726Y121D01*
X737Y121D02*
X740Y121D01*
X753Y121D02*
X756Y121D01*
X797Y121D02*
X800Y121D01*
X1251Y121D02*
X1258Y121D01*
X0Y120D02*
X7Y120D01*
X299Y120D02*
X310Y120D01*
X329Y120D02*
X348Y120D01*
X359Y120D02*
X378Y120D01*
X419Y120D02*
X439Y120D01*
X685Y120D02*
X688Y120D01*
X707Y120D02*
X710Y120D01*
X723Y120D02*
X726Y120D01*
X737Y120D02*
X740Y120D01*
X753Y120D02*
X756Y120D01*
X797Y120D02*
X800Y120D01*
X1251Y120D02*
X1258Y120D01*
X0Y119D02*
X7Y119D01*
X299Y119D02*
X310Y119D01*
X329Y119D02*
X348Y119D01*
X359Y119D02*
X378Y119D01*
X419Y119D02*
X438Y119D01*
X685Y119D02*
X688Y119D01*
X707Y119D02*
X710Y119D01*
X723Y119D02*
X726Y119D01*
X737Y119D02*
X740Y119D01*
X753Y119D02*
X756Y119D01*
X797Y119D02*
X800Y119D01*
X1251Y119D02*
X1258Y119D01*
X0Y118D02*
X7Y118D01*
X301Y118D02*
X310Y118D01*
X329Y118D02*
X348Y118D01*
X359Y118D02*
X379Y118D01*
X419Y118D02*
X437Y118D01*
X685Y118D02*
X688Y118D01*
X707Y118D02*
X710Y118D01*
X723Y118D02*
X726Y118D01*
X737Y118D02*
X740Y118D01*
X753Y118D02*
X756Y118D01*
X797Y118D02*
X800Y118D01*
X1251Y118D02*
X1258Y118D01*
X0Y117D02*
X7Y117D01*
X307Y117D02*
X310Y117D01*
X329Y117D02*
X332Y117D01*
X345Y117D02*
X349Y117D01*
X359Y117D02*
X362Y117D01*
X375Y117D02*
X379Y117D01*
X419Y117D02*
X422Y117D01*
X685Y117D02*
X688Y117D01*
X707Y117D02*
X710Y117D01*
X723Y117D02*
X726Y117D01*
X737Y117D02*
X740Y117D01*
X753Y117D02*
X756Y117D01*
X768Y117D02*
X769Y117D01*
X777Y117D02*
X781Y117D01*
X797Y117D02*
X800Y117D01*
X1251Y117D02*
X1258Y117D01*
X0Y116D02*
X7Y116D01*
X307Y116D02*
X310Y116D01*
X329Y116D02*
X332Y116D01*
X345Y116D02*
X349Y116D01*
X359Y116D02*
X362Y116D01*
X375Y116D02*
X379Y116D01*
X419Y116D02*
X422Y116D01*
X685Y116D02*
X688Y116D01*
X707Y116D02*
X710Y116D01*
X723Y116D02*
X726Y116D01*
X737Y116D02*
X740Y116D01*
X753Y116D02*
X756Y116D01*
X767Y116D02*
X770Y116D01*
X774Y116D02*
X783Y116D01*
X797Y116D02*
X800Y116D01*
X1251Y116D02*
X1258Y116D01*
X0Y115D02*
X7Y115D01*
X307Y115D02*
X310Y115D01*
X329Y115D02*
X332Y115D01*
X345Y115D02*
X349Y115D01*
X359Y115D02*
X362Y115D01*
X375Y115D02*
X379Y115D01*
X419Y115D02*
X422Y115D01*
X685Y115D02*
X688Y115D01*
X707Y115D02*
X710Y115D01*
X723Y115D02*
X726Y115D01*
X737Y115D02*
X740Y115D01*
X753Y115D02*
X756Y115D01*
X767Y115D02*
X770Y115D01*
X773Y115D02*
X784Y115D01*
X797Y115D02*
X812Y115D01*
X1251Y115D02*
X1258Y115D01*
X0Y114D02*
X7Y114D01*
X307Y114D02*
X310Y114D01*
X329Y114D02*
X332Y114D01*
X345Y114D02*
X349Y114D01*
X359Y114D02*
X362Y114D01*
X375Y114D02*
X379Y114D01*
X419Y114D02*
X422Y114D01*
X685Y114D02*
X688Y114D01*
X707Y114D02*
X710Y114D01*
X723Y114D02*
X726Y114D01*
X737Y114D02*
X740Y114D01*
X753Y114D02*
X756Y114D01*
X767Y114D02*
X785Y114D01*
X797Y114D02*
X812Y114D01*
X1009Y114D02*
X1012Y114D01*
X1033Y114D02*
X1036Y114D01*
X1064Y114D02*
X1080Y114D01*
X1107Y114D02*
X1124Y114D01*
X1251Y114D02*
X1258Y114D01*
X0Y113D02*
X7Y113D01*
X307Y113D02*
X310Y113D01*
X329Y113D02*
X332Y113D01*
X345Y113D02*
X349Y113D01*
X359Y113D02*
X362Y113D01*
X375Y113D02*
X379Y113D01*
X390Y113D02*
X391Y113D01*
X399Y113D02*
X404Y113D01*
X419Y113D02*
X422Y113D01*
X685Y113D02*
X688Y113D01*
X707Y113D02*
X710Y113D01*
X723Y113D02*
X726Y113D01*
X737Y113D02*
X740Y113D01*
X753Y113D02*
X756Y113D01*
X767Y113D02*
X777Y113D01*
X781Y113D02*
X786Y113D01*
X797Y113D02*
X812Y113D01*
X1008Y113D02*
X1013Y113D01*
X1032Y113D02*
X1037Y113D01*
X1062Y113D02*
X1081Y113D01*
X1106Y113D02*
X1124Y113D01*
X1251Y113D02*
X1258Y113D01*
X0Y112D02*
X7Y112D01*
X307Y112D02*
X310Y112D01*
X329Y112D02*
X332Y112D01*
X345Y112D02*
X349Y112D01*
X359Y112D02*
X362Y112D01*
X375Y112D02*
X379Y112D01*
X389Y112D02*
X392Y112D01*
X397Y112D02*
X406Y112D01*
X419Y112D02*
X422Y112D01*
X685Y112D02*
X688Y112D01*
X707Y112D02*
X710Y112D01*
X723Y112D02*
X726Y112D01*
X737Y112D02*
X740Y112D01*
X753Y112D02*
X756Y112D01*
X767Y112D02*
X775Y112D01*
X782Y112D02*
X786Y112D01*
X797Y112D02*
X812Y112D01*
X1008Y112D02*
X1013Y112D01*
X1032Y112D02*
X1037Y112D01*
X1061Y112D02*
X1081Y112D01*
X1104Y112D02*
X1125Y112D01*
X1251Y112D02*
X1258Y112D01*
X0Y111D02*
X7Y111D01*
X307Y111D02*
X310Y111D01*
X329Y111D02*
X332Y111D01*
X345Y111D02*
X349Y111D01*
X359Y111D02*
X362Y111D01*
X375Y111D02*
X379Y111D01*
X389Y111D02*
X392Y111D01*
X395Y111D02*
X407Y111D01*
X419Y111D02*
X434Y111D01*
X685Y111D02*
X688Y111D01*
X707Y111D02*
X710Y111D01*
X723Y111D02*
X726Y111D01*
X737Y111D02*
X740Y111D01*
X753Y111D02*
X756Y111D01*
X767Y111D02*
X773Y111D01*
X783Y111D02*
X786Y111D01*
X797Y111D02*
X800Y111D01*
X1008Y111D02*
X1013Y111D01*
X1032Y111D02*
X1037Y111D01*
X1060Y111D02*
X1081Y111D01*
X1104Y111D02*
X1124Y111D01*
X1251Y111D02*
X1258Y111D01*
X0Y110D02*
X7Y110D01*
X307Y110D02*
X310Y110D01*
X329Y110D02*
X332Y110D01*
X345Y110D02*
X349Y110D01*
X359Y110D02*
X362Y110D01*
X375Y110D02*
X379Y110D01*
X389Y110D02*
X407Y110D01*
X419Y110D02*
X435Y110D01*
X685Y110D02*
X688Y110D01*
X707Y110D02*
X710Y110D01*
X723Y110D02*
X726Y110D01*
X737Y110D02*
X740Y110D01*
X753Y110D02*
X756Y110D01*
X767Y110D02*
X772Y110D01*
X783Y110D02*
X786Y110D01*
X797Y110D02*
X800Y110D01*
X1008Y110D02*
X1013Y110D01*
X1032Y110D02*
X1037Y110D01*
X1059Y110D02*
X1080Y110D01*
X1103Y110D02*
X1124Y110D01*
X1251Y110D02*
X1258Y110D01*
X0Y109D02*
X7Y109D01*
X307Y109D02*
X310Y109D01*
X329Y109D02*
X332Y109D01*
X345Y109D02*
X349Y109D01*
X359Y109D02*
X362Y109D01*
X375Y109D02*
X379Y109D01*
X389Y109D02*
X399Y109D01*
X403Y109D02*
X408Y109D01*
X419Y109D02*
X435Y109D01*
X685Y109D02*
X688Y109D01*
X707Y109D02*
X710Y109D01*
X723Y109D02*
X726Y109D01*
X737Y109D02*
X740Y109D01*
X753Y109D02*
X756Y109D01*
X767Y109D02*
X770Y109D01*
X783Y109D02*
X786Y109D01*
X797Y109D02*
X800Y109D01*
X1008Y109D02*
X1013Y109D01*
X1032Y109D02*
X1037Y109D01*
X1059Y109D02*
X1079Y109D01*
X1103Y109D02*
X1122Y109D01*
X1251Y109D02*
X1258Y109D01*
X0Y108D02*
X7Y108D01*
X307Y108D02*
X310Y108D01*
X329Y108D02*
X332Y108D01*
X345Y108D02*
X349Y108D01*
X359Y108D02*
X362Y108D01*
X375Y108D02*
X379Y108D01*
X389Y108D02*
X397Y108D01*
X405Y108D02*
X408Y108D01*
X419Y108D02*
X434Y108D01*
X685Y108D02*
X688Y108D01*
X694Y108D02*
X695Y108D01*
X707Y108D02*
X710Y108D01*
X723Y108D02*
X726Y108D01*
X737Y108D02*
X740Y108D01*
X753Y108D02*
X756Y108D01*
X767Y108D02*
X770Y108D01*
X783Y108D02*
X786Y108D01*
X797Y108D02*
X800Y108D01*
X1008Y108D02*
X1013Y108D01*
X1032Y108D02*
X1037Y108D01*
X1058Y108D02*
X1065Y108D01*
X1102Y108D02*
X1108Y108D01*
X1251Y108D02*
X1258Y108D01*
X0Y107D02*
X7Y107D01*
X307Y107D02*
X310Y107D01*
X329Y107D02*
X332Y107D01*
X345Y107D02*
X349Y107D01*
X359Y107D02*
X362Y107D01*
X375Y107D02*
X379Y107D01*
X389Y107D02*
X396Y107D01*
X405Y107D02*
X408Y107D01*
X419Y107D02*
X422Y107D01*
X685Y107D02*
X688Y107D01*
X693Y107D02*
X696Y107D01*
X707Y107D02*
X710Y107D01*
X723Y107D02*
X726Y107D01*
X737Y107D02*
X740Y107D01*
X753Y107D02*
X756Y107D01*
X767Y107D02*
X770Y107D01*
X783Y107D02*
X786Y107D01*
X797Y107D02*
X800Y107D01*
X1008Y107D02*
X1013Y107D01*
X1032Y107D02*
X1037Y107D01*
X1058Y107D02*
X1064Y107D01*
X1102Y107D02*
X1108Y107D01*
X1251Y107D02*
X1258Y107D01*
X0Y106D02*
X7Y106D01*
X307Y106D02*
X310Y106D01*
X329Y106D02*
X332Y106D01*
X345Y106D02*
X349Y106D01*
X359Y106D02*
X362Y106D01*
X375Y106D02*
X379Y106D01*
X389Y106D02*
X394Y106D01*
X405Y106D02*
X408Y106D01*
X419Y106D02*
X422Y106D01*
X685Y106D02*
X688Y106D01*
X693Y106D02*
X696Y106D01*
X707Y106D02*
X710Y106D01*
X723Y106D02*
X726Y106D01*
X737Y106D02*
X740Y106D01*
X753Y106D02*
X756Y106D01*
X767Y106D02*
X770Y106D01*
X783Y106D02*
X786Y106D01*
X797Y106D02*
X800Y106D01*
X1008Y106D02*
X1013Y106D01*
X1032Y106D02*
X1037Y106D01*
X1057Y106D02*
X1063Y106D01*
X1101Y106D02*
X1107Y106D01*
X1251Y106D02*
X1258Y106D01*
X0Y105D02*
X7Y105D01*
X307Y105D02*
X310Y105D01*
X329Y105D02*
X332Y105D01*
X345Y105D02*
X349Y105D01*
X359Y105D02*
X362Y105D01*
X375Y105D02*
X379Y105D01*
X389Y105D02*
X393Y105D01*
X405Y105D02*
X408Y105D01*
X419Y105D02*
X422Y105D01*
X685Y105D02*
X688Y105D01*
X693Y105D02*
X696Y105D01*
X707Y105D02*
X710Y105D01*
X723Y105D02*
X726Y105D01*
X737Y105D02*
X740Y105D01*
X753Y105D02*
X756Y105D01*
X767Y105D02*
X770Y105D01*
X783Y105D02*
X786Y105D01*
X797Y105D02*
X800Y105D01*
X1008Y105D02*
X1013Y105D01*
X1032Y105D02*
X1037Y105D01*
X1057Y105D02*
X1063Y105D01*
X1101Y105D02*
X1107Y105D01*
X1251Y105D02*
X1258Y105D01*
X0Y104D02*
X7Y104D01*
X307Y104D02*
X310Y104D01*
X316Y104D02*
X318Y104D01*
X329Y104D02*
X332Y104D01*
X345Y104D02*
X349Y104D01*
X359Y104D02*
X362Y104D01*
X375Y104D02*
X379Y104D01*
X389Y104D02*
X392Y104D01*
X405Y104D02*
X408Y104D01*
X419Y104D02*
X422Y104D01*
X685Y104D02*
X688Y104D01*
X693Y104D02*
X696Y104D01*
X707Y104D02*
X710Y104D01*
X723Y104D02*
X726Y104D01*
X737Y104D02*
X740Y104D01*
X753Y104D02*
X756Y104D01*
X767Y104D02*
X770Y104D01*
X783Y104D02*
X786Y104D01*
X797Y104D02*
X800Y104D01*
X1008Y104D02*
X1013Y104D01*
X1032Y104D02*
X1037Y104D01*
X1056Y104D02*
X1062Y104D01*
X1100Y104D02*
X1106Y104D01*
X1251Y104D02*
X1258Y104D01*
X0Y103D02*
X7Y103D01*
X307Y103D02*
X310Y103D01*
X315Y103D02*
X318Y103D01*
X329Y103D02*
X332Y103D01*
X345Y103D02*
X349Y103D01*
X359Y103D02*
X362Y103D01*
X375Y103D02*
X379Y103D01*
X389Y103D02*
X392Y103D01*
X405Y103D02*
X408Y103D01*
X419Y103D02*
X422Y103D01*
X685Y103D02*
X688Y103D01*
X693Y103D02*
X696Y103D01*
X707Y103D02*
X710Y103D01*
X723Y103D02*
X726Y103D01*
X737Y103D02*
X740Y103D01*
X753Y103D02*
X756Y103D01*
X767Y103D02*
X770Y103D01*
X783Y103D02*
X786Y103D01*
X797Y103D02*
X800Y103D01*
X1008Y103D02*
X1013Y103D01*
X1032Y103D02*
X1037Y103D01*
X1056Y103D02*
X1062Y103D01*
X1100Y103D02*
X1106Y103D01*
X1251Y103D02*
X1258Y103D01*
X0Y102D02*
X7Y102D01*
X307Y102D02*
X310Y102D01*
X315Y102D02*
X318Y102D01*
X329Y102D02*
X332Y102D01*
X345Y102D02*
X349Y102D01*
X359Y102D02*
X362Y102D01*
X375Y102D02*
X379Y102D01*
X389Y102D02*
X392Y102D01*
X405Y102D02*
X408Y102D01*
X419Y102D02*
X422Y102D01*
X685Y102D02*
X688Y102D01*
X693Y102D02*
X696Y102D01*
X707Y102D02*
X710Y102D01*
X723Y102D02*
X726Y102D01*
X737Y102D02*
X740Y102D01*
X753Y102D02*
X756Y102D01*
X767Y102D02*
X770Y102D01*
X783Y102D02*
X786Y102D01*
X797Y102D02*
X800Y102D01*
X1008Y102D02*
X1013Y102D01*
X1032Y102D02*
X1037Y102D01*
X1055Y102D02*
X1061Y102D01*
X1099Y102D02*
X1105Y102D01*
X1251Y102D02*
X1258Y102D01*
X0Y101D02*
X7Y101D01*
X307Y101D02*
X310Y101D01*
X315Y101D02*
X318Y101D01*
X329Y101D02*
X332Y101D01*
X345Y101D02*
X349Y101D01*
X359Y101D02*
X362Y101D01*
X375Y101D02*
X379Y101D01*
X389Y101D02*
X392Y101D01*
X405Y101D02*
X408Y101D01*
X419Y101D02*
X422Y101D01*
X685Y101D02*
X688Y101D01*
X693Y101D02*
X696Y101D01*
X707Y101D02*
X710Y101D01*
X723Y101D02*
X726Y101D01*
X737Y101D02*
X740Y101D01*
X753Y101D02*
X756Y101D01*
X767Y101D02*
X770Y101D01*
X783Y101D02*
X786Y101D01*
X797Y101D02*
X800Y101D01*
X1008Y101D02*
X1014Y101D01*
X1032Y101D02*
X1037Y101D01*
X1055Y101D02*
X1061Y101D01*
X1099Y101D02*
X1105Y101D01*
X1251Y101D02*
X1258Y101D01*
X0Y100D02*
X7Y100D01*
X307Y100D02*
X310Y100D01*
X315Y100D02*
X318Y100D01*
X329Y100D02*
X332Y100D01*
X345Y100D02*
X349Y100D01*
X359Y100D02*
X362Y100D01*
X375Y100D02*
X379Y100D01*
X389Y100D02*
X392Y100D01*
X405Y100D02*
X408Y100D01*
X419Y100D02*
X422Y100D01*
X685Y100D02*
X688Y100D01*
X693Y100D02*
X696Y100D01*
X707Y100D02*
X710Y100D01*
X723Y100D02*
X726Y100D01*
X737Y100D02*
X740Y100D01*
X753Y100D02*
X756Y100D01*
X767Y100D02*
X770Y100D01*
X783Y100D02*
X786Y100D01*
X797Y100D02*
X800Y100D01*
X1008Y100D02*
X1014Y100D01*
X1031Y100D02*
X1037Y100D01*
X1054Y100D02*
X1060Y100D01*
X1098Y100D02*
X1104Y100D01*
X1251Y100D02*
X1258Y100D01*
X0Y99D02*
X7Y99D01*
X307Y99D02*
X310Y99D01*
X315Y99D02*
X318Y99D01*
X329Y99D02*
X332Y99D01*
X345Y99D02*
X349Y99D01*
X359Y99D02*
X362Y99D01*
X375Y99D02*
X379Y99D01*
X389Y99D02*
X392Y99D01*
X405Y99D02*
X408Y99D01*
X419Y99D02*
X422Y99D01*
X685Y99D02*
X688Y99D01*
X693Y99D02*
X696Y99D01*
X707Y99D02*
X710Y99D01*
X723Y99D02*
X726Y99D01*
X737Y99D02*
X740Y99D01*
X753Y99D02*
X756Y99D01*
X767Y99D02*
X770Y99D01*
X783Y99D02*
X786Y99D01*
X797Y99D02*
X800Y99D01*
X1009Y99D02*
X1014Y99D01*
X1031Y99D02*
X1036Y99D01*
X1054Y99D02*
X1060Y99D01*
X1098Y99D02*
X1104Y99D01*
X1251Y99D02*
X1258Y99D01*
X0Y98D02*
X7Y98D01*
X307Y98D02*
X310Y98D01*
X315Y98D02*
X318Y98D01*
X329Y98D02*
X332Y98D01*
X345Y98D02*
X349Y98D01*
X359Y98D02*
X362Y98D01*
X375Y98D02*
X379Y98D01*
X389Y98D02*
X392Y98D01*
X405Y98D02*
X408Y98D01*
X419Y98D02*
X422Y98D01*
X684Y98D02*
X688Y98D01*
X693Y98D02*
X696Y98D01*
X707Y98D02*
X710Y98D01*
X723Y98D02*
X726Y98D01*
X737Y98D02*
X740Y98D01*
X753Y98D02*
X756Y98D01*
X767Y98D02*
X770Y98D01*
X783Y98D02*
X786Y98D01*
X797Y98D02*
X800Y98D01*
X1009Y98D02*
X1015Y98D01*
X1030Y98D02*
X1036Y98D01*
X1053Y98D02*
X1059Y98D01*
X1097Y98D02*
X1103Y98D01*
X1251Y98D02*
X1258Y98D01*
X0Y97D02*
X7Y97D01*
X307Y97D02*
X310Y97D01*
X315Y97D02*
X318Y97D01*
X329Y97D02*
X332Y97D01*
X345Y97D02*
X349Y97D01*
X359Y97D02*
X362Y97D01*
X375Y97D02*
X379Y97D01*
X389Y97D02*
X392Y97D01*
X405Y97D02*
X409Y97D01*
X419Y97D02*
X422Y97D01*
X677Y97D02*
X696Y97D01*
X707Y97D02*
X726Y97D01*
X737Y97D02*
X756Y97D01*
X767Y97D02*
X770Y97D01*
X783Y97D02*
X786Y97D01*
X797Y97D02*
X800Y97D01*
X1009Y97D02*
X1015Y97D01*
X1030Y97D02*
X1036Y97D01*
X1053Y97D02*
X1059Y97D01*
X1097Y97D02*
X1102Y97D01*
X1251Y97D02*
X1258Y97D01*
X0Y96D02*
X7Y96D01*
X307Y96D02*
X310Y96D01*
X315Y96D02*
X318Y96D01*
X329Y96D02*
X332Y96D01*
X345Y96D02*
X349Y96D01*
X359Y96D02*
X362Y96D01*
X375Y96D02*
X379Y96D01*
X389Y96D02*
X392Y96D01*
X405Y96D02*
X409Y96D01*
X419Y96D02*
X422Y96D01*
X676Y96D02*
X696Y96D01*
X707Y96D02*
X726Y96D01*
X737Y96D02*
X756Y96D01*
X767Y96D02*
X770Y96D01*
X783Y96D02*
X786Y96D01*
X797Y96D02*
X800Y96D01*
X1010Y96D02*
X1015Y96D01*
X1030Y96D02*
X1035Y96D01*
X1053Y96D02*
X1058Y96D01*
X1096Y96D02*
X1102Y96D01*
X1251Y96D02*
X1258Y96D01*
X0Y95D02*
X7Y95D01*
X307Y95D02*
X310Y95D01*
X315Y95D02*
X318Y95D01*
X329Y95D02*
X332Y95D01*
X345Y95D02*
X349Y95D01*
X359Y95D02*
X362Y95D01*
X375Y95D02*
X379Y95D01*
X389Y95D02*
X392Y95D01*
X405Y95D02*
X409Y95D01*
X419Y95D02*
X422Y95D01*
X677Y95D02*
X696Y95D01*
X708Y95D02*
X725Y95D01*
X738Y95D02*
X755Y95D01*
X767Y95D02*
X770Y95D01*
X783Y95D02*
X786Y95D01*
X797Y95D02*
X800Y95D01*
X1010Y95D02*
X1016Y95D01*
X1029Y95D02*
X1035Y95D01*
X1052Y95D02*
X1058Y95D01*
X1096Y95D02*
X1101Y95D01*
X1251Y95D02*
X1258Y95D01*
X0Y94D02*
X7Y94D01*
X307Y94D02*
X310Y94D01*
X315Y94D02*
X318Y94D01*
X329Y94D02*
X332Y94D01*
X345Y94D02*
X348Y94D01*
X359Y94D02*
X362Y94D01*
X375Y94D02*
X379Y94D01*
X389Y94D02*
X392Y94D01*
X405Y94D02*
X409Y94D01*
X419Y94D02*
X422Y94D01*
X677Y94D02*
X695Y94D01*
X709Y94D02*
X724Y94D01*
X739Y94D02*
X754Y94D01*
X768Y94D02*
X769Y94D01*
X784Y94D02*
X785Y94D01*
X798Y94D02*
X799Y94D01*
X1011Y94D02*
X1016Y94D01*
X1029Y94D02*
X1034Y94D01*
X1052Y94D02*
X1057Y94D01*
X1096Y94D02*
X1101Y94D01*
X1251Y94D02*
X1258Y94D01*
X0Y93D02*
X7Y93D01*
X299Y93D02*
X318Y93D01*
X329Y93D02*
X348Y93D01*
X359Y93D02*
X378Y93D01*
X389Y93D02*
X392Y93D01*
X405Y93D02*
X409Y93D01*
X419Y93D02*
X422Y93D01*
X1011Y93D02*
X1017Y93D01*
X1028Y93D02*
X1034Y93D01*
X1052Y93D02*
X1057Y93D01*
X1096Y93D02*
X1101Y93D01*
X1251Y93D02*
X1258Y93D01*
X0Y92D02*
X7Y92D01*
X299Y92D02*
X318Y92D01*
X329Y92D02*
X348Y92D01*
X359Y92D02*
X378Y92D01*
X389Y92D02*
X392Y92D01*
X405Y92D02*
X409Y92D01*
X419Y92D02*
X422Y92D01*
X1011Y92D02*
X1017Y92D01*
X1028Y92D02*
X1034Y92D01*
X1052Y92D02*
X1057Y92D01*
X1096Y92D02*
X1101Y92D01*
X1251Y92D02*
X1258Y92D01*
X0Y91D02*
X7Y91D01*
X299Y91D02*
X318Y91D01*
X330Y91D02*
X347Y91D01*
X360Y91D02*
X377Y91D01*
X389Y91D02*
X392Y91D01*
X406Y91D02*
X408Y91D01*
X419Y91D02*
X422Y91D01*
X1012Y91D02*
X1017Y91D01*
X1028Y91D02*
X1033Y91D01*
X1052Y91D02*
X1057Y91D01*
X1096Y91D02*
X1101Y91D01*
X1251Y91D02*
X1258Y91D01*
X0Y90D02*
X7Y90D01*
X300Y90D02*
X317Y90D01*
X331Y90D02*
X346Y90D01*
X362Y90D02*
X376Y90D01*
X390Y90D02*
X391Y90D01*
X407Y90D02*
X408Y90D01*
X420Y90D02*
X421Y90D01*
X1012Y90D02*
X1018Y90D01*
X1027Y90D02*
X1033Y90D01*
X1052Y90D02*
X1057Y90D01*
X1096Y90D02*
X1101Y90D01*
X1251Y90D02*
X1258Y90D01*
X0Y89D02*
X7Y89D01*
X1013Y89D02*
X1018Y89D01*
X1027Y89D02*
X1032Y89D01*
X1052Y89D02*
X1057Y89D01*
X1096Y89D02*
X1101Y89D01*
X1251Y89D02*
X1258Y89D01*
X0Y88D02*
X7Y88D01*
X1013Y88D02*
X1019Y88D01*
X1026Y88D02*
X1032Y88D01*
X1052Y88D02*
X1058Y88D01*
X1096Y88D02*
X1101Y88D01*
X1251Y88D02*
X1258Y88D01*
X0Y87D02*
X7Y87D01*
X1013Y87D02*
X1019Y87D01*
X1026Y87D02*
X1032Y87D01*
X1052Y87D02*
X1058Y87D01*
X1096Y87D02*
X1102Y87D01*
X1251Y87D02*
X1258Y87D01*
X0Y86D02*
X7Y86D01*
X1014Y86D02*
X1019Y86D01*
X1026Y86D02*
X1031Y86D01*
X1053Y86D02*
X1059Y86D01*
X1097Y86D02*
X1102Y86D01*
X1251Y86D02*
X1258Y86D01*
X0Y85D02*
X7Y85D01*
X1014Y85D02*
X1020Y85D01*
X1025Y85D02*
X1031Y85D01*
X1053Y85D02*
X1059Y85D01*
X1097Y85D02*
X1103Y85D01*
X1251Y85D02*
X1258Y85D01*
X0Y84D02*
X7Y84D01*
X1015Y84D02*
X1020Y84D01*
X1025Y84D02*
X1030Y84D01*
X1054Y84D02*
X1060Y84D01*
X1097Y84D02*
X1103Y84D01*
X1251Y84D02*
X1258Y84D01*
X0Y83D02*
X7Y83D01*
X1015Y83D02*
X1021Y83D01*
X1024Y83D02*
X1030Y83D01*
X1054Y83D02*
X1060Y83D01*
X1098Y83D02*
X1104Y83D01*
X1251Y83D02*
X1258Y83D01*
X0Y82D02*
X7Y82D01*
X1015Y82D02*
X1021Y82D01*
X1024Y82D02*
X1030Y82D01*
X1055Y82D02*
X1061Y82D01*
X1098Y82D02*
X1104Y82D01*
X1251Y82D02*
X1258Y82D01*
X0Y81D02*
X7Y81D01*
X695Y81D02*
X701Y81D01*
X1016Y81D02*
X1021Y81D01*
X1024Y81D02*
X1029Y81D01*
X1055Y81D02*
X1061Y81D01*
X1099Y81D02*
X1105Y81D01*
X1251Y81D02*
X1258Y81D01*
X0Y80D02*
X7Y80D01*
X694Y80D02*
X702Y80D01*
X1016Y80D02*
X1029Y80D01*
X1056Y80D02*
X1062Y80D01*
X1099Y80D02*
X1105Y80D01*
X1251Y80D02*
X1258Y80D01*
X0Y79D02*
X7Y79D01*
X384Y79D02*
X402Y79D01*
X559Y79D02*
X577Y79D01*
X694Y79D02*
X702Y79D01*
X1016Y79D02*
X1029Y79D01*
X1056Y79D02*
X1062Y79D01*
X1100Y79D02*
X1106Y79D01*
X1251Y79D02*
X1258Y79D01*
X0Y78D02*
X7Y78D01*
X382Y78D02*
X404Y78D01*
X557Y78D02*
X579Y78D01*
X694Y78D02*
X702Y78D01*
X1017Y78D02*
X1028Y78D01*
X1057Y78D02*
X1063Y78D01*
X1100Y78D02*
X1106Y78D01*
X1251Y78D02*
X1258Y78D01*
X0Y77D02*
X7Y77D01*
X381Y77D02*
X405Y77D01*
X556Y77D02*
X580Y77D01*
X694Y77D02*
X702Y77D01*
X1017Y77D02*
X1028Y77D01*
X1057Y77D02*
X1063Y77D01*
X1101Y77D02*
X1107Y77D01*
X1251Y77D02*
X1258Y77D01*
X0Y76D02*
X7Y76D01*
X380Y76D02*
X406Y76D01*
X555Y76D02*
X581Y76D01*
X605Y76D02*
X608Y76D01*
X694Y76D02*
X702Y76D01*
X1018Y76D02*
X1027Y76D01*
X1058Y76D02*
X1064Y76D01*
X1101Y76D02*
X1107Y76D01*
X1251Y76D02*
X1258Y76D01*
X0Y75D02*
X7Y75D01*
X379Y75D02*
X407Y75D01*
X554Y75D02*
X582Y75D01*
X604Y75D02*
X608Y75D01*
X694Y75D02*
X702Y75D01*
X1018Y75D02*
X1027Y75D01*
X1058Y75D02*
X1064Y75D01*
X1102Y75D02*
X1108Y75D01*
X1251Y75D02*
X1258Y75D01*
X0Y74D02*
X7Y74D01*
X379Y74D02*
X407Y74D01*
X554Y74D02*
X582Y74D01*
X604Y74D02*
X609Y74D01*
X695Y74D02*
X701Y74D01*
X1018Y74D02*
X1027Y74D01*
X1059Y74D02*
X1066Y74D01*
X1103Y74D02*
X1109Y74D01*
X1251Y74D02*
X1258Y74D01*
X0Y73D02*
X7Y73D01*
X379Y73D02*
X384Y73D01*
X401Y73D02*
X408Y73D01*
X554Y73D02*
X559Y73D01*
X577Y73D02*
X583Y73D01*
X604Y73D02*
X609Y73D01*
X1019Y73D02*
X1026Y73D01*
X1059Y73D02*
X1080Y73D01*
X1103Y73D02*
X1124Y73D01*
X1251Y73D02*
X1258Y73D01*
X0Y72D02*
X7Y72D01*
X379Y72D02*
X384Y72D01*
X403Y72D02*
X408Y72D01*
X554Y72D02*
X559Y72D01*
X578Y72D02*
X583Y72D01*
X604Y72D02*
X609Y72D01*
X1019Y72D02*
X1026Y72D01*
X1060Y72D02*
X1081Y72D01*
X1104Y72D02*
X1124Y72D01*
X1251Y72D02*
X1258Y72D01*
X0Y71D02*
X7Y71D01*
X379Y71D02*
X385Y71D01*
X403Y71D02*
X408Y71D01*
X554Y71D02*
X560Y71D01*
X578Y71D02*
X583Y71D01*
X604Y71D02*
X609Y71D01*
X1020Y71D02*
X1025Y71D01*
X1061Y71D02*
X1081Y71D01*
X1104Y71D02*
X1125Y71D01*
X1251Y71D02*
X1258Y71D01*
X0Y70D02*
X7Y70D01*
X379Y70D02*
X386Y70D01*
X403Y70D02*
X408Y70D01*
X554Y70D02*
X561Y70D01*
X578Y70D02*
X583Y70D01*
X604Y70D02*
X609Y70D01*
X1020Y70D02*
X1025Y70D01*
X1062Y70D02*
X1081Y70D01*
X1105Y70D02*
X1124Y70D01*
X1251Y70D02*
X1258Y70D01*
X0Y69D02*
X7Y69D01*
X380Y69D02*
X386Y69D01*
X404Y69D02*
X407Y69D01*
X555Y69D02*
X561Y69D01*
X579Y69D02*
X582Y69D01*
X604Y69D02*
X609Y69D01*
X1021Y69D02*
X1024Y69D01*
X1063Y69D02*
X1080Y69D01*
X1107Y69D02*
X1124Y69D01*
X1251Y69D02*
X1258Y69D01*
X0Y68D02*
X7Y68D01*
X380Y68D02*
X387Y68D01*
X555Y68D02*
X562Y68D01*
X604Y68D02*
X609Y68D01*
X1022Y68D02*
X1023Y68D01*
X1066Y68D02*
X1079Y68D01*
X1109Y68D02*
X1123Y68D01*
X1251Y68D02*
X1258Y68D01*
X0Y67D02*
X7Y67D01*
X381Y67D02*
X388Y67D01*
X556Y67D02*
X563Y67D01*
X604Y67D02*
X609Y67D01*
X730Y67D02*
X733Y67D01*
X740Y67D02*
X747Y67D01*
X774Y67D02*
X777Y67D01*
X783Y67D02*
X791Y67D01*
X1251Y67D02*
X1258Y67D01*
X0Y66D02*
X7Y66D01*
X382Y66D02*
X389Y66D01*
X424Y66D02*
X426Y66D01*
X448Y66D02*
X450Y66D01*
X468Y66D02*
X470Y66D01*
X480Y66D02*
X489Y66D01*
X521Y66D02*
X538Y66D01*
X557Y66D02*
X564Y66D01*
X599Y66D02*
X622Y66D01*
X643Y66D02*
X645Y66D01*
X655Y66D02*
X664Y66D01*
X690Y66D02*
X701Y66D01*
X729Y66D02*
X734Y66D01*
X738Y66D02*
X749Y66D01*
X773Y66D02*
X777Y66D01*
X782Y66D02*
X793Y66D01*
X825Y66D02*
X837Y66D01*
X862Y66D02*
X864Y66D01*
X873Y66D02*
X883Y66D01*
X1251Y66D02*
X1258Y66D01*
X0Y65D02*
X7Y65D01*
X383Y65D02*
X389Y65D01*
X423Y65D02*
X427Y65D01*
X447Y65D02*
X451Y65D01*
X467Y65D02*
X471Y65D01*
X478Y65D02*
X491Y65D01*
X519Y65D02*
X539Y65D01*
X558Y65D02*
X565Y65D01*
X598Y65D02*
X623Y65D01*
X642Y65D02*
X646Y65D01*
X653Y65D02*
X666Y65D01*
X689Y65D02*
X702Y65D01*
X729Y65D02*
X734Y65D01*
X737Y65D02*
X750Y65D01*
X773Y65D02*
X778Y65D01*
X781Y65D02*
X794Y65D01*
X823Y65D02*
X839Y65D01*
X861Y65D02*
X865Y65D01*
X872Y65D02*
X885Y65D01*
X1251Y65D02*
X1258Y65D01*
X0Y64D02*
X7Y64D01*
X383Y64D02*
X390Y64D01*
X423Y64D02*
X428Y64D01*
X447Y64D02*
X452Y64D01*
X466Y64D02*
X471Y64D01*
X477Y64D02*
X492Y64D01*
X518Y64D02*
X539Y64D01*
X558Y64D02*
X565Y64D01*
X598Y64D02*
X624Y64D01*
X641Y64D02*
X646Y64D01*
X652Y64D02*
X668Y64D01*
X688Y64D02*
X702Y64D01*
X729Y64D02*
X734Y64D01*
X736Y64D02*
X751Y64D01*
X773Y64D02*
X778Y64D01*
X780Y64D02*
X795Y64D01*
X821Y64D02*
X841Y64D01*
X860Y64D02*
X865Y64D01*
X871Y64D02*
X886Y64D01*
X1251Y64D02*
X1258Y64D01*
X0Y63D02*
X7Y63D01*
X384Y63D02*
X391Y63D01*
X423Y63D02*
X428Y63D01*
X446Y63D02*
X452Y63D01*
X466Y63D02*
X471Y63D01*
X475Y63D02*
X493Y63D01*
X517Y63D02*
X539Y63D01*
X559Y63D02*
X566Y63D01*
X598Y63D02*
X624Y63D01*
X641Y63D02*
X646Y63D01*
X651Y63D02*
X668Y63D01*
X688Y63D02*
X702Y63D01*
X729Y63D02*
X753Y63D01*
X773Y63D02*
X796Y63D01*
X820Y63D02*
X842Y63D01*
X860Y63D02*
X865Y63D01*
X870Y63D02*
X887Y63D01*
X1251Y63D02*
X1258Y63D01*
X0Y62D02*
X7Y62D01*
X385Y62D02*
X392Y62D01*
X423Y62D02*
X428Y62D01*
X446Y62D02*
X452Y62D01*
X466Y62D02*
X471Y62D01*
X473Y62D02*
X493Y62D01*
X516Y62D02*
X539Y62D01*
X560Y62D02*
X567Y62D01*
X598Y62D02*
X623Y62D01*
X641Y62D02*
X646Y62D01*
X650Y62D02*
X669Y62D01*
X688Y62D02*
X702Y62D01*
X729Y62D02*
X754Y62D01*
X773Y62D02*
X798Y62D01*
X819Y62D02*
X843Y62D01*
X860Y62D02*
X865Y62D01*
X869Y62D02*
X888Y62D01*
X1251Y62D02*
X1258Y62D01*
X0Y61D02*
X7Y61D01*
X386Y61D02*
X393Y61D01*
X423Y61D02*
X428Y61D01*
X446Y61D02*
X452Y61D01*
X466Y61D02*
X494Y61D01*
X514Y61D02*
X538Y61D01*
X561Y61D02*
X568Y61D01*
X599Y61D02*
X622Y61D01*
X641Y61D02*
X646Y61D01*
X649Y61D02*
X670Y61D01*
X689Y61D02*
X702Y61D01*
X729Y61D02*
X741Y61D01*
X746Y61D02*
X755Y61D01*
X773Y61D02*
X784Y61D01*
X790Y61D02*
X799Y61D01*
X818Y61D02*
X844Y61D01*
X860Y61D02*
X865Y61D01*
X868Y61D02*
X888Y61D01*
X1251Y61D02*
X1258Y61D01*
X0Y60D02*
X7Y60D01*
X387Y60D02*
X393Y60D01*
X423Y60D02*
X428Y60D01*
X446Y60D02*
X452Y60D01*
X466Y60D02*
X481Y60D01*
X488Y60D02*
X494Y60D01*
X513Y60D02*
X522Y60D01*
X562Y60D02*
X568Y60D01*
X603Y60D02*
X609Y60D01*
X641Y60D02*
X656Y60D01*
X664Y60D02*
X670Y60D01*
X697Y60D02*
X702Y60D01*
X729Y60D02*
X739Y60D01*
X748Y60D02*
X756Y60D01*
X773Y60D02*
X783Y60D01*
X791Y60D02*
X799Y60D01*
X818Y60D02*
X825Y60D01*
X837Y60D02*
X844Y60D01*
X860Y60D02*
X875Y60D01*
X883Y60D02*
X889Y60D01*
X1251Y60D02*
X1258Y60D01*
X0Y59D02*
X7Y59D01*
X387Y59D02*
X394Y59D01*
X423Y59D02*
X428Y59D01*
X446Y59D02*
X452Y59D01*
X466Y59D02*
X479Y59D01*
X489Y59D02*
X494Y59D01*
X512Y59D02*
X521Y59D01*
X562Y59D02*
X569Y59D01*
X604Y59D02*
X609Y59D01*
X641Y59D02*
X655Y59D01*
X665Y59D02*
X670Y59D01*
X697Y59D02*
X702Y59D01*
X729Y59D02*
X738Y59D01*
X749Y59D02*
X756Y59D01*
X773Y59D02*
X782Y59D01*
X793Y59D02*
X800Y59D01*
X817Y59D02*
X824Y59D01*
X838Y59D02*
X845Y59D01*
X860Y59D02*
X874Y59D01*
X884Y59D02*
X889Y59D01*
X1251Y59D02*
X1258Y59D01*
X0Y58D02*
X7Y58D01*
X388Y58D02*
X395Y58D01*
X423Y58D02*
X428Y58D01*
X446Y58D02*
X452Y58D01*
X466Y58D02*
X478Y58D01*
X489Y58D02*
X495Y58D01*
X512Y58D02*
X519Y58D01*
X563Y58D02*
X570Y58D01*
X604Y58D02*
X609Y58D01*
X641Y58D02*
X654Y58D01*
X665Y58D02*
X670Y58D01*
X697Y58D02*
X702Y58D01*
X729Y58D02*
X737Y58D01*
X750Y58D02*
X757Y58D01*
X773Y58D02*
X781Y58D01*
X794Y58D02*
X801Y58D01*
X817Y58D02*
X823Y58D01*
X839Y58D02*
X845Y58D01*
X860Y58D02*
X872Y58D01*
X884Y58D02*
X889Y58D01*
X1251Y58D02*
X1258Y58D01*
X0Y57D02*
X7Y57D01*
X389Y57D02*
X396Y57D01*
X423Y57D02*
X428Y57D01*
X446Y57D02*
X451Y57D01*
X466Y57D02*
X476Y57D01*
X490Y57D02*
X495Y57D01*
X511Y57D02*
X518Y57D01*
X564Y57D02*
X571Y57D01*
X604Y57D02*
X609Y57D01*
X641Y57D02*
X653Y57D01*
X665Y57D02*
X670Y57D01*
X697Y57D02*
X702Y57D01*
X729Y57D02*
X736Y57D01*
X751Y57D02*
X758Y57D01*
X773Y57D02*
X780Y57D01*
X795Y57D02*
X801Y57D01*
X817Y57D02*
X822Y57D01*
X840Y57D02*
X845Y57D01*
X860Y57D02*
X871Y57D01*
X884Y57D02*
X889Y57D01*
X1251Y57D02*
X1258Y57D01*
X0Y56D02*
X7Y56D01*
X390Y56D02*
X396Y56D01*
X423Y56D02*
X429Y56D01*
X445Y56D02*
X451Y56D01*
X466Y56D02*
X474Y56D01*
X490Y56D02*
X495Y56D01*
X511Y56D02*
X517Y56D01*
X565Y56D02*
X572Y56D01*
X604Y56D02*
X609Y56D01*
X641Y56D02*
X651Y56D01*
X665Y56D02*
X670Y56D01*
X697Y56D02*
X702Y56D01*
X729Y56D02*
X735Y56D01*
X752Y56D02*
X758Y56D01*
X773Y56D02*
X779Y56D01*
X796Y56D02*
X802Y56D01*
X816Y56D02*
X822Y56D01*
X840Y56D02*
X845Y56D01*
X860Y56D02*
X870Y56D01*
X884Y56D02*
X889Y56D01*
X1251Y56D02*
X1258Y56D01*
X0Y55D02*
X7Y55D01*
X390Y55D02*
X397Y55D01*
X424Y55D02*
X429Y55D01*
X445Y55D02*
X450Y55D01*
X466Y55D02*
X473Y55D01*
X490Y55D02*
X495Y55D01*
X510Y55D02*
X516Y55D01*
X565Y55D02*
X572Y55D01*
X604Y55D02*
X609Y55D01*
X641Y55D02*
X650Y55D01*
X665Y55D02*
X670Y55D01*
X697Y55D02*
X702Y55D01*
X729Y55D02*
X735Y55D01*
X753Y55D02*
X758Y55D01*
X773Y55D02*
X778Y55D01*
X796Y55D02*
X802Y55D01*
X816Y55D02*
X821Y55D01*
X840Y55D02*
X846Y55D01*
X860Y55D02*
X869Y55D01*
X884Y55D02*
X889Y55D01*
X1251Y55D02*
X1258Y55D01*
X0Y54D02*
X7Y54D01*
X391Y54D02*
X398Y54D01*
X424Y54D02*
X430Y54D01*
X444Y54D02*
X450Y54D01*
X466Y54D02*
X472Y54D01*
X490Y54D02*
X495Y54D01*
X510Y54D02*
X515Y54D01*
X566Y54D02*
X573Y54D01*
X604Y54D02*
X609Y54D01*
X641Y54D02*
X649Y54D01*
X666Y54D02*
X670Y54D01*
X697Y54D02*
X702Y54D01*
X729Y54D02*
X734Y54D01*
X753Y54D02*
X758Y54D01*
X773Y54D02*
X778Y54D01*
X797Y54D02*
X802Y54D01*
X816Y54D02*
X821Y54D01*
X840Y54D02*
X846Y54D01*
X860Y54D02*
X868Y54D01*
X885Y54D02*
X889Y54D01*
X1251Y54D02*
X1258Y54D01*
X0Y53D02*
X7Y53D01*
X392Y53D02*
X399Y53D01*
X425Y53D02*
X430Y53D01*
X444Y53D02*
X450Y53D01*
X466Y53D02*
X471Y53D01*
X490Y53D02*
X495Y53D01*
X510Y53D02*
X515Y53D01*
X567Y53D02*
X574Y53D01*
X604Y53D02*
X609Y53D01*
X641Y53D02*
X648Y53D01*
X667Y53D02*
X669Y53D01*
X697Y53D02*
X702Y53D01*
X729Y53D02*
X734Y53D01*
X753Y53D02*
X758Y53D01*
X773Y53D02*
X778Y53D01*
X797Y53D02*
X802Y53D01*
X816Y53D02*
X821Y53D01*
X840Y53D02*
X846Y53D01*
X860Y53D02*
X867Y53D01*
X886Y53D02*
X887Y53D01*
X1251Y53D02*
X1258Y53D01*
X0Y52D02*
X7Y52D01*
X393Y52D02*
X400Y52D01*
X425Y52D02*
X431Y52D01*
X443Y52D02*
X449Y52D01*
X466Y52D02*
X471Y52D01*
X490Y52D02*
X495Y52D01*
X510Y52D02*
X515Y52D01*
X568Y52D02*
X575Y52D01*
X604Y52D02*
X609Y52D01*
X641Y52D02*
X647Y52D01*
X697Y52D02*
X702Y52D01*
X729Y52D02*
X734Y52D01*
X753Y52D02*
X758Y52D01*
X773Y52D02*
X778Y52D01*
X797Y52D02*
X802Y52D01*
X816Y52D02*
X821Y52D01*
X840Y52D02*
X846Y52D01*
X860Y52D02*
X866Y52D01*
X1251Y52D02*
X1258Y52D01*
X0Y51D02*
X7Y51D01*
X393Y51D02*
X400Y51D01*
X425Y51D02*
X431Y51D01*
X443Y51D02*
X449Y51D01*
X466Y51D02*
X471Y51D01*
X490Y51D02*
X495Y51D01*
X510Y51D02*
X515Y51D01*
X569Y51D02*
X575Y51D01*
X604Y51D02*
X609Y51D01*
X641Y51D02*
X646Y51D01*
X697Y51D02*
X702Y51D01*
X729Y51D02*
X734Y51D01*
X753Y51D02*
X758Y51D01*
X773Y51D02*
X778Y51D01*
X797Y51D02*
X802Y51D01*
X816Y51D02*
X846Y51D01*
X860Y51D02*
X865Y51D01*
X1251Y51D02*
X1258Y51D01*
X0Y50D02*
X7Y50D01*
X394Y50D02*
X401Y50D01*
X426Y50D02*
X432Y50D01*
X443Y50D02*
X448Y50D01*
X466Y50D02*
X471Y50D01*
X490Y50D02*
X495Y50D01*
X510Y50D02*
X515Y50D01*
X569Y50D02*
X576Y50D01*
X604Y50D02*
X609Y50D01*
X641Y50D02*
X646Y50D01*
X697Y50D02*
X702Y50D01*
X729Y50D02*
X734Y50D01*
X753Y50D02*
X758Y50D01*
X773Y50D02*
X778Y50D01*
X797Y50D02*
X802Y50D01*
X816Y50D02*
X846Y50D01*
X860Y50D02*
X865Y50D01*
X1251Y50D02*
X1258Y50D01*
X0Y49D02*
X7Y49D01*
X395Y49D02*
X402Y49D01*
X426Y49D02*
X432Y49D01*
X442Y49D02*
X448Y49D01*
X466Y49D02*
X471Y49D01*
X490Y49D02*
X495Y49D01*
X510Y49D02*
X515Y49D01*
X570Y49D02*
X577Y49D01*
X604Y49D02*
X609Y49D01*
X641Y49D02*
X646Y49D01*
X697Y49D02*
X702Y49D01*
X729Y49D02*
X734Y49D01*
X753Y49D02*
X758Y49D01*
X773Y49D02*
X778Y49D01*
X797Y49D02*
X802Y49D01*
X816Y49D02*
X846Y49D01*
X860Y49D02*
X865Y49D01*
X1251Y49D02*
X1258Y49D01*
X0Y48D02*
X7Y48D01*
X396Y48D02*
X403Y48D01*
X427Y48D02*
X432Y48D01*
X442Y48D02*
X447Y48D01*
X466Y48D02*
X471Y48D01*
X490Y48D02*
X495Y48D01*
X510Y48D02*
X515Y48D01*
X571Y48D02*
X578Y48D01*
X604Y48D02*
X609Y48D01*
X641Y48D02*
X646Y48D01*
X697Y48D02*
X702Y48D01*
X729Y48D02*
X734Y48D01*
X753Y48D02*
X758Y48D01*
X773Y48D02*
X778Y48D01*
X797Y48D02*
X802Y48D01*
X816Y48D02*
X845Y48D01*
X860Y48D02*
X865Y48D01*
X1251Y48D02*
X1258Y48D01*
X0Y47D02*
X7Y47D01*
X397Y47D02*
X403Y47D01*
X427Y47D02*
X433Y47D01*
X441Y47D02*
X447Y47D01*
X466Y47D02*
X471Y47D01*
X490Y47D02*
X495Y47D01*
X510Y47D02*
X515Y47D01*
X572Y47D02*
X579Y47D01*
X604Y47D02*
X609Y47D01*
X641Y47D02*
X646Y47D01*
X697Y47D02*
X702Y47D01*
X729Y47D02*
X734Y47D01*
X753Y47D02*
X758Y47D01*
X773Y47D02*
X778Y47D01*
X797Y47D02*
X802Y47D01*
X816Y47D02*
X845Y47D01*
X860Y47D02*
X865Y47D01*
X1251Y47D02*
X1258Y47D01*
X0Y46D02*
X7Y46D01*
X397Y46D02*
X404Y46D01*
X428Y46D02*
X433Y46D01*
X441Y46D02*
X447Y46D01*
X466Y46D02*
X471Y46D01*
X490Y46D02*
X495Y46D01*
X510Y46D02*
X515Y46D01*
X572Y46D02*
X579Y46D01*
X604Y46D02*
X609Y46D01*
X641Y46D02*
X646Y46D01*
X697Y46D02*
X702Y46D01*
X729Y46D02*
X734Y46D01*
X753Y46D02*
X758Y46D01*
X773Y46D02*
X778Y46D01*
X797Y46D02*
X802Y46D01*
X816Y46D02*
X845Y46D01*
X860Y46D02*
X865Y46D01*
X1251Y46D02*
X1258Y46D01*
X0Y45D02*
X7Y45D01*
X398Y45D02*
X405Y45D01*
X428Y45D02*
X434Y45D01*
X440Y45D02*
X446Y45D01*
X466Y45D02*
X471Y45D01*
X490Y45D02*
X495Y45D01*
X510Y45D02*
X515Y45D01*
X573Y45D02*
X580Y45D01*
X604Y45D02*
X609Y45D01*
X641Y45D02*
X646Y45D01*
X697Y45D02*
X702Y45D01*
X729Y45D02*
X734Y45D01*
X753Y45D02*
X758Y45D01*
X773Y45D02*
X778Y45D01*
X797Y45D02*
X802Y45D01*
X816Y45D02*
X843Y45D01*
X860Y45D02*
X865Y45D01*
X1251Y45D02*
X1258Y45D01*
X0Y44D02*
X7Y44D01*
X399Y44D02*
X406Y44D01*
X428Y44D02*
X434Y44D01*
X440Y44D02*
X446Y44D01*
X466Y44D02*
X471Y44D01*
X490Y44D02*
X495Y44D01*
X510Y44D02*
X516Y44D01*
X574Y44D02*
X581Y44D01*
X604Y44D02*
X609Y44D01*
X641Y44D02*
X646Y44D01*
X697Y44D02*
X702Y44D01*
X729Y44D02*
X734Y44D01*
X753Y44D02*
X758Y44D01*
X773Y44D02*
X778Y44D01*
X797Y44D02*
X802Y44D01*
X816Y44D02*
X821Y44D01*
X860Y44D02*
X865Y44D01*
X1251Y44D02*
X1258Y44D01*
X0Y43D02*
X7Y43D01*
X380Y43D02*
X382Y43D01*
X400Y43D02*
X407Y43D01*
X429Y43D02*
X435Y43D01*
X439Y43D02*
X445Y43D01*
X466Y43D02*
X471Y43D01*
X490Y43D02*
X495Y43D01*
X510Y43D02*
X517Y43D01*
X555Y43D02*
X557Y43D01*
X575Y43D02*
X582Y43D01*
X604Y43D02*
X609Y43D01*
X623Y43D02*
X625Y43D01*
X641Y43D02*
X646Y43D01*
X697Y43D02*
X702Y43D01*
X729Y43D02*
X735Y43D01*
X752Y43D02*
X758Y43D01*
X773Y43D02*
X779Y43D01*
X796Y43D02*
X802Y43D01*
X816Y43D02*
X822Y43D01*
X860Y43D02*
X865Y43D01*
X1251Y43D02*
X1258Y43D01*
X0Y42D02*
X7Y42D01*
X379Y42D02*
X383Y42D01*
X400Y42D02*
X407Y42D01*
X429Y42D02*
X435Y42D01*
X439Y42D02*
X445Y42D01*
X466Y42D02*
X471Y42D01*
X490Y42D02*
X495Y42D01*
X511Y42D02*
X518Y42D01*
X554Y42D02*
X558Y42D01*
X576Y42D02*
X582Y42D01*
X604Y42D02*
X609Y42D01*
X622Y42D02*
X626Y42D01*
X641Y42D02*
X646Y42D01*
X697Y42D02*
X702Y42D01*
X729Y42D02*
X736Y42D01*
X752Y42D02*
X758Y42D01*
X773Y42D02*
X780Y42D01*
X795Y42D02*
X801Y42D01*
X816Y42D02*
X822Y42D01*
X860Y42D02*
X865Y42D01*
X1251Y42D02*
X1258Y42D01*
X0Y41D02*
X7Y41D01*
X379Y41D02*
X384Y41D01*
X401Y41D02*
X408Y41D01*
X430Y41D02*
X436Y41D01*
X438Y41D02*
X444Y41D01*
X466Y41D02*
X471Y41D01*
X490Y41D02*
X495Y41D01*
X511Y41D02*
X519Y41D01*
X554Y41D02*
X559Y41D01*
X576Y41D02*
X583Y41D01*
X604Y41D02*
X609Y41D01*
X622Y41D02*
X627Y41D01*
X641Y41D02*
X646Y41D01*
X697Y41D02*
X702Y41D01*
X729Y41D02*
X737Y41D01*
X750Y41D02*
X757Y41D01*
X773Y41D02*
X781Y41D01*
X794Y41D02*
X801Y41D01*
X817Y41D02*
X822Y41D01*
X860Y41D02*
X865Y41D01*
X1251Y41D02*
X1258Y41D01*
X0Y40D02*
X7Y40D01*
X379Y40D02*
X384Y40D01*
X402Y40D02*
X408Y40D01*
X430Y40D02*
X444Y40D01*
X466Y40D02*
X471Y40D01*
X490Y40D02*
X495Y40D01*
X512Y40D02*
X520Y40D01*
X554Y40D02*
X559Y40D01*
X577Y40D02*
X583Y40D01*
X604Y40D02*
X609Y40D01*
X621Y40D02*
X627Y40D01*
X641Y40D02*
X646Y40D01*
X697Y40D02*
X702Y40D01*
X729Y40D02*
X738Y40D01*
X749Y40D02*
X757Y40D01*
X773Y40D02*
X782Y40D01*
X793Y40D02*
X801Y40D01*
X817Y40D02*
X823Y40D01*
X860Y40D02*
X865Y40D01*
X1251Y40D02*
X1258Y40D01*
X0Y39D02*
X7Y39D01*
X379Y39D02*
X384Y39D01*
X403Y39D02*
X408Y39D01*
X431Y39D02*
X443Y39D01*
X466Y39D02*
X471Y39D01*
X490Y39D02*
X495Y39D01*
X513Y39D02*
X521Y39D01*
X554Y39D02*
X559Y39D01*
X578Y39D02*
X583Y39D01*
X604Y39D02*
X610Y39D01*
X620Y39D02*
X626Y39D01*
X641Y39D02*
X646Y39D01*
X697Y39D02*
X702Y39D01*
X729Y39D02*
X739Y39D01*
X748Y39D02*
X756Y39D01*
X773Y39D02*
X783Y39D01*
X792Y39D02*
X800Y39D01*
X817Y39D02*
X825Y39D01*
X860Y39D02*
X865Y39D01*
X1251Y39D02*
X1258Y39D01*
X0Y38D02*
X7Y38D01*
X379Y38D02*
X408Y38D01*
X431Y38D02*
X443Y38D01*
X466Y38D02*
X471Y38D01*
X490Y38D02*
X495Y38D01*
X514Y38D02*
X537Y38D01*
X554Y38D02*
X583Y38D01*
X604Y38D02*
X626Y38D01*
X641Y38D02*
X646Y38D01*
X690Y38D02*
X709Y38D01*
X729Y38D02*
X740Y38D01*
X747Y38D02*
X755Y38D01*
X773Y38D02*
X784Y38D01*
X791Y38D02*
X799Y38D01*
X818Y38D02*
X843Y38D01*
X860Y38D02*
X865Y38D01*
X1251Y38D02*
X1258Y38D01*
X0Y37D02*
X7Y37D01*
X379Y37D02*
X408Y37D01*
X432Y37D02*
X443Y37D01*
X466Y37D02*
X471Y37D01*
X490Y37D02*
X495Y37D01*
X515Y37D02*
X538Y37D01*
X555Y37D02*
X583Y37D01*
X605Y37D02*
X626Y37D01*
X641Y37D02*
X646Y37D01*
X689Y37D02*
X711Y37D01*
X729Y37D02*
X742Y37D01*
X745Y37D02*
X754Y37D01*
X773Y37D02*
X786Y37D01*
X788Y37D02*
X798Y37D01*
X819Y37D02*
X845Y37D01*
X860Y37D02*
X865Y37D01*
X1251Y37D02*
X1258Y37D01*
X0Y36D02*
X7Y36D01*
X380Y36D02*
X407Y36D01*
X432Y36D02*
X442Y36D01*
X466Y36D02*
X471Y36D01*
X490Y36D02*
X495Y36D01*
X516Y36D02*
X539Y36D01*
X555Y36D02*
X582Y36D01*
X605Y36D02*
X625Y36D01*
X641Y36D02*
X646Y36D01*
X688Y36D02*
X711Y36D01*
X729Y36D02*
X753Y36D01*
X773Y36D02*
X797Y36D01*
X820Y36D02*
X845Y36D01*
X860Y36D02*
X865Y36D01*
X1251Y36D02*
X1258Y36D01*
X0Y35D02*
X7Y35D01*
X381Y35D02*
X406Y35D01*
X433Y35D02*
X442Y35D01*
X466Y35D02*
X471Y35D01*
X490Y35D02*
X495Y35D01*
X518Y35D02*
X539Y35D01*
X556Y35D02*
X581Y35D01*
X606Y35D02*
X624Y35D01*
X641Y35D02*
X646Y35D01*
X688Y35D02*
X711Y35D01*
X729Y35D02*
X752Y35D01*
X773Y35D02*
X796Y35D01*
X821Y35D02*
X845Y35D01*
X860Y35D02*
X865Y35D01*
X1251Y35D02*
X1258Y35D01*
X0Y34D02*
X7Y34D01*
X382Y34D02*
X406Y34D01*
X436Y34D02*
X441Y34D01*
X467Y34D02*
X471Y34D01*
X491Y34D02*
X495Y34D01*
X519Y34D02*
X539Y34D01*
X557Y34D02*
X581Y34D01*
X607Y34D02*
X623Y34D01*
X642Y34D02*
X646Y34D01*
X688Y34D02*
X711Y34D01*
X729Y34D02*
X734Y34D01*
X736Y34D02*
X751Y34D01*
X773Y34D02*
X778Y34D01*
X780Y34D02*
X794Y34D01*
X822Y34D02*
X845Y34D01*
X860Y34D02*
X865Y34D01*
X1251Y34D02*
X1258Y34D01*
X0Y33D02*
X7Y33D01*
X383Y33D02*
X404Y33D01*
X435Y33D02*
X441Y33D01*
X467Y33D02*
X470Y33D01*
X491Y33D02*
X494Y33D01*
X520Y33D02*
X538Y33D01*
X558Y33D02*
X579Y33D01*
X609Y33D02*
X621Y33D01*
X642Y33D02*
X645Y33D01*
X689Y33D02*
X710Y33D01*
X729Y33D02*
X734Y33D01*
X737Y33D02*
X750Y33D01*
X773Y33D02*
X778Y33D01*
X781Y33D02*
X793Y33D01*
X824Y33D02*
X844Y33D01*
X861Y33D02*
X864Y33D01*
X1251Y33D02*
X1258Y33D01*
X0Y32D02*
X7Y32D01*
X435Y32D02*
X440Y32D01*
X729Y32D02*
X734Y32D01*
X739Y32D02*
X748Y32D01*
X773Y32D02*
X778Y32D01*
X783Y32D02*
X792Y32D01*
X1251Y32D02*
X1258Y32D01*
X0Y31D02*
X7Y31D01*
X434Y31D02*
X440Y31D01*
X729Y31D02*
X734Y31D01*
X742Y31D02*
X745Y31D01*
X773Y31D02*
X778Y31D01*
X786Y31D02*
X789Y31D01*
X1251Y31D02*
X1258Y31D01*
X0Y30D02*
X7Y30D01*
X434Y30D02*
X440Y30D01*
X729Y30D02*
X734Y30D01*
X773Y30D02*
X778Y30D01*
X1251Y30D02*
X1258Y30D01*
X0Y29D02*
X7Y29D01*
X433Y29D02*
X439Y29D01*
X729Y29D02*
X734Y29D01*
X773Y29D02*
X778Y29D01*
X1251Y29D02*
X1258Y29D01*
X0Y28D02*
X7Y28D01*
X433Y28D02*
X439Y28D01*
X729Y28D02*
X734Y28D01*
X773Y28D02*
X778Y28D01*
X1251Y28D02*
X1258Y28D01*
X0Y27D02*
X7Y27D01*
X432Y27D02*
X438Y27D01*
X729Y27D02*
X734Y27D01*
X773Y27D02*
X778Y27D01*
X1251Y27D02*
X1258Y27D01*
X0Y26D02*
X7Y26D01*
X432Y26D02*
X438Y26D01*
X729Y26D02*
X734Y26D01*
X773Y26D02*
X778Y26D01*
X1251Y26D02*
X1258Y26D01*
X0Y25D02*
X7Y25D01*
X424Y25D02*
X437Y25D01*
X729Y25D02*
X734Y25D01*
X773Y25D02*
X778Y25D01*
X1251Y25D02*
X1258Y25D01*
X0Y24D02*
X7Y24D01*
X423Y24D02*
X437Y24D01*
X729Y24D02*
X734Y24D01*
X773Y24D02*
X778Y24D01*
X1251Y24D02*
X1258Y24D01*
X0Y23D02*
X7Y23D01*
X423Y23D02*
X436Y23D01*
X729Y23D02*
X734Y23D01*
X773Y23D02*
X778Y23D01*
X1251Y23D02*
X1258Y23D01*
X0Y22D02*
X7Y22D01*
X423Y22D02*
X436Y22D01*
X729Y22D02*
X734Y22D01*
X773Y22D02*
X778Y22D01*
X1251Y22D02*
X1258Y22D01*
X0Y21D02*
X7Y21D01*
X423Y21D02*
X436Y21D01*
X729Y21D02*
X734Y21D01*
X773Y21D02*
X777Y21D01*
X1251Y21D02*
X1258Y21D01*
X0Y20D02*
X7Y20D01*
X424Y20D02*
X435Y20D01*
X730Y20D02*
X733Y20D01*
X774Y20D02*
X777Y20D01*
X1251Y20D02*
X1258Y20D01*
X0Y19D02*
X7Y19D01*
X1251Y19D02*
X1258Y19D01*
X0Y18D02*
X7Y18D01*
X1251Y18D02*
X1258Y18D01*
X0Y17D02*
X7Y17D01*
X1251Y17D02*
X1258Y17D01*
X0Y16D02*
X7Y16D01*
X1251Y16D02*
X1258Y16D01*
X0Y15D02*
X7Y15D01*
X1251Y15D02*
X1258Y15D01*
X0Y14D02*
X7Y14D01*
X1251Y14D02*
X1258Y14D01*
X0Y13D02*
X7Y13D01*
X1251Y13D02*
X1258Y13D01*
X0Y12D02*
X7Y12D01*
X1251Y12D02*
X1258Y12D01*
X0Y11D02*
X7Y11D01*
X1251Y11D02*
X1258Y11D01*
X0Y10D02*
X7Y10D01*
X1251Y10D02*
X1258Y10D01*
X0Y9D02*
X7Y9D01*
X1251Y9D02*
X1258Y9D01*
X0Y8D02*
X1258Y8D01*
X0Y7D02*
X1258Y7D01*
X0Y6D02*
X1258Y6D01*
X0Y5D02*
X1258Y5D01*
X0Y4D02*
X1258Y4D01*
X0Y3D02*
X1258Y3D01*
X0Y2D02*
X1258Y2D01*
X0Y1D02*
X1258Y1D01*
D02*
G04 End of Silk1*
M02*