; NON-PLATED HOLES START AT T1
; THROUGH (PLATED) HOLES START AT T100
M48
INCH
T100C0.015748
T101C0.027559
%
T100
X001218Y004540
X007831Y003992
X013948Y002437
X008301Y002838
X006398Y005942
X007828Y004482
X012097Y004544
X011146Y002438
X007830Y003492
X008436Y005942
X007830Y002990
X007068Y005092
X009846Y002438
X010703Y004544
X006617Y002840
X007834Y004987
X007068Y004593
X013501Y004544
X012551Y002437
X000745Y002446
X004015Y004544
X004952Y002446
X007068Y004090
X002151Y002446
X007068Y003591
X007068Y003043
X002621Y004544
X003554Y002446
X006779Y005543
X008040Y005543
T101
X002584Y000473
X011693Y000473
X008189Y000473
X003285Y000473
X012393Y000473
X013795Y000473
X006788Y000473
X000482Y000473
X013094Y000473
X010992Y000473
X006087Y000473
X007489Y000473
X003985Y000473
X010291Y000473
X001183Y000473
X008890Y000473
X004686Y000473
X009591Y000473
X005387Y000473
X001883Y000473
X014495Y000473
T00
M30
