G04 MADE WITH FRITZING*
G04 WWW.FRITZING.ORG*
G04 DOUBLE SIDED*
G04 HOLES PLATED*
G04 CONTOUR ON CENTER OF CONTOUR VECTOR*
%ASAXBY*%
%FSLAX23Y23*%
%MOIN*%
%OFA0B0*%
%SFA1.0B1.0*%
%ADD10R,1.496060X0.748031X1.480060X0.732031*%
%ADD11C,0.008000*%
%ADD12R,0.001000X0.001000*%
%LNSILK0*%
G90*
G70*
G54D11*
X4Y744D02*
X1492Y744D01*
X1492Y4D01*
X4Y4D01*
X4Y744D01*
D02*
G54D12*
X768Y677D02*
X778Y677D01*
X847Y677D02*
X848Y677D01*
X767Y676D02*
X780Y676D01*
X845Y676D02*
X849Y676D01*
X766Y675D02*
X780Y675D01*
X845Y675D02*
X850Y675D01*
X766Y674D02*
X780Y674D01*
X845Y674D02*
X850Y674D01*
X766Y673D02*
X780Y673D01*
X845Y673D02*
X850Y673D01*
X766Y672D02*
X779Y672D01*
X845Y672D02*
X850Y672D01*
X766Y671D02*
X772Y671D01*
X845Y671D02*
X850Y671D01*
X766Y670D02*
X771Y670D01*
X845Y670D02*
X850Y670D01*
X766Y669D02*
X771Y669D01*
X845Y669D02*
X850Y669D01*
X766Y668D02*
X771Y668D01*
X845Y668D02*
X850Y668D01*
X766Y667D02*
X771Y667D01*
X845Y667D02*
X850Y667D01*
X766Y666D02*
X771Y666D01*
X845Y666D02*
X850Y666D01*
X766Y665D02*
X771Y665D01*
X845Y665D02*
X850Y665D01*
X631Y664D02*
X643Y664D01*
X668Y664D02*
X684Y664D01*
X719Y664D02*
X731Y664D01*
X766Y664D02*
X771Y664D01*
X805Y664D02*
X820Y664D01*
X845Y664D02*
X850Y664D01*
X629Y663D02*
X646Y663D01*
X667Y663D02*
X686Y663D01*
X717Y663D02*
X733Y663D01*
X766Y663D02*
X771Y663D01*
X803Y663D02*
X821Y663D01*
X845Y663D02*
X850Y663D01*
X628Y662D02*
X647Y662D01*
X667Y662D02*
X688Y662D01*
X716Y662D02*
X734Y662D01*
X766Y662D02*
X771Y662D01*
X802Y662D02*
X821Y662D01*
X845Y662D02*
X850Y662D01*
X627Y661D02*
X648Y661D01*
X667Y661D02*
X689Y661D01*
X714Y661D02*
X736Y661D01*
X766Y661D02*
X771Y661D01*
X801Y661D02*
X821Y661D01*
X845Y661D02*
X850Y661D01*
X626Y660D02*
X649Y660D01*
X667Y660D02*
X690Y660D01*
X713Y660D02*
X737Y660D01*
X766Y660D02*
X771Y660D01*
X800Y660D02*
X821Y660D01*
X845Y660D02*
X850Y660D01*
X625Y659D02*
X650Y659D01*
X668Y659D02*
X691Y659D01*
X712Y659D02*
X737Y659D01*
X766Y659D02*
X771Y659D01*
X800Y659D02*
X820Y659D01*
X845Y659D02*
X850Y659D01*
X624Y658D02*
X632Y658D01*
X643Y658D02*
X651Y658D01*
X684Y658D02*
X692Y658D01*
X712Y658D02*
X720Y658D01*
X731Y658D02*
X738Y658D01*
X766Y658D02*
X771Y658D01*
X799Y658D02*
X806Y658D01*
X845Y658D02*
X850Y658D01*
X624Y657D02*
X630Y657D01*
X644Y657D02*
X651Y657D01*
X685Y657D02*
X693Y657D01*
X711Y657D02*
X718Y657D01*
X732Y657D02*
X739Y657D01*
X766Y657D02*
X771Y657D01*
X799Y657D02*
X804Y657D01*
X845Y657D02*
X850Y657D01*
X623Y656D02*
X629Y656D01*
X646Y656D02*
X652Y656D01*
X686Y656D02*
X694Y656D01*
X711Y656D02*
X717Y656D01*
X733Y656D02*
X739Y656D01*
X766Y656D02*
X771Y656D01*
X799Y656D02*
X804Y656D01*
X845Y656D02*
X850Y656D01*
X623Y655D02*
X628Y655D01*
X646Y655D02*
X652Y655D01*
X687Y655D02*
X695Y655D01*
X711Y655D02*
X716Y655D01*
X734Y655D02*
X739Y655D01*
X766Y655D02*
X771Y655D01*
X799Y655D02*
X804Y655D01*
X845Y655D02*
X850Y655D01*
X623Y654D02*
X628Y654D01*
X647Y654D02*
X652Y654D01*
X689Y654D02*
X695Y654D01*
X710Y654D02*
X716Y654D01*
X734Y654D02*
X739Y654D01*
X766Y654D02*
X771Y654D01*
X799Y654D02*
X804Y654D01*
X845Y654D02*
X850Y654D01*
X623Y653D02*
X628Y653D01*
X647Y653D02*
X652Y653D01*
X690Y653D02*
X696Y653D01*
X710Y653D02*
X716Y653D01*
X734Y653D02*
X740Y653D01*
X766Y653D02*
X771Y653D01*
X799Y653D02*
X804Y653D01*
X845Y653D02*
X850Y653D01*
X623Y652D02*
X628Y652D01*
X647Y652D02*
X652Y652D01*
X690Y652D02*
X696Y652D01*
X710Y652D02*
X716Y652D01*
X734Y652D02*
X740Y652D01*
X766Y652D02*
X771Y652D01*
X799Y652D02*
X804Y652D01*
X845Y652D02*
X850Y652D01*
X623Y651D02*
X628Y651D01*
X647Y651D02*
X652Y651D01*
X691Y651D02*
X696Y651D01*
X710Y651D02*
X716Y651D01*
X734Y651D02*
X740Y651D01*
X766Y651D02*
X771Y651D01*
X799Y651D02*
X821Y651D01*
X845Y651D02*
X850Y651D01*
X864Y651D02*
X867Y651D01*
X623Y650D02*
X628Y650D01*
X647Y650D02*
X652Y650D01*
X691Y650D02*
X696Y650D01*
X710Y650D02*
X716Y650D01*
X734Y650D02*
X740Y650D01*
X766Y650D02*
X771Y650D01*
X799Y650D02*
X823Y650D01*
X845Y650D02*
X850Y650D01*
X863Y650D02*
X867Y650D01*
X623Y649D02*
X628Y649D01*
X647Y649D02*
X652Y649D01*
X691Y649D02*
X696Y649D01*
X710Y649D02*
X716Y649D01*
X734Y649D02*
X740Y649D01*
X766Y649D02*
X771Y649D01*
X799Y649D02*
X824Y649D01*
X845Y649D02*
X850Y649D01*
X863Y649D02*
X868Y649D01*
X623Y648D02*
X628Y648D01*
X647Y648D02*
X652Y648D01*
X691Y648D02*
X696Y648D01*
X710Y648D02*
X740Y648D01*
X766Y648D02*
X771Y648D01*
X798Y648D02*
X825Y648D01*
X845Y648D02*
X850Y648D01*
X863Y648D02*
X868Y648D01*
X623Y647D02*
X628Y647D01*
X647Y647D02*
X652Y647D01*
X691Y647D02*
X696Y647D01*
X710Y647D02*
X740Y647D01*
X766Y647D02*
X771Y647D01*
X798Y647D02*
X826Y647D01*
X845Y647D02*
X850Y647D01*
X863Y647D02*
X868Y647D01*
X623Y646D02*
X628Y646D01*
X647Y646D02*
X652Y646D01*
X691Y646D02*
X696Y646D01*
X710Y646D02*
X740Y646D01*
X766Y646D02*
X771Y646D01*
X798Y646D02*
X826Y646D01*
X845Y646D02*
X850Y646D01*
X863Y646D02*
X868Y646D01*
X623Y645D02*
X628Y645D01*
X647Y645D02*
X652Y645D01*
X691Y645D02*
X696Y645D01*
X711Y645D02*
X740Y645D01*
X766Y645D02*
X771Y645D01*
X798Y645D02*
X805Y645D01*
X821Y645D02*
X827Y645D01*
X845Y645D02*
X850Y645D01*
X863Y645D02*
X868Y645D01*
X623Y644D02*
X628Y644D01*
X647Y644D02*
X652Y644D01*
X691Y644D02*
X696Y644D01*
X711Y644D02*
X740Y644D01*
X766Y644D02*
X771Y644D01*
X798Y644D02*
X804Y644D01*
X822Y644D02*
X827Y644D01*
X845Y644D02*
X850Y644D01*
X863Y644D02*
X868Y644D01*
X623Y643D02*
X628Y643D01*
X647Y643D02*
X652Y643D01*
X691Y643D02*
X696Y643D01*
X713Y643D02*
X740Y643D01*
X766Y643D02*
X771Y643D01*
X798Y643D02*
X804Y643D01*
X822Y643D02*
X827Y643D01*
X845Y643D02*
X850Y643D01*
X863Y643D02*
X868Y643D01*
X623Y642D02*
X628Y642D01*
X647Y642D02*
X652Y642D01*
X690Y642D02*
X696Y642D01*
X734Y642D02*
X740Y642D01*
X766Y642D02*
X771Y642D01*
X798Y642D02*
X803Y642D01*
X822Y642D02*
X827Y642D01*
X845Y642D02*
X850Y642D01*
X863Y642D02*
X868Y642D01*
X623Y641D02*
X628Y641D01*
X647Y641D02*
X652Y641D01*
X689Y641D02*
X695Y641D01*
X734Y641D02*
X740Y641D01*
X766Y641D02*
X771Y641D01*
X798Y641D02*
X803Y641D01*
X822Y641D02*
X827Y641D01*
X845Y641D02*
X850Y641D01*
X863Y641D02*
X868Y641D01*
X623Y640D02*
X628Y640D01*
X647Y640D02*
X652Y640D01*
X688Y640D02*
X695Y640D01*
X734Y640D02*
X739Y640D01*
X766Y640D02*
X771Y640D01*
X798Y640D02*
X804Y640D01*
X822Y640D02*
X827Y640D01*
X845Y640D02*
X850Y640D01*
X863Y640D02*
X868Y640D01*
X623Y639D02*
X629Y639D01*
X646Y639D02*
X652Y639D01*
X687Y639D02*
X694Y639D01*
X734Y639D02*
X739Y639D01*
X766Y639D02*
X771Y639D01*
X798Y639D02*
X805Y639D01*
X822Y639D02*
X827Y639D01*
X845Y639D02*
X850Y639D01*
X863Y639D02*
X868Y639D01*
X623Y638D02*
X630Y638D01*
X645Y638D02*
X651Y638D01*
X686Y638D02*
X694Y638D01*
X733Y638D02*
X739Y638D01*
X766Y638D02*
X771Y638D01*
X798Y638D02*
X807Y638D01*
X822Y638D02*
X827Y638D01*
X845Y638D02*
X850Y638D01*
X863Y638D02*
X868Y638D01*
X624Y637D02*
X631Y637D01*
X644Y637D02*
X651Y637D01*
X685Y637D02*
X693Y637D01*
X731Y637D02*
X739Y637D01*
X766Y637D02*
X771Y637D01*
X798Y637D02*
X808Y637D01*
X821Y637D02*
X827Y637D01*
X845Y637D02*
X851Y637D01*
X862Y637D02*
X868Y637D01*
X624Y636D02*
X651Y636D01*
X669Y636D02*
X692Y636D01*
X713Y636D02*
X738Y636D01*
X760Y636D02*
X778Y636D01*
X798Y636D02*
X827Y636D01*
X845Y636D02*
X867Y636D01*
X625Y635D02*
X650Y635D01*
X667Y635D02*
X691Y635D01*
X711Y635D02*
X737Y635D01*
X758Y635D02*
X780Y635D01*
X798Y635D02*
X826Y635D01*
X846Y635D02*
X867Y635D01*
X626Y634D02*
X649Y634D01*
X667Y634D02*
X689Y634D01*
X711Y634D02*
X736Y634D01*
X757Y634D02*
X780Y634D01*
X798Y634D02*
X826Y634D01*
X846Y634D02*
X866Y634D01*
X627Y633D02*
X648Y633D01*
X667Y633D02*
X688Y633D01*
X710Y633D02*
X735Y633D01*
X757Y633D02*
X780Y633D01*
X798Y633D02*
X825Y633D01*
X847Y633D02*
X865Y633D01*
X629Y632D02*
X646Y632D01*
X667Y632D02*
X687Y632D01*
X711Y632D02*
X734Y632D01*
X757Y632D02*
X780Y632D01*
X798Y632D02*
X803Y632D01*
X806Y632D02*
X824Y632D01*
X848Y632D02*
X864Y632D01*
X630Y631D02*
X645Y631D01*
X668Y631D02*
X686Y631D01*
X711Y631D02*
X732Y631D01*
X758Y631D02*
X779Y631D01*
X799Y631D02*
X802Y631D01*
X808Y631D02*
X822Y631D01*
X850Y631D02*
X863Y631D01*
X504Y472D02*
X559Y472D01*
X614Y472D02*
X660Y472D01*
X825Y472D02*
X827Y472D01*
X885Y472D02*
X887Y472D01*
X942Y472D02*
X944Y472D01*
X500Y471D02*
X561Y471D01*
X609Y471D02*
X665Y471D01*
X822Y471D02*
X829Y471D01*
X883Y471D02*
X889Y471D01*
X939Y471D02*
X946Y471D01*
X498Y470D02*
X562Y470D01*
X608Y470D02*
X666Y470D01*
X821Y470D02*
X831Y470D01*
X881Y470D02*
X891Y470D01*
X938Y470D02*
X948Y470D01*
X497Y469D02*
X563Y469D01*
X606Y469D02*
X668Y469D01*
X820Y469D02*
X832Y469D01*
X880Y469D02*
X892Y469D01*
X937Y469D02*
X949Y469D01*
X495Y468D02*
X564Y468D01*
X605Y468D02*
X669Y468D01*
X820Y468D02*
X833Y468D01*
X880Y468D02*
X892Y468D01*
X937Y468D02*
X949Y468D01*
X494Y467D02*
X564Y467D01*
X604Y467D02*
X670Y467D01*
X819Y467D02*
X834Y467D01*
X879Y467D02*
X893Y467D01*
X936Y467D02*
X950Y467D01*
X494Y466D02*
X565Y466D01*
X603Y466D02*
X671Y466D01*
X819Y466D02*
X835Y466D01*
X879Y466D02*
X893Y466D01*
X936Y466D02*
X950Y466D01*
X493Y465D02*
X565Y465D01*
X602Y465D02*
X672Y465D01*
X819Y465D02*
X837Y465D01*
X879Y465D02*
X893Y465D01*
X936Y465D02*
X950Y465D01*
X492Y464D02*
X565Y464D01*
X602Y464D02*
X672Y464D01*
X819Y464D02*
X838Y464D01*
X879Y464D02*
X893Y464D01*
X936Y464D02*
X950Y464D01*
X492Y463D02*
X565Y463D01*
X601Y463D02*
X673Y463D01*
X819Y463D02*
X839Y463D01*
X879Y463D02*
X893Y463D01*
X936Y463D02*
X950Y463D01*
X491Y462D02*
X564Y462D01*
X601Y462D02*
X673Y462D01*
X819Y462D02*
X840Y462D01*
X879Y462D02*
X893Y462D01*
X936Y462D02*
X950Y462D01*
X491Y461D02*
X564Y461D01*
X600Y461D02*
X674Y461D01*
X820Y461D02*
X841Y461D01*
X879Y461D02*
X893Y461D01*
X936Y461D02*
X950Y461D01*
X491Y460D02*
X563Y460D01*
X600Y460D02*
X674Y460D01*
X820Y460D02*
X842Y460D01*
X879Y460D02*
X893Y460D01*
X936Y460D02*
X950Y460D01*
X490Y459D02*
X562Y459D01*
X600Y459D02*
X674Y459D01*
X821Y459D02*
X844Y459D01*
X879Y459D02*
X893Y459D01*
X936Y459D02*
X950Y459D01*
X490Y458D02*
X561Y458D01*
X600Y458D02*
X674Y458D01*
X822Y458D02*
X845Y458D01*
X879Y458D02*
X893Y458D01*
X936Y458D02*
X950Y458D01*
X490Y457D02*
X559Y457D01*
X600Y457D02*
X674Y457D01*
X823Y457D02*
X846Y457D01*
X879Y457D02*
X893Y457D01*
X936Y457D02*
X950Y457D01*
X490Y456D02*
X505Y456D01*
X600Y456D02*
X614Y456D01*
X660Y456D02*
X674Y456D01*
X825Y456D02*
X847Y456D01*
X879Y456D02*
X893Y456D01*
X936Y456D02*
X950Y456D01*
X490Y455D02*
X505Y455D01*
X600Y455D02*
X614Y455D01*
X660Y455D02*
X674Y455D01*
X826Y455D02*
X848Y455D01*
X879Y455D02*
X893Y455D01*
X936Y455D02*
X950Y455D01*
X490Y454D02*
X505Y454D01*
X600Y454D02*
X614Y454D01*
X660Y454D02*
X674Y454D01*
X827Y454D02*
X849Y454D01*
X879Y454D02*
X893Y454D01*
X936Y454D02*
X950Y454D01*
X490Y453D02*
X505Y453D01*
X600Y453D02*
X614Y453D01*
X660Y453D02*
X674Y453D01*
X828Y453D02*
X851Y453D01*
X879Y453D02*
X893Y453D01*
X936Y453D02*
X950Y453D01*
X490Y452D02*
X505Y452D01*
X600Y452D02*
X614Y452D01*
X660Y452D02*
X674Y452D01*
X829Y452D02*
X852Y452D01*
X879Y452D02*
X893Y452D01*
X936Y452D02*
X950Y452D01*
X490Y451D02*
X505Y451D01*
X600Y451D02*
X614Y451D01*
X660Y451D02*
X674Y451D01*
X830Y451D02*
X853Y451D01*
X879Y451D02*
X893Y451D01*
X936Y451D02*
X950Y451D01*
X490Y450D02*
X505Y450D01*
X600Y450D02*
X614Y450D01*
X660Y450D02*
X674Y450D01*
X832Y450D02*
X854Y450D01*
X879Y450D02*
X893Y450D01*
X936Y450D02*
X950Y450D01*
X490Y449D02*
X505Y449D01*
X600Y449D02*
X614Y449D01*
X660Y449D02*
X674Y449D01*
X833Y449D02*
X855Y449D01*
X879Y449D02*
X893Y449D01*
X936Y449D02*
X950Y449D01*
X490Y448D02*
X505Y448D01*
X600Y448D02*
X614Y448D01*
X660Y448D02*
X674Y448D01*
X834Y448D02*
X856Y448D01*
X879Y448D02*
X893Y448D01*
X936Y448D02*
X950Y448D01*
X490Y447D02*
X505Y447D01*
X600Y447D02*
X614Y447D01*
X660Y447D02*
X674Y447D01*
X835Y447D02*
X858Y447D01*
X879Y447D02*
X893Y447D01*
X936Y447D02*
X950Y447D01*
X490Y446D02*
X505Y446D01*
X600Y446D02*
X614Y446D01*
X660Y446D02*
X674Y446D01*
X836Y446D02*
X859Y446D01*
X879Y446D02*
X893Y446D01*
X936Y446D02*
X950Y446D01*
X490Y445D02*
X505Y445D01*
X600Y445D02*
X614Y445D01*
X660Y445D02*
X674Y445D01*
X837Y445D02*
X860Y445D01*
X879Y445D02*
X893Y445D01*
X936Y445D02*
X950Y445D01*
X490Y444D02*
X505Y444D01*
X600Y444D02*
X614Y444D01*
X660Y444D02*
X674Y444D01*
X839Y444D02*
X861Y444D01*
X879Y444D02*
X893Y444D01*
X936Y444D02*
X950Y444D01*
X490Y443D02*
X505Y443D01*
X600Y443D02*
X614Y443D01*
X660Y443D02*
X674Y443D01*
X840Y443D02*
X862Y443D01*
X879Y443D02*
X893Y443D01*
X936Y443D02*
X950Y443D01*
X490Y442D02*
X505Y442D01*
X600Y442D02*
X614Y442D01*
X660Y442D02*
X674Y442D01*
X841Y442D02*
X863Y442D01*
X879Y442D02*
X893Y442D01*
X936Y442D02*
X950Y442D01*
X490Y441D02*
X505Y441D01*
X600Y441D02*
X614Y441D01*
X660Y441D02*
X674Y441D01*
X842Y441D02*
X865Y441D01*
X879Y441D02*
X893Y441D01*
X936Y441D02*
X950Y441D01*
X490Y440D02*
X505Y440D01*
X600Y440D02*
X614Y440D01*
X660Y440D02*
X674Y440D01*
X843Y440D02*
X866Y440D01*
X879Y440D02*
X893Y440D01*
X936Y440D02*
X950Y440D01*
X490Y439D02*
X505Y439D01*
X600Y439D02*
X614Y439D01*
X660Y439D02*
X674Y439D01*
X844Y439D02*
X867Y439D01*
X879Y439D02*
X893Y439D01*
X936Y439D02*
X950Y439D01*
X490Y438D02*
X505Y438D01*
X600Y438D02*
X614Y438D01*
X660Y438D02*
X674Y438D01*
X846Y438D02*
X868Y438D01*
X879Y438D02*
X893Y438D01*
X936Y438D02*
X950Y438D01*
X490Y437D02*
X505Y437D01*
X600Y437D02*
X614Y437D01*
X660Y437D02*
X674Y437D01*
X847Y437D02*
X869Y437D01*
X879Y437D02*
X893Y437D01*
X936Y437D02*
X950Y437D01*
X490Y436D02*
X505Y436D01*
X600Y436D02*
X614Y436D01*
X660Y436D02*
X674Y436D01*
X848Y436D02*
X871Y436D01*
X879Y436D02*
X893Y436D01*
X936Y436D02*
X950Y436D01*
X490Y435D02*
X505Y435D01*
X600Y435D02*
X614Y435D01*
X660Y435D02*
X674Y435D01*
X849Y435D02*
X872Y435D01*
X879Y435D02*
X893Y435D01*
X936Y435D02*
X950Y435D01*
X490Y434D02*
X505Y434D01*
X600Y434D02*
X614Y434D01*
X660Y434D02*
X674Y434D01*
X850Y434D02*
X873Y434D01*
X879Y434D02*
X893Y434D01*
X936Y434D02*
X950Y434D01*
X490Y433D02*
X505Y433D01*
X600Y433D02*
X614Y433D01*
X660Y433D02*
X674Y433D01*
X851Y433D02*
X874Y433D01*
X879Y433D02*
X893Y433D01*
X936Y433D02*
X950Y433D01*
X490Y432D02*
X505Y432D01*
X600Y432D02*
X614Y432D01*
X660Y432D02*
X674Y432D01*
X853Y432D02*
X875Y432D01*
X879Y432D02*
X893Y432D01*
X936Y432D02*
X950Y432D01*
X490Y431D02*
X505Y431D01*
X600Y431D02*
X614Y431D01*
X660Y431D02*
X674Y431D01*
X854Y431D02*
X876Y431D01*
X879Y431D02*
X893Y431D01*
X936Y431D02*
X950Y431D01*
X490Y430D02*
X505Y430D01*
X600Y430D02*
X614Y430D01*
X660Y430D02*
X674Y430D01*
X855Y430D02*
X893Y430D01*
X936Y430D02*
X950Y430D01*
X490Y429D02*
X505Y429D01*
X600Y429D02*
X614Y429D01*
X660Y429D02*
X674Y429D01*
X856Y429D02*
X893Y429D01*
X936Y429D02*
X950Y429D01*
X490Y428D02*
X505Y428D01*
X600Y428D02*
X614Y428D01*
X660Y428D02*
X674Y428D01*
X857Y428D02*
X893Y428D01*
X936Y428D02*
X950Y428D01*
X490Y427D02*
X505Y427D01*
X600Y427D02*
X614Y427D01*
X660Y427D02*
X674Y427D01*
X858Y427D02*
X893Y427D01*
X936Y427D02*
X950Y427D01*
X491Y426D02*
X505Y426D01*
X600Y426D02*
X614Y426D01*
X660Y426D02*
X674Y426D01*
X860Y426D02*
X893Y426D01*
X936Y426D02*
X950Y426D01*
X491Y425D02*
X505Y425D01*
X600Y425D02*
X614Y425D01*
X660Y425D02*
X674Y425D01*
X861Y425D02*
X893Y425D01*
X936Y425D02*
X950Y425D01*
X491Y424D02*
X506Y424D01*
X600Y424D02*
X614Y424D01*
X660Y424D02*
X674Y424D01*
X862Y424D02*
X893Y424D01*
X936Y424D02*
X950Y424D01*
X491Y423D02*
X507Y423D01*
X600Y423D02*
X614Y423D01*
X660Y423D02*
X674Y423D01*
X863Y423D02*
X893Y423D01*
X936Y423D02*
X950Y423D01*
X491Y422D02*
X508Y422D01*
X600Y422D02*
X614Y422D01*
X660Y422D02*
X674Y422D01*
X864Y422D02*
X893Y422D01*
X936Y422D02*
X950Y422D01*
X492Y421D02*
X511Y421D01*
X600Y421D02*
X614Y421D01*
X660Y421D02*
X674Y421D01*
X865Y421D02*
X893Y421D01*
X936Y421D02*
X950Y421D01*
X492Y420D02*
X545Y420D01*
X600Y420D02*
X614Y420D01*
X660Y420D02*
X674Y420D01*
X728Y420D02*
X769Y420D01*
X867Y420D02*
X893Y420D01*
X936Y420D02*
X950Y420D01*
X492Y419D02*
X547Y419D01*
X600Y419D02*
X614Y419D01*
X660Y419D02*
X674Y419D01*
X729Y419D02*
X768Y419D01*
X868Y419D02*
X893Y419D01*
X936Y419D02*
X950Y419D01*
X493Y418D02*
X548Y418D01*
X600Y418D02*
X614Y418D01*
X660Y418D02*
X674Y418D01*
X730Y418D02*
X767Y418D01*
X869Y418D02*
X893Y418D01*
X936Y418D02*
X950Y418D01*
X493Y417D02*
X549Y417D01*
X600Y417D02*
X614Y417D01*
X660Y417D02*
X674Y417D01*
X730Y417D02*
X766Y417D01*
X870Y417D02*
X893Y417D01*
X936Y417D02*
X950Y417D01*
X494Y416D02*
X549Y416D01*
X600Y416D02*
X614Y416D01*
X660Y416D02*
X674Y416D01*
X730Y416D02*
X765Y416D01*
X871Y416D02*
X893Y416D01*
X936Y416D02*
X950Y416D01*
X495Y415D02*
X549Y415D01*
X600Y415D02*
X614Y415D01*
X660Y415D02*
X674Y415D01*
X731Y415D02*
X764Y415D01*
X872Y415D02*
X893Y415D01*
X936Y415D02*
X950Y415D01*
X496Y414D02*
X550Y414D01*
X600Y414D02*
X614Y414D01*
X660Y414D02*
X674Y414D01*
X731Y414D02*
X763Y414D01*
X874Y414D02*
X893Y414D01*
X936Y414D02*
X950Y414D01*
X496Y413D02*
X550Y413D01*
X600Y413D02*
X614Y413D01*
X660Y413D02*
X674Y413D01*
X731Y413D02*
X762Y413D01*
X874Y413D02*
X893Y413D01*
X936Y413D02*
X950Y413D01*
X496Y412D02*
X550Y412D01*
X600Y412D02*
X614Y412D01*
X660Y412D02*
X674Y412D01*
X731Y412D02*
X762Y412D01*
X873Y412D02*
X893Y412D01*
X936Y412D02*
X950Y412D01*
X495Y411D02*
X549Y411D01*
X600Y411D02*
X614Y411D01*
X660Y411D02*
X674Y411D01*
X731Y411D02*
X761Y411D01*
X872Y411D02*
X893Y411D01*
X936Y411D02*
X950Y411D01*
X494Y410D02*
X549Y410D01*
X600Y410D02*
X614Y410D01*
X660Y410D02*
X674Y410D01*
X731Y410D02*
X760Y410D01*
X871Y410D02*
X893Y410D01*
X936Y410D02*
X950Y410D01*
X493Y409D02*
X549Y409D01*
X600Y409D02*
X614Y409D01*
X660Y409D02*
X674Y409D01*
X731Y409D02*
X760Y409D01*
X870Y409D02*
X893Y409D01*
X936Y409D02*
X950Y409D01*
X493Y408D02*
X548Y408D01*
X600Y408D02*
X614Y408D01*
X660Y408D02*
X674Y408D01*
X731Y408D02*
X759Y408D01*
X869Y408D02*
X893Y408D01*
X936Y408D02*
X950Y408D01*
X492Y407D02*
X547Y407D01*
X600Y407D02*
X614Y407D01*
X660Y407D02*
X674Y407D01*
X731Y407D02*
X759Y407D01*
X868Y407D02*
X893Y407D01*
X936Y407D02*
X950Y407D01*
X985Y407D02*
X991Y407D01*
X492Y406D02*
X545Y406D01*
X600Y406D02*
X614Y406D01*
X660Y406D02*
X674Y406D01*
X731Y406D02*
X759Y406D01*
X866Y406D02*
X893Y406D01*
X936Y406D02*
X950Y406D01*
X983Y406D02*
X992Y406D01*
X492Y405D02*
X510Y405D01*
X600Y405D02*
X614Y405D01*
X660Y405D02*
X674Y405D01*
X731Y405D02*
X758Y405D01*
X865Y405D02*
X893Y405D01*
X936Y405D02*
X950Y405D01*
X983Y405D02*
X993Y405D01*
X491Y404D02*
X508Y404D01*
X600Y404D02*
X614Y404D01*
X660Y404D02*
X674Y404D01*
X731Y404D02*
X758Y404D01*
X864Y404D02*
X893Y404D01*
X936Y404D02*
X950Y404D01*
X982Y404D02*
X994Y404D01*
X491Y403D02*
X507Y403D01*
X600Y403D02*
X614Y403D01*
X660Y403D02*
X674Y403D01*
X730Y403D02*
X758Y403D01*
X863Y403D02*
X893Y403D01*
X936Y403D02*
X950Y403D01*
X981Y403D02*
X995Y403D01*
X491Y402D02*
X506Y402D01*
X600Y402D02*
X614Y402D01*
X660Y402D02*
X674Y402D01*
X730Y402D02*
X758Y402D01*
X862Y402D02*
X893Y402D01*
X936Y402D02*
X950Y402D01*
X981Y402D02*
X995Y402D01*
X491Y401D02*
X505Y401D01*
X600Y401D02*
X614Y401D01*
X660Y401D02*
X674Y401D01*
X729Y401D02*
X758Y401D01*
X861Y401D02*
X893Y401D01*
X936Y401D02*
X950Y401D01*
X981Y401D02*
X995Y401D01*
X490Y400D02*
X505Y400D01*
X600Y400D02*
X614Y400D01*
X660Y400D02*
X674Y400D01*
X729Y400D02*
X757Y400D01*
X859Y400D02*
X893Y400D01*
X936Y400D02*
X950Y400D01*
X981Y400D02*
X995Y400D01*
X490Y399D02*
X505Y399D01*
X600Y399D02*
X614Y399D01*
X660Y399D02*
X674Y399D01*
X728Y399D02*
X758Y399D01*
X858Y399D02*
X893Y399D01*
X936Y399D02*
X950Y399D01*
X981Y399D02*
X995Y399D01*
X490Y398D02*
X505Y398D01*
X600Y398D02*
X614Y398D01*
X660Y398D02*
X674Y398D01*
X857Y398D02*
X893Y398D01*
X936Y398D02*
X950Y398D01*
X981Y398D02*
X995Y398D01*
X490Y397D02*
X505Y397D01*
X600Y397D02*
X614Y397D01*
X660Y397D02*
X674Y397D01*
X856Y397D02*
X893Y397D01*
X936Y397D02*
X950Y397D01*
X981Y397D02*
X995Y397D01*
X490Y396D02*
X505Y396D01*
X600Y396D02*
X614Y396D01*
X660Y396D02*
X674Y396D01*
X855Y396D02*
X893Y396D01*
X936Y396D02*
X950Y396D01*
X981Y396D02*
X995Y396D01*
X490Y395D02*
X505Y395D01*
X600Y395D02*
X614Y395D01*
X660Y395D02*
X674Y395D01*
X854Y395D02*
X876Y395D01*
X879Y395D02*
X893Y395D01*
X936Y395D02*
X950Y395D01*
X981Y395D02*
X995Y395D01*
X490Y394D02*
X505Y394D01*
X600Y394D02*
X614Y394D01*
X660Y394D02*
X674Y394D01*
X852Y394D02*
X875Y394D01*
X879Y394D02*
X893Y394D01*
X936Y394D02*
X950Y394D01*
X981Y394D02*
X995Y394D01*
X490Y393D02*
X505Y393D01*
X600Y393D02*
X614Y393D01*
X660Y393D02*
X674Y393D01*
X851Y393D02*
X874Y393D01*
X879Y393D02*
X893Y393D01*
X936Y393D02*
X950Y393D01*
X981Y393D02*
X995Y393D01*
X490Y392D02*
X505Y392D01*
X600Y392D02*
X614Y392D01*
X660Y392D02*
X674Y392D01*
X850Y392D02*
X873Y392D01*
X879Y392D02*
X893Y392D01*
X936Y392D02*
X950Y392D01*
X981Y392D02*
X995Y392D01*
X490Y391D02*
X505Y391D01*
X600Y391D02*
X614Y391D01*
X660Y391D02*
X674Y391D01*
X849Y391D02*
X871Y391D01*
X879Y391D02*
X893Y391D01*
X936Y391D02*
X950Y391D01*
X981Y391D02*
X995Y391D01*
X490Y390D02*
X505Y390D01*
X600Y390D02*
X614Y390D01*
X660Y390D02*
X674Y390D01*
X848Y390D02*
X870Y390D01*
X879Y390D02*
X893Y390D01*
X936Y390D02*
X950Y390D01*
X981Y390D02*
X995Y390D01*
X490Y389D02*
X505Y389D01*
X600Y389D02*
X614Y389D01*
X660Y389D02*
X674Y389D01*
X847Y389D02*
X869Y389D01*
X879Y389D02*
X893Y389D01*
X936Y389D02*
X950Y389D01*
X981Y389D02*
X995Y389D01*
X490Y388D02*
X505Y388D01*
X600Y388D02*
X614Y388D01*
X660Y388D02*
X674Y388D01*
X845Y388D02*
X868Y388D01*
X879Y388D02*
X893Y388D01*
X936Y388D02*
X950Y388D01*
X981Y388D02*
X995Y388D01*
X490Y387D02*
X505Y387D01*
X600Y387D02*
X614Y387D01*
X660Y387D02*
X674Y387D01*
X844Y387D02*
X867Y387D01*
X879Y387D02*
X893Y387D01*
X936Y387D02*
X950Y387D01*
X981Y387D02*
X995Y387D01*
X490Y386D02*
X505Y386D01*
X600Y386D02*
X614Y386D01*
X660Y386D02*
X674Y386D01*
X843Y386D02*
X866Y386D01*
X879Y386D02*
X893Y386D01*
X936Y386D02*
X950Y386D01*
X981Y386D02*
X995Y386D01*
X490Y385D02*
X505Y385D01*
X600Y385D02*
X614Y385D01*
X660Y385D02*
X674Y385D01*
X842Y385D02*
X864Y385D01*
X879Y385D02*
X893Y385D01*
X936Y385D02*
X950Y385D01*
X981Y385D02*
X995Y385D01*
X490Y384D02*
X505Y384D01*
X600Y384D02*
X614Y384D01*
X660Y384D02*
X674Y384D01*
X841Y384D02*
X863Y384D01*
X879Y384D02*
X893Y384D01*
X936Y384D02*
X950Y384D01*
X981Y384D02*
X995Y384D01*
X490Y383D02*
X505Y383D01*
X600Y383D02*
X614Y383D01*
X660Y383D02*
X674Y383D01*
X840Y383D02*
X862Y383D01*
X879Y383D02*
X893Y383D01*
X936Y383D02*
X950Y383D01*
X981Y383D02*
X995Y383D01*
X490Y382D02*
X505Y382D01*
X600Y382D02*
X614Y382D01*
X660Y382D02*
X674Y382D01*
X838Y382D02*
X861Y382D01*
X879Y382D02*
X893Y382D01*
X936Y382D02*
X950Y382D01*
X981Y382D02*
X995Y382D01*
X490Y381D02*
X505Y381D01*
X600Y381D02*
X614Y381D01*
X660Y381D02*
X674Y381D01*
X837Y381D02*
X860Y381D01*
X879Y381D02*
X893Y381D01*
X936Y381D02*
X950Y381D01*
X981Y381D02*
X995Y381D01*
X490Y380D02*
X505Y380D01*
X600Y380D02*
X614Y380D01*
X660Y380D02*
X674Y380D01*
X836Y380D02*
X859Y380D01*
X879Y380D02*
X893Y380D01*
X936Y380D02*
X950Y380D01*
X981Y380D02*
X995Y380D01*
X490Y379D02*
X505Y379D01*
X600Y379D02*
X614Y379D01*
X660Y379D02*
X674Y379D01*
X835Y379D02*
X857Y379D01*
X879Y379D02*
X893Y379D01*
X936Y379D02*
X950Y379D01*
X981Y379D02*
X995Y379D01*
X490Y378D02*
X505Y378D01*
X600Y378D02*
X614Y378D01*
X660Y378D02*
X674Y378D01*
X834Y378D02*
X856Y378D01*
X879Y378D02*
X893Y378D01*
X936Y378D02*
X950Y378D01*
X981Y378D02*
X995Y378D01*
X490Y377D02*
X505Y377D01*
X600Y377D02*
X614Y377D01*
X660Y377D02*
X674Y377D01*
X833Y377D02*
X855Y377D01*
X879Y377D02*
X893Y377D01*
X936Y377D02*
X950Y377D01*
X981Y377D02*
X995Y377D01*
X490Y376D02*
X505Y376D01*
X600Y376D02*
X614Y376D01*
X660Y376D02*
X674Y376D01*
X831Y376D02*
X854Y376D01*
X879Y376D02*
X893Y376D01*
X936Y376D02*
X950Y376D01*
X981Y376D02*
X995Y376D01*
X490Y375D02*
X505Y375D01*
X600Y375D02*
X614Y375D01*
X660Y375D02*
X674Y375D01*
X830Y375D02*
X853Y375D01*
X879Y375D02*
X893Y375D01*
X936Y375D02*
X950Y375D01*
X981Y375D02*
X995Y375D01*
X490Y374D02*
X505Y374D01*
X600Y374D02*
X614Y374D01*
X660Y374D02*
X674Y374D01*
X829Y374D02*
X852Y374D01*
X879Y374D02*
X893Y374D01*
X936Y374D02*
X951Y374D01*
X980Y374D02*
X995Y374D01*
X490Y373D02*
X505Y373D01*
X600Y373D02*
X614Y373D01*
X660Y373D02*
X674Y373D01*
X828Y373D02*
X850Y373D01*
X879Y373D02*
X893Y373D01*
X936Y373D02*
X951Y373D01*
X980Y373D02*
X995Y373D01*
X490Y372D02*
X505Y372D01*
X600Y372D02*
X614Y372D01*
X660Y372D02*
X674Y372D01*
X827Y372D02*
X849Y372D01*
X879Y372D02*
X893Y372D01*
X936Y372D02*
X952Y372D01*
X979Y372D02*
X995Y372D01*
X490Y371D02*
X505Y371D01*
X600Y371D02*
X614Y371D01*
X660Y371D02*
X674Y371D01*
X825Y371D02*
X848Y371D01*
X879Y371D02*
X893Y371D01*
X937Y371D02*
X953Y371D01*
X978Y371D02*
X994Y371D01*
X490Y370D02*
X505Y370D01*
X600Y370D02*
X614Y370D01*
X660Y370D02*
X674Y370D01*
X824Y370D02*
X847Y370D01*
X879Y370D02*
X893Y370D01*
X937Y370D02*
X955Y370D01*
X976Y370D02*
X994Y370D01*
X490Y369D02*
X559Y369D01*
X600Y369D02*
X674Y369D01*
X823Y369D02*
X846Y369D01*
X879Y369D02*
X893Y369D01*
X937Y369D02*
X994Y369D01*
X490Y368D02*
X561Y368D01*
X600Y368D02*
X674Y368D01*
X822Y368D02*
X845Y368D01*
X879Y368D02*
X893Y368D01*
X938Y368D02*
X993Y368D01*
X491Y367D02*
X563Y367D01*
X600Y367D02*
X674Y367D01*
X821Y367D02*
X843Y367D01*
X879Y367D02*
X893Y367D01*
X938Y367D02*
X993Y367D01*
X491Y366D02*
X563Y366D01*
X600Y366D02*
X674Y366D01*
X820Y366D02*
X842Y366D01*
X879Y366D02*
X893Y366D01*
X939Y366D02*
X992Y366D01*
X491Y365D02*
X564Y365D01*
X600Y365D02*
X673Y365D01*
X819Y365D02*
X841Y365D01*
X879Y365D02*
X893Y365D01*
X939Y365D02*
X992Y365D01*
X491Y364D02*
X564Y364D01*
X601Y364D02*
X673Y364D01*
X819Y364D02*
X840Y364D01*
X879Y364D02*
X893Y364D01*
X940Y364D02*
X991Y364D01*
X492Y363D02*
X565Y363D01*
X601Y363D02*
X673Y363D01*
X819Y363D02*
X839Y363D01*
X879Y363D02*
X893Y363D01*
X941Y363D02*
X990Y363D01*
X492Y362D02*
X565Y362D01*
X602Y362D02*
X672Y362D01*
X819Y362D02*
X838Y362D01*
X879Y362D02*
X893Y362D01*
X942Y362D02*
X989Y362D01*
X493Y361D02*
X565Y361D01*
X602Y361D02*
X672Y361D01*
X819Y361D02*
X836Y361D01*
X879Y361D02*
X893Y361D01*
X942Y361D02*
X989Y361D01*
X494Y360D02*
X564Y360D01*
X603Y360D02*
X671Y360D01*
X819Y360D02*
X835Y360D01*
X879Y360D02*
X893Y360D01*
X943Y360D02*
X987Y360D01*
X495Y359D02*
X564Y359D01*
X604Y359D02*
X670Y359D01*
X819Y359D02*
X834Y359D01*
X879Y359D02*
X893Y359D01*
X945Y359D02*
X986Y359D01*
X496Y358D02*
X564Y358D01*
X605Y358D02*
X669Y358D01*
X820Y358D02*
X833Y358D01*
X880Y358D02*
X892Y358D01*
X946Y358D02*
X985Y358D01*
X497Y357D02*
X563Y357D01*
X606Y357D02*
X668Y357D01*
X820Y357D02*
X832Y357D01*
X881Y357D02*
X891Y357D01*
X948Y357D02*
X983Y357D01*
X498Y356D02*
X562Y356D01*
X608Y356D02*
X666Y356D01*
X821Y356D02*
X831Y356D01*
X881Y356D02*
X891Y356D01*
X949Y356D02*
X981Y356D01*
X500Y355D02*
X561Y355D01*
X610Y355D02*
X664Y355D01*
X823Y355D02*
X829Y355D01*
X883Y355D02*
X889Y355D01*
X952Y355D02*
X978Y355D01*
X703Y204D02*
X708Y204D01*
X702Y203D02*
X709Y203D01*
X702Y202D02*
X709Y202D01*
X701Y201D02*
X710Y201D01*
X746Y201D02*
X758Y201D01*
X870Y201D02*
X894Y201D01*
X701Y200D02*
X710Y200D01*
X746Y200D02*
X759Y200D01*
X868Y200D02*
X894Y200D01*
X701Y199D02*
X710Y199D01*
X745Y199D02*
X759Y199D01*
X867Y199D02*
X894Y199D01*
X702Y198D02*
X709Y198D01*
X745Y198D02*
X759Y198D01*
X866Y198D02*
X894Y198D01*
X702Y197D02*
X709Y197D01*
X745Y197D02*
X759Y197D01*
X866Y197D02*
X894Y197D01*
X703Y196D02*
X708Y196D01*
X745Y196D02*
X758Y196D01*
X865Y196D02*
X894Y196D01*
X745Y195D02*
X750Y195D01*
X865Y195D02*
X871Y195D01*
X889Y195D02*
X894Y195D01*
X745Y194D02*
X750Y194D01*
X865Y194D02*
X870Y194D01*
X889Y194D02*
X894Y194D01*
X745Y193D02*
X750Y193D01*
X865Y193D02*
X870Y193D01*
X889Y193D02*
X894Y193D01*
X745Y192D02*
X750Y192D01*
X865Y192D02*
X870Y192D01*
X889Y192D02*
X894Y192D01*
X745Y191D02*
X750Y191D01*
X865Y191D02*
X870Y191D01*
X889Y191D02*
X894Y191D01*
X745Y190D02*
X750Y190D01*
X790Y190D02*
X793Y190D01*
X803Y190D02*
X804Y190D01*
X865Y190D02*
X870Y190D01*
X889Y190D02*
X894Y190D01*
X745Y189D02*
X750Y189D01*
X787Y189D02*
X796Y189D01*
X802Y189D02*
X805Y189D01*
X865Y189D02*
X870Y189D01*
X889Y189D02*
X894Y189D01*
X608Y188D02*
X624Y188D01*
X647Y188D02*
X664Y188D01*
X702Y188D02*
X715Y188D01*
X745Y188D02*
X750Y188D01*
X785Y188D02*
X797Y188D01*
X801Y188D02*
X806Y188D01*
X828Y188D02*
X843Y188D01*
X865Y188D02*
X870Y188D01*
X889Y188D02*
X894Y188D01*
X606Y187D02*
X625Y187D01*
X646Y187D02*
X666Y187D01*
X702Y187D02*
X715Y187D01*
X745Y187D02*
X750Y187D01*
X784Y187D02*
X799Y187D01*
X801Y187D02*
X806Y187D01*
X827Y187D02*
X844Y187D01*
X865Y187D02*
X871Y187D01*
X889Y187D02*
X894Y187D01*
X605Y186D02*
X625Y186D01*
X646Y186D02*
X667Y186D01*
X701Y186D02*
X716Y186D01*
X745Y186D02*
X750Y186D01*
X783Y186D02*
X806Y186D01*
X825Y186D02*
X845Y186D01*
X865Y186D02*
X894Y186D01*
X604Y185D02*
X625Y185D01*
X646Y185D02*
X669Y185D01*
X701Y185D02*
X715Y185D01*
X745Y185D02*
X750Y185D01*
X782Y185D02*
X806Y185D01*
X824Y185D02*
X847Y185D01*
X866Y185D02*
X894Y185D01*
X604Y184D02*
X624Y184D01*
X646Y184D02*
X670Y184D01*
X701Y184D02*
X715Y184D01*
X745Y184D02*
X750Y184D01*
X781Y184D02*
X790Y184D01*
X793Y184D02*
X806Y184D01*
X823Y184D02*
X847Y184D01*
X866Y184D02*
X894Y184D01*
X603Y183D02*
X623Y183D01*
X648Y183D02*
X671Y183D01*
X701Y183D02*
X714Y183D01*
X745Y183D02*
X750Y183D01*
X780Y183D02*
X788Y183D01*
X795Y183D02*
X806Y183D01*
X822Y183D02*
X848Y183D01*
X867Y183D02*
X894Y183D01*
X603Y182D02*
X609Y182D01*
X663Y182D02*
X672Y182D01*
X701Y182D02*
X707Y182D01*
X745Y182D02*
X750Y182D01*
X779Y182D02*
X787Y182D01*
X796Y182D02*
X806Y182D01*
X822Y182D02*
X829Y182D01*
X842Y182D02*
X849Y182D01*
X868Y182D02*
X894Y182D01*
X603Y181D02*
X608Y181D01*
X665Y181D02*
X673Y181D01*
X701Y181D02*
X707Y181D01*
X745Y181D02*
X750Y181D01*
X778Y181D02*
X786Y181D01*
X797Y181D02*
X806Y181D01*
X821Y181D02*
X828Y181D01*
X843Y181D02*
X849Y181D01*
X870Y181D02*
X894Y181D01*
X603Y180D02*
X608Y180D01*
X666Y180D02*
X673Y180D01*
X701Y180D02*
X707Y180D01*
X745Y180D02*
X750Y180D01*
X778Y180D02*
X785Y180D01*
X798Y180D02*
X806Y180D01*
X821Y180D02*
X827Y180D01*
X844Y180D02*
X850Y180D01*
X877Y180D02*
X883Y180D01*
X888Y180D02*
X894Y180D01*
X603Y179D02*
X608Y179D01*
X667Y179D02*
X674Y179D01*
X701Y179D02*
X707Y179D01*
X745Y179D02*
X750Y179D01*
X777Y179D02*
X783Y179D01*
X799Y179D02*
X806Y179D01*
X821Y179D02*
X826Y179D01*
X845Y179D02*
X850Y179D01*
X877Y179D02*
X883Y179D01*
X889Y179D02*
X894Y179D01*
X603Y178D02*
X608Y178D01*
X668Y178D02*
X674Y178D01*
X701Y178D02*
X707Y178D01*
X745Y178D02*
X750Y178D01*
X777Y178D02*
X783Y178D01*
X800Y178D02*
X806Y178D01*
X821Y178D02*
X826Y178D01*
X845Y178D02*
X850Y178D01*
X876Y178D02*
X882Y178D01*
X889Y178D02*
X894Y178D01*
X602Y177D02*
X608Y177D01*
X669Y177D02*
X675Y177D01*
X701Y177D02*
X707Y177D01*
X745Y177D02*
X750Y177D01*
X777Y177D02*
X782Y177D01*
X801Y177D02*
X806Y177D01*
X821Y177D02*
X826Y177D01*
X845Y177D02*
X850Y177D01*
X875Y177D02*
X882Y177D01*
X889Y177D02*
X894Y177D01*
X602Y176D02*
X608Y176D01*
X611Y176D02*
X622Y176D01*
X670Y176D02*
X675Y176D01*
X701Y176D02*
X707Y176D01*
X745Y176D02*
X750Y176D01*
X777Y176D02*
X782Y176D01*
X801Y176D02*
X806Y176D01*
X821Y176D02*
X826Y176D01*
X845Y176D02*
X850Y176D01*
X875Y176D02*
X881Y176D01*
X889Y176D02*
X894Y176D01*
X602Y175D02*
X626Y175D01*
X670Y175D02*
X675Y175D01*
X701Y175D02*
X707Y175D01*
X745Y175D02*
X750Y175D01*
X777Y175D02*
X782Y175D01*
X801Y175D02*
X806Y175D01*
X821Y175D02*
X826Y175D01*
X845Y175D02*
X850Y175D01*
X874Y175D02*
X880Y175D01*
X889Y175D02*
X894Y175D01*
X602Y174D02*
X628Y174D01*
X670Y174D02*
X675Y174D01*
X701Y174D02*
X707Y174D01*
X745Y174D02*
X750Y174D01*
X777Y174D02*
X782Y174D01*
X801Y174D02*
X806Y174D01*
X821Y174D02*
X826Y174D01*
X845Y174D02*
X850Y174D01*
X874Y174D02*
X880Y174D01*
X889Y174D02*
X894Y174D01*
X602Y173D02*
X629Y173D01*
X670Y173D02*
X675Y173D01*
X701Y173D02*
X707Y173D01*
X745Y173D02*
X750Y173D01*
X777Y173D02*
X782Y173D01*
X801Y173D02*
X806Y173D01*
X821Y173D02*
X850Y173D01*
X873Y173D02*
X879Y173D01*
X889Y173D02*
X894Y173D01*
X602Y172D02*
X629Y172D01*
X670Y172D02*
X675Y172D01*
X701Y172D02*
X707Y172D01*
X745Y172D02*
X750Y172D01*
X777Y172D02*
X782Y172D01*
X801Y172D02*
X806Y172D01*
X821Y172D02*
X850Y172D01*
X872Y172D02*
X879Y172D01*
X889Y172D02*
X894Y172D01*
X602Y171D02*
X630Y171D01*
X670Y171D02*
X675Y171D01*
X701Y171D02*
X707Y171D01*
X745Y171D02*
X750Y171D01*
X777Y171D02*
X782Y171D01*
X801Y171D02*
X806Y171D01*
X821Y171D02*
X850Y171D01*
X872Y171D02*
X878Y171D01*
X889Y171D02*
X894Y171D01*
X602Y170D02*
X630Y170D01*
X670Y170D02*
X675Y170D01*
X701Y170D02*
X707Y170D01*
X745Y170D02*
X750Y170D01*
X777Y170D02*
X782Y170D01*
X801Y170D02*
X806Y170D01*
X821Y170D02*
X850Y170D01*
X871Y170D02*
X877Y170D01*
X889Y170D02*
X894Y170D01*
X602Y169D02*
X608Y169D01*
X625Y169D02*
X631Y169D01*
X670Y169D02*
X675Y169D01*
X701Y169D02*
X707Y169D01*
X745Y169D02*
X750Y169D01*
X777Y169D02*
X782Y169D01*
X801Y169D02*
X806Y169D01*
X821Y169D02*
X850Y169D01*
X871Y169D02*
X877Y169D01*
X889Y169D02*
X894Y169D01*
X602Y168D02*
X608Y168D01*
X626Y168D02*
X631Y168D01*
X670Y168D02*
X675Y168D01*
X701Y168D02*
X707Y168D01*
X745Y168D02*
X750Y168D01*
X777Y168D02*
X782Y168D01*
X801Y168D02*
X806Y168D01*
X822Y168D02*
X850Y168D01*
X870Y168D02*
X876Y168D01*
X889Y168D02*
X894Y168D01*
X602Y167D02*
X607Y167D01*
X626Y167D02*
X631Y167D01*
X669Y167D02*
X675Y167D01*
X701Y167D02*
X707Y167D01*
X745Y167D02*
X750Y167D01*
X777Y167D02*
X782Y167D01*
X801Y167D02*
X806Y167D01*
X845Y167D02*
X850Y167D01*
X870Y167D02*
X876Y167D01*
X889Y167D02*
X894Y167D01*
X602Y166D02*
X607Y166D01*
X626Y166D02*
X631Y166D01*
X669Y166D02*
X675Y166D01*
X701Y166D02*
X707Y166D01*
X745Y166D02*
X750Y166D01*
X777Y166D02*
X782Y166D01*
X800Y166D02*
X806Y166D01*
X845Y166D02*
X850Y166D01*
X869Y166D02*
X875Y166D01*
X889Y166D02*
X894Y166D01*
X602Y165D02*
X607Y165D01*
X626Y165D02*
X631Y165D01*
X668Y165D02*
X674Y165D01*
X701Y165D02*
X707Y165D01*
X745Y165D02*
X750Y165D01*
X777Y165D02*
X783Y165D01*
X800Y165D02*
X806Y165D01*
X845Y165D02*
X850Y165D01*
X868Y165D02*
X875Y165D01*
X889Y165D02*
X894Y165D01*
X602Y164D02*
X608Y164D01*
X626Y164D02*
X631Y164D01*
X667Y164D02*
X674Y164D01*
X701Y164D02*
X707Y164D01*
X745Y164D02*
X750Y164D01*
X777Y164D02*
X784Y164D01*
X799Y164D02*
X806Y164D01*
X844Y164D02*
X850Y164D01*
X868Y164D02*
X874Y164D01*
X889Y164D02*
X894Y164D01*
X602Y163D02*
X610Y163D01*
X626Y163D02*
X631Y163D01*
X665Y163D02*
X673Y163D01*
X701Y163D02*
X707Y163D01*
X745Y163D02*
X750Y163D01*
X778Y163D02*
X785Y163D01*
X798Y163D02*
X806Y163D01*
X844Y163D02*
X850Y163D01*
X867Y163D02*
X873Y163D01*
X889Y163D02*
X894Y163D01*
X602Y162D02*
X611Y162D01*
X625Y162D02*
X631Y162D01*
X664Y162D02*
X672Y162D01*
X701Y162D02*
X707Y162D01*
X745Y162D02*
X750Y162D01*
X778Y162D02*
X786Y162D01*
X797Y162D02*
X806Y162D01*
X842Y162D02*
X849Y162D01*
X867Y162D02*
X873Y162D01*
X889Y162D02*
X894Y162D01*
X602Y161D02*
X613Y161D01*
X624Y161D02*
X631Y161D01*
X663Y161D02*
X671Y161D01*
X701Y161D02*
X707Y161D01*
X745Y161D02*
X750Y161D01*
X779Y161D02*
X787Y161D01*
X796Y161D02*
X806Y161D01*
X841Y161D02*
X849Y161D01*
X866Y161D02*
X872Y161D01*
X889Y161D02*
X894Y161D01*
X602Y160D02*
X630Y160D01*
X647Y160D02*
X670Y160D01*
X694Y160D02*
X714Y160D01*
X738Y160D02*
X758Y160D01*
X780Y160D02*
X789Y160D01*
X794Y160D02*
X806Y160D01*
X822Y160D02*
X848Y160D01*
X865Y160D02*
X872Y160D01*
X889Y160D02*
X894Y160D01*
X602Y159D02*
X630Y159D01*
X646Y159D02*
X669Y159D01*
X693Y159D02*
X715Y159D01*
X737Y159D02*
X759Y159D01*
X781Y159D02*
X806Y159D01*
X821Y159D02*
X847Y159D01*
X865Y159D02*
X871Y159D01*
X889Y159D02*
X894Y159D01*
X602Y158D02*
X629Y158D01*
X646Y158D02*
X668Y158D01*
X693Y158D02*
X716Y158D01*
X736Y158D02*
X759Y158D01*
X782Y158D02*
X806Y158D01*
X821Y158D02*
X846Y158D01*
X865Y158D02*
X870Y158D01*
X889Y158D02*
X894Y158D01*
X602Y157D02*
X607Y157D01*
X609Y157D02*
X628Y157D01*
X646Y157D02*
X667Y157D01*
X693Y157D02*
X715Y157D01*
X736Y157D02*
X759Y157D01*
X784Y157D02*
X799Y157D01*
X801Y157D02*
X806Y157D01*
X821Y157D02*
X845Y157D01*
X865Y157D02*
X870Y157D01*
X889Y157D02*
X894Y157D01*
X602Y156D02*
X606Y156D01*
X611Y156D02*
X627Y156D01*
X646Y156D02*
X665Y156D01*
X693Y156D02*
X715Y156D01*
X737Y156D02*
X759Y156D01*
X785Y156D02*
X798Y156D01*
X801Y156D02*
X806Y156D01*
X821Y156D02*
X844Y156D01*
X865Y156D02*
X869Y156D01*
X889Y156D02*
X893Y156D01*
X603Y155D02*
X605Y155D01*
X612Y155D02*
X625Y155D01*
X647Y155D02*
X664Y155D01*
X694Y155D02*
X714Y155D01*
X738Y155D02*
X758Y155D01*
X786Y155D02*
X797Y155D01*
X801Y155D02*
X806Y155D01*
X822Y155D02*
X842Y155D01*
X866Y155D02*
X868Y155D01*
X890Y155D02*
X892Y155D01*
X788Y154D02*
X795Y154D01*
X801Y154D02*
X806Y154D01*
X801Y153D02*
X806Y153D01*
X801Y152D02*
X806Y152D01*
X801Y151D02*
X806Y151D01*
X801Y150D02*
X806Y150D01*
X801Y149D02*
X806Y149D01*
X801Y148D02*
X806Y148D01*
X801Y147D02*
X806Y147D01*
X801Y146D02*
X806Y146D01*
X801Y145D02*
X806Y145D01*
X801Y144D02*
X806Y144D01*
X802Y143D02*
X806Y143D01*
X803Y142D02*
X804Y142D01*
D02*
G04 End of Silk0*
M02*