G04 MADE WITH FRITZING*
G04 WWW.FRITZING.ORG*
G04 DOUBLE SIDED*
G04 HOLES PLATED*
G04 CONTOUR ON CENTER OF CONTOUR VECTOR*
%ASAXBY*%
%FSLAX23Y23*%
%MOIN*%
%OFA0B0*%
%SFA1.0B1.0*%
%ADD10C,0.069055*%
%ADD11C,0.049370*%
%ADD12R,0.069055X0.025748*%
%ADD13R,0.069055X0.065118*%
%LNMASK1*%
G90*
G70*
G54D10*
X1239Y47D03*
X1099Y47D03*
X1309Y47D03*
X1169Y47D03*
X329Y47D03*
X118Y47D03*
X1450Y47D03*
X48Y47D03*
X1029Y47D03*
X188Y47D03*
X1380Y47D03*
X539Y47D03*
X609Y47D03*
X469Y47D03*
X258Y47D03*
X399Y47D03*
X959Y47D03*
X889Y47D03*
X819Y47D03*
X679Y47D03*
X749Y47D03*
G54D11*
X495Y245D03*
X985Y244D03*
X355Y245D03*
X215Y245D03*
X1115Y244D03*
X1255Y244D03*
X1395Y244D03*
X75Y245D03*
X122Y454D03*
X262Y454D03*
X402Y454D03*
X1350Y454D03*
X1210Y454D03*
X1070Y454D03*
X640Y594D03*
X844Y594D03*
X804Y554D03*
X678Y554D03*
X707Y509D03*
X707Y459D03*
X662Y284D03*
X707Y304D03*
X707Y359D03*
X707Y409D03*
X783Y499D03*
X783Y448D03*
X783Y399D03*
X783Y349D03*
X783Y299D03*
X830Y284D03*
G54D12*
X603Y532D03*
X603Y506D03*
X603Y480D03*
X603Y455D03*
X603Y429D03*
X603Y404D03*
X603Y378D03*
X603Y352D03*
X603Y327D03*
X603Y301D03*
X889Y301D03*
X889Y327D03*
X889Y352D03*
X889Y378D03*
X889Y404D03*
X889Y429D03*
X889Y455D03*
X889Y480D03*
X889Y506D03*
X889Y532D03*
G54D13*
X1256Y299D03*
X1256Y380D03*
X1396Y299D03*
X1396Y379D03*
X746Y609D03*
X746Y690D03*
X1116Y299D03*
X1116Y380D03*
X986Y300D03*
X986Y381D03*
X76Y299D03*
X76Y380D03*
X216Y299D03*
X216Y380D03*
X356Y299D03*
X356Y380D03*
X496Y298D03*
X496Y379D03*
X496Y454D03*
X496Y535D03*
X356Y454D03*
X356Y535D03*
X216Y454D03*
X216Y535D03*
X1116Y454D03*
X1116Y535D03*
X975Y455D03*
X975Y536D03*
X1396Y454D03*
X1396Y535D03*
X76Y454D03*
X76Y535D03*
X1256Y455D03*
X1256Y535D03*
X216Y609D03*
X216Y690D03*
X75Y610D03*
X75Y691D03*
X1396Y610D03*
X1396Y691D03*
X496Y609D03*
X496Y690D03*
X355Y609D03*
X355Y690D03*
X1256Y610D03*
X1256Y691D03*
X976Y610D03*
X976Y691D03*
X1116Y610D03*
X1116Y691D03*
G04 End of Mask1*
M02*