G04 MADE WITH FRITZING*
G04 WWW.FRITZING.ORG*
G04 DOUBLE SIDED*
G04 HOLES PLATED*
G04 CONTOUR ON CENTER OF CONTOUR VECTOR*
%ASAXBY*%
%FSLAX23Y23*%
%MOIN*%
%OFA0B0*%
%SFA1.0B1.0*%
%ADD10C,0.059055*%
%ADD11C,0.039370*%
%ADD12R,0.059055X0.015748*%
%ADD13R,0.059055X0.055118*%
%ADD14C,0.016000*%
%ADD15C,0.012000*%
%LNCOPPER1*%
G90*
G70*
G54D10*
X1239Y47D03*
X1099Y47D03*
X1309Y47D03*
X1169Y47D03*
X329Y47D03*
X118Y47D03*
X1450Y47D03*
X48Y47D03*
X1029Y47D03*
X188Y47D03*
X1380Y47D03*
X539Y47D03*
X609Y47D03*
X469Y47D03*
X258Y47D03*
X399Y47D03*
X959Y47D03*
X889Y47D03*
X819Y47D03*
X679Y47D03*
X749Y47D03*
G54D11*
X495Y245D03*
X985Y244D03*
X355Y245D03*
X215Y245D03*
X1115Y244D03*
X1255Y244D03*
X1395Y244D03*
X75Y245D03*
X122Y454D03*
X262Y454D03*
X402Y454D03*
X1350Y454D03*
X1210Y454D03*
X1070Y454D03*
X640Y594D03*
X844Y594D03*
X804Y554D03*
X678Y554D03*
X707Y509D03*
X707Y459D03*
X662Y284D03*
X707Y304D03*
X707Y359D03*
X707Y409D03*
X783Y499D03*
X783Y448D03*
X783Y399D03*
X783Y349D03*
X783Y299D03*
X830Y284D03*
G54D12*
X603Y532D03*
X603Y506D03*
X603Y480D03*
X603Y455D03*
X603Y429D03*
X603Y404D03*
X603Y378D03*
X603Y352D03*
X603Y327D03*
X603Y301D03*
X889Y301D03*
X889Y327D03*
X889Y352D03*
X889Y378D03*
X889Y404D03*
X889Y429D03*
X889Y455D03*
X889Y480D03*
X889Y506D03*
X889Y532D03*
G54D13*
X1256Y299D03*
X1256Y380D03*
X1396Y299D03*
X1396Y379D03*
X746Y609D03*
X746Y690D03*
X1116Y299D03*
X1116Y380D03*
X986Y300D03*
X986Y381D03*
X76Y299D03*
X76Y380D03*
X216Y299D03*
X216Y380D03*
X356Y299D03*
X356Y380D03*
X496Y298D03*
X496Y379D03*
X496Y454D03*
X496Y535D03*
X356Y454D03*
X356Y535D03*
X216Y454D03*
X216Y535D03*
X1116Y454D03*
X1116Y535D03*
X975Y455D03*
X975Y536D03*
X1396Y454D03*
X1396Y535D03*
X76Y454D03*
X76Y535D03*
X1256Y455D03*
X1256Y535D03*
X216Y609D03*
X216Y690D03*
X75Y610D03*
X75Y691D03*
X1396Y610D03*
X1396Y691D03*
X496Y609D03*
X496Y690D03*
X355Y609D03*
X355Y690D03*
X1256Y610D03*
X1256Y691D03*
X976Y610D03*
X976Y691D03*
X1116Y610D03*
X1116Y691D03*
G54D14*
X76Y557D02*
X76Y588D01*
D02*
X76Y402D02*
X76Y432D01*
D02*
X216Y557D02*
X216Y587D01*
D02*
X216Y402D02*
X216Y432D01*
D02*
X356Y557D02*
X356Y587D01*
D02*
X356Y402D02*
X356Y432D01*
D02*
X496Y557D02*
X496Y587D01*
D02*
X496Y401D02*
X496Y432D01*
D02*
X975Y558D02*
X976Y588D01*
D02*
X986Y381D02*
X975Y381D01*
D02*
X975Y381D02*
X975Y433D01*
D02*
X1116Y557D02*
X1116Y588D01*
D02*
X1116Y402D02*
X1116Y432D01*
D02*
X1256Y557D02*
X1256Y588D01*
D02*
X1256Y402D02*
X1256Y433D01*
D02*
X1396Y557D02*
X1396Y588D01*
D02*
X1396Y401D02*
X1396Y432D01*
D02*
X118Y150D02*
X118Y67D01*
D02*
X24Y150D02*
X118Y150D01*
D02*
X24Y535D02*
X24Y150D01*
D02*
X52Y535D02*
X24Y535D01*
D02*
X258Y149D02*
X258Y67D01*
D02*
X166Y149D02*
X258Y149D01*
D02*
X166Y535D02*
X166Y149D01*
D02*
X192Y535D02*
X166Y535D01*
D02*
X399Y150D02*
X399Y67D01*
D02*
X305Y150D02*
X399Y150D01*
D02*
X305Y535D02*
X305Y150D01*
D02*
X332Y535D02*
X305Y535D01*
D02*
X539Y150D02*
X539Y67D01*
D02*
X446Y150D02*
X539Y150D01*
D02*
X446Y535D02*
X446Y150D01*
D02*
X472Y535D02*
X446Y535D01*
D02*
X1052Y402D02*
X1052Y207D01*
D02*
X1029Y440D02*
X1052Y402D01*
D02*
X749Y207D02*
X749Y67D01*
D02*
X1029Y536D02*
X1029Y440D01*
D02*
X999Y536D02*
X1029Y536D01*
D02*
X1052Y207D02*
X749Y207D01*
D02*
X889Y180D02*
X889Y67D01*
D02*
X1170Y180D02*
X889Y180D01*
D02*
X1170Y535D02*
X1170Y180D01*
D02*
X1140Y535D02*
X1170Y535D01*
D02*
X1029Y153D02*
X1029Y67D01*
D02*
X1309Y153D02*
X1029Y153D01*
D02*
X1309Y535D02*
X1309Y153D01*
D02*
X1280Y535D02*
X1309Y535D01*
D02*
X1169Y124D02*
X1169Y67D01*
D02*
X1443Y124D02*
X1169Y124D01*
D02*
X1443Y535D02*
X1443Y124D01*
D02*
X1420Y535D02*
X1443Y535D01*
D02*
X192Y690D02*
X99Y690D01*
D02*
X240Y690D02*
X331Y690D01*
D02*
X379Y690D02*
X472Y690D01*
D02*
X520Y690D02*
X722Y690D01*
D02*
X770Y690D02*
X952Y691D01*
D02*
X1000Y691D02*
X1092Y691D01*
D02*
X1140Y691D02*
X1232Y691D01*
D02*
X1280Y691D02*
X1372Y691D01*
D02*
X1380Y95D02*
X1380Y67D01*
D02*
X1471Y95D02*
X1380Y95D01*
D02*
X1420Y691D02*
X1471Y691D01*
D02*
X1471Y691D02*
X1471Y95D01*
D02*
X679Y244D02*
X746Y244D01*
D02*
X679Y67D02*
X679Y244D01*
D02*
X746Y244D02*
X746Y587D01*
D02*
X925Y532D02*
X912Y532D01*
D02*
X925Y691D02*
X925Y532D01*
D02*
X952Y691D02*
X925Y691D01*
D02*
X496Y276D02*
X495Y258D01*
D02*
X679Y67D02*
X679Y244D01*
D02*
X985Y257D02*
X985Y278D01*
D02*
X679Y244D02*
X971Y244D01*
D02*
X356Y258D02*
X356Y277D01*
D02*
X215Y258D02*
X216Y277D01*
D02*
X75Y258D02*
X75Y277D01*
D02*
X1115Y257D02*
X1115Y277D01*
D02*
X1255Y257D02*
X1255Y277D01*
D02*
X1395Y257D02*
X1396Y277D01*
D02*
X679Y67D02*
X679Y245D01*
D02*
X679Y245D02*
X509Y245D01*
D02*
X552Y245D02*
X552Y301D01*
D02*
X552Y301D02*
X579Y301D01*
D02*
X509Y245D02*
X552Y245D01*
D02*
X552Y379D02*
X552Y352D01*
D02*
X552Y352D02*
X579Y352D01*
D02*
X520Y379D02*
X552Y379D01*
D02*
X936Y301D02*
X912Y301D01*
D02*
X962Y381D02*
X936Y381D01*
D02*
X936Y381D02*
X936Y301D01*
D02*
X100Y454D02*
X108Y454D01*
D02*
X240Y454D02*
X249Y454D01*
D02*
X380Y454D02*
X388Y454D01*
D02*
X1372Y454D02*
X1364Y454D01*
D02*
X1232Y455D02*
X1223Y454D01*
D02*
X1092Y454D02*
X1084Y454D01*
G54D15*
D02*
X640Y581D02*
X639Y532D01*
D02*
X639Y532D02*
X627Y532D01*
D02*
X844Y506D02*
X865Y506D01*
D02*
X844Y581D02*
X844Y506D01*
D02*
X830Y480D02*
X808Y542D01*
D02*
X865Y480D02*
X830Y480D01*
D02*
X652Y506D02*
X627Y506D01*
D02*
X672Y542D02*
X652Y506D01*
D02*
X661Y481D02*
X627Y481D01*
D02*
X695Y502D02*
X661Y481D01*
D02*
X603Y455D02*
X603Y455D01*
D02*
X693Y459D02*
X603Y455D01*
D02*
X648Y327D02*
X627Y327D01*
D02*
X658Y297D02*
X648Y327D01*
D02*
X679Y430D02*
X627Y429D01*
D02*
X696Y417D02*
X679Y430D01*
D02*
X659Y404D02*
X627Y404D01*
D02*
X697Y368D02*
X659Y404D01*
D02*
X642Y378D02*
X627Y378D01*
D02*
X698Y314D02*
X642Y378D01*
D02*
X845Y326D02*
X865Y327D01*
D02*
X834Y297D02*
X845Y326D01*
D02*
X838Y352D02*
X865Y352D01*
D02*
X793Y308D02*
X838Y352D01*
D02*
X840Y378D02*
X865Y378D01*
D02*
X795Y355D02*
X840Y378D01*
D02*
X797Y400D02*
X865Y403D01*
D02*
X808Y430D02*
X865Y430D01*
D02*
X794Y440D02*
X808Y430D01*
D02*
X824Y454D02*
X865Y454D01*
D02*
X792Y489D02*
X824Y454D01*
G04 End of Copper1*
M02*