G04 MADE WITH FRITZING*
G04 WWW.FRITZING.ORG*
G04 DOUBLE SIDED*
G04 HOLES PLATED*
G04 CONTOUR ON CENTER OF CONTOUR VECTOR*
%ASAXBY*%
%FSLAX23Y23*%
%MOIN*%
%OFA0B0*%
%SFA1.0B1.0*%
%ADD10C,0.088000*%
%ADD11C,0.049370*%
%ADD12C,0.092000*%
%ADD13C,0.128110*%
%ADD14C,0.085000*%
%ADD15C,0.069055*%
%ADD16C,0.120551*%
%ADD17C,0.094000*%
%ADD18C,0.150000*%
%ADD19C,0.072992*%
%ADD20R,0.088000X0.088000*%
%ADD21R,0.019449X0.088740*%
%ADD22R,0.092000X0.092000*%
%ADD23R,0.072992X0.072992*%
%LNMASK1*%
G90*
G70*
G54D10*
X3071Y867D03*
X3171Y867D03*
X3271Y867D03*
G54D11*
X2136Y1726D03*
X2224Y1082D03*
X1968Y1530D03*
X1810Y886D03*
X2087Y692D03*
X2096Y1216D03*
G54D12*
X1317Y129D03*
X1019Y129D03*
X1317Y129D03*
X1019Y129D03*
G54D10*
X275Y324D03*
X375Y324D03*
X475Y324D03*
X275Y224D03*
X375Y224D03*
X475Y224D03*
G54D13*
X3422Y127D03*
X3422Y2088D03*
X117Y126D03*
X117Y2087D03*
G54D14*
X3298Y1246D03*
X3042Y1246D03*
X3298Y1423D03*
X3042Y1423D03*
G54D11*
X825Y1866D03*
X825Y1816D03*
X825Y1766D03*
X825Y1716D03*
X825Y1666D03*
X825Y1616D03*
X825Y1566D03*
X825Y1516D03*
X825Y1466D03*
X825Y1416D03*
X825Y1366D03*
X825Y1316D03*
X825Y1266D03*
X825Y1216D03*
X825Y1166D03*
X825Y1116D03*
X825Y1066D03*
X825Y1016D03*
X825Y966D03*
X825Y916D03*
X825Y866D03*
X825Y816D03*
X825Y766D03*
X825Y716D03*
X825Y666D03*
X825Y1866D03*
X825Y1816D03*
X825Y1766D03*
X825Y1716D03*
X825Y1666D03*
X825Y1616D03*
X825Y1566D03*
X825Y1516D03*
X825Y1466D03*
X825Y1416D03*
X825Y1366D03*
X825Y1316D03*
X825Y1266D03*
X825Y1216D03*
X825Y1166D03*
X825Y1116D03*
X825Y1066D03*
X825Y1016D03*
X825Y966D03*
X825Y916D03*
X825Y866D03*
X825Y816D03*
X825Y766D03*
X825Y716D03*
X825Y666D03*
X1455Y1866D03*
X1455Y1816D03*
X1455Y1766D03*
X1455Y1716D03*
X1455Y1666D03*
X1455Y1616D03*
X1455Y1566D03*
X1455Y1516D03*
X1455Y1466D03*
X1455Y1416D03*
X1455Y1366D03*
X1455Y1316D03*
X1455Y1266D03*
X1455Y1216D03*
X1455Y1166D03*
X1455Y1116D03*
X1455Y1066D03*
X1455Y1016D03*
X1455Y966D03*
X1455Y916D03*
X1455Y866D03*
X1455Y816D03*
X1455Y766D03*
X1455Y716D03*
X1455Y666D03*
X1455Y1866D03*
X1455Y1816D03*
X1455Y1766D03*
X1455Y1716D03*
X1455Y1666D03*
X1455Y1616D03*
X1455Y1566D03*
X1455Y1516D03*
X1455Y1466D03*
X1455Y1416D03*
X1455Y1366D03*
X1455Y1316D03*
X1455Y1266D03*
X1455Y1216D03*
X1455Y1166D03*
X1455Y1116D03*
X1455Y1066D03*
X1455Y1016D03*
X1455Y966D03*
X1455Y916D03*
X1455Y866D03*
X1455Y816D03*
X1455Y766D03*
X1455Y716D03*
X1455Y666D03*
G54D15*
X1536Y509D03*
X1615Y509D03*
X1694Y509D03*
X1772Y509D03*
X1536Y509D03*
X1615Y509D03*
X1694Y509D03*
X1772Y509D03*
X2828Y1653D03*
X2907Y1653D03*
X2985Y1653D03*
X3064Y1653D03*
X2828Y1653D03*
X2907Y1653D03*
X2985Y1653D03*
X3064Y1653D03*
G54D13*
X2549Y1400D03*
X1170Y482D03*
G54D10*
X3289Y683D03*
X3289Y583D03*
X3289Y683D03*
X3289Y583D03*
G54D16*
X243Y1100D03*
X394Y950D03*
X394Y1251D03*
G54D17*
X113Y933D03*
X113Y1267D03*
G54D16*
X243Y1100D03*
X394Y950D03*
X394Y1251D03*
G54D17*
X113Y933D03*
X113Y1267D03*
G54D16*
X243Y1100D03*
X394Y950D03*
X394Y1251D03*
G54D17*
X113Y933D03*
X113Y1267D03*
G54D16*
X242Y1603D03*
X393Y1454D03*
X393Y1754D03*
G54D17*
X112Y1436D03*
X112Y1771D03*
G54D16*
X242Y1603D03*
X393Y1454D03*
X393Y1754D03*
G54D17*
X112Y1436D03*
X112Y1771D03*
G54D16*
X242Y1603D03*
X393Y1454D03*
X393Y1754D03*
G54D17*
X112Y1436D03*
X112Y1771D03*
G54D18*
X549Y579D03*
X309Y579D03*
X429Y769D03*
X549Y579D03*
X309Y579D03*
X429Y769D03*
G54D10*
X3072Y1801D03*
X3172Y1801D03*
X3272Y1801D03*
G54D19*
X3122Y403D03*
X3221Y403D03*
G54D20*
X3071Y867D03*
G54D21*
X2263Y1623D03*
X2243Y1623D03*
X2224Y1623D03*
X2204Y1623D03*
X2184Y1623D03*
X2164Y1623D03*
X2145Y1623D03*
X2125Y1623D03*
X2105Y1623D03*
X2086Y1623D03*
X2066Y1623D03*
X2046Y1623D03*
X2027Y1623D03*
X2007Y1623D03*
X1987Y1623D03*
X1968Y1623D03*
X1948Y1623D03*
X1928Y1623D03*
X1909Y1623D03*
X1889Y1623D03*
X1869Y1623D03*
X1849Y1623D03*
X1830Y1623D03*
X1810Y1623D03*
X1790Y1623D03*
X1771Y1623D03*
X1751Y1623D03*
X1731Y1623D03*
X1731Y808D03*
X1751Y808D03*
X1771Y808D03*
X1790Y808D03*
X1810Y808D03*
X1830Y808D03*
X1849Y808D03*
X1869Y808D03*
X1889Y808D03*
X1909Y808D03*
X1928Y808D03*
X1948Y808D03*
X1968Y808D03*
X1987Y808D03*
X2007Y808D03*
X2027Y808D03*
X2046Y808D03*
X2066Y808D03*
X2086Y808D03*
X2105Y808D03*
X2125Y808D03*
X2145Y808D03*
X2164Y808D03*
X2184Y808D03*
X2204Y808D03*
X2224Y808D03*
X2243Y808D03*
X2263Y808D03*
G54D22*
X1318Y129D03*
X1318Y129D03*
G54D20*
X275Y324D03*
X275Y224D03*
X3072Y1801D03*
G54D23*
X3122Y403D03*
G04 End of Mask1*
M02*