; NON-PLATED HOLES START AT T1
; THROUGH (PLATED) HOLES START AT T100
M48
INCH
T1C0.084000
T2C0.118110
T100C0.015748
T101C0.035000
T102C0.042000
T103C0.090551
T104C0.031497
T105C0.027559
T106C0.038000
T107C0.100000
%
T1
X001132Y012673
X001132Y009326
X001123Y014359
X001123Y017705
T2
X034224Y001268
X025487Y014003
X034220Y020879
X001166Y020870
X001170Y001259
X011698Y004820
T100
X018100Y008858
X020957Y012159
X022235Y010824
X021360Y017256
X020866Y006921
X019680Y015300
T101
X030424Y012456
X032983Y014228
X030424Y014228
X032983Y012456
T102
X010185Y001293
X013165Y001293
T103
X002424Y016032
X003939Y012506
X003939Y009503
X003930Y014535
X002432Y010999
X003930Y017539
T104
X031223Y004029
X032207Y004029
T105
X008253Y014658
X014548Y012159
X014548Y008159
X008253Y017158
X008253Y013658
X014548Y011159
X016936Y005089
X008253Y009658
X014548Y007159
X008253Y016158
X008253Y012658
X014548Y010159
X008253Y008658
X014548Y018659
X008253Y015158
X030640Y016525
X008253Y011658
X008253Y007658
X014548Y017659
X008253Y014158
X008253Y010658
X008253Y006658
X014548Y016659
X008253Y013158
X008253Y009158
X029065Y016525
X014548Y015659
X008253Y012158
X008253Y008158
X014548Y018159
X014548Y014659
X008253Y011158
X008253Y007158
X015361Y005089
X014548Y017159
X016148Y005089
X014548Y013659
X008253Y010158
X014548Y009659
X008253Y018658
X017723Y005089
X014548Y016159
X014548Y012659
X014548Y008659
X008253Y017658
X014548Y015159
X014548Y011659
X014548Y007659
X008253Y016658
X014548Y014159
X028278Y016525
X014548Y010659
X014548Y006659
X008253Y015658
X014548Y013159
X029853Y016525
X014548Y009159
X008253Y018158
T106
X030712Y008666
X032722Y018009
X031712Y008666
X002747Y002240
X032712Y008666
X032888Y005833
X002747Y003240
X032888Y006833
X003747Y002240
X004747Y002240
X003747Y003240
X004747Y003240
X030722Y018009
X031722Y018009
T107
X004287Y007694
X003087Y005794
X005487Y005794
T00
M30
