G04 MADE WITH FRITZING*
G04 WWW.FRITZING.ORG*
G04 DOUBLE SIDED*
G04 HOLES PLATED*
G04 CONTOUR ON CENTER OF CONTOUR VECTOR*
%ASAXBY*%
%FSLAX23Y23*%
%MOIN*%
%OFA0B0*%
%SFA1.0B1.0*%
%ADD10C,0.084000*%
%ADD11R,0.009449X0.078740*%
%LNPASTEMASK1*%
G90*
G70*
G54D10*
X113Y933D03*
X113Y1267D03*
X113Y933D03*
X113Y1267D03*
X113Y933D03*
X113Y1267D03*
X112Y1436D03*
X112Y1771D03*
X112Y1436D03*
X112Y1771D03*
X112Y1436D03*
X112Y1771D03*
G54D11*
X2263Y1623D03*
X2243Y1623D03*
X2224Y1623D03*
X2204Y1623D03*
X2184Y1623D03*
X2164Y1623D03*
X2145Y1623D03*
X2125Y1623D03*
X2105Y1623D03*
X2086Y1623D03*
X2066Y1623D03*
X2046Y1623D03*
X2027Y1623D03*
X2007Y1623D03*
X1987Y1623D03*
X1968Y1623D03*
X1948Y1623D03*
X1928Y1623D03*
X1909Y1623D03*
X1889Y1623D03*
X1869Y1623D03*
X1849Y1623D03*
X1830Y1623D03*
X1810Y1623D03*
X1790Y1623D03*
X1771Y1623D03*
X1751Y1623D03*
X1731Y1623D03*
X1731Y808D03*
X1751Y808D03*
X1771Y808D03*
X1790Y808D03*
X1810Y808D03*
X1830Y808D03*
X1849Y808D03*
X1869Y808D03*
X1889Y808D03*
X1909Y808D03*
X1928Y808D03*
X1948Y808D03*
X1968Y808D03*
X1987Y808D03*
X2007Y808D03*
X2027Y808D03*
X2046Y808D03*
X2066Y808D03*
X2086Y808D03*
X2105Y808D03*
X2125Y808D03*
X2145Y808D03*
X2164Y808D03*
X2184Y808D03*
X2204Y808D03*
X2224Y808D03*
X2243Y808D03*
X2263Y808D03*
G04 End of PasteMask1*
M02*