G04 MADE WITH FRITZING*
G04 WWW.FRITZING.ORG*
G04 DOUBLE SIDED*
G04 HOLES PLATED*
G04 CONTOUR ON CENTER OF CONTOUR VECTOR*
%ASAXBY*%
%FSLAX23Y23*%
%MOIN*%
%OFA0B0*%
%SFA1.0B1.0*%
%ADD10C,0.078000*%
%ADD11C,0.039370*%
%ADD12C,0.082000*%
%ADD13C,0.075000*%
%ADD14C,0.059055*%
%ADD15C,0.110551*%
%ADD16C,0.140000*%
%ADD17C,0.062992*%
%ADD18R,0.078000X0.078000*%
%ADD19R,0.009449X0.078740*%
%ADD20R,0.082000X0.082000*%
%ADD21R,0.062992X0.062992*%
%ADD22C,0.008000*%
%ADD23C,0.010000*%
%ADD24C,0.024000*%
%LNCOPPER1*%
G90*
G70*
G54D10*
X3071Y867D03*
X3171Y867D03*
X3271Y867D03*
G54D11*
X2136Y1726D03*
X2224Y1082D03*
X1968Y1530D03*
X1810Y886D03*
X2087Y692D03*
X2096Y1216D03*
G54D12*
X1317Y129D03*
X1019Y129D03*
X1317Y129D03*
X1019Y129D03*
G54D10*
X275Y324D03*
X375Y324D03*
X475Y324D03*
X275Y224D03*
X375Y224D03*
X475Y224D03*
G54D13*
X3298Y1246D03*
X3042Y1246D03*
X3298Y1423D03*
X3042Y1423D03*
G54D11*
X825Y1866D03*
X825Y1816D03*
X825Y1766D03*
X825Y1716D03*
X825Y1666D03*
X825Y1616D03*
X825Y1566D03*
X825Y1516D03*
X825Y1466D03*
X825Y1416D03*
X825Y1366D03*
X825Y1316D03*
X825Y1266D03*
X825Y1216D03*
X825Y1166D03*
X825Y1116D03*
X825Y1066D03*
X825Y1016D03*
X825Y966D03*
X825Y916D03*
X825Y866D03*
X825Y816D03*
X825Y766D03*
X825Y716D03*
X825Y666D03*
X825Y1866D03*
X825Y1816D03*
X825Y1766D03*
X825Y1716D03*
X825Y1666D03*
X825Y1616D03*
X825Y1566D03*
X825Y1516D03*
X825Y1466D03*
X825Y1416D03*
X825Y1366D03*
X825Y1316D03*
X825Y1266D03*
X825Y1216D03*
X825Y1166D03*
X825Y1116D03*
X825Y1066D03*
X825Y1016D03*
X825Y966D03*
X825Y916D03*
X825Y866D03*
X825Y816D03*
X825Y766D03*
X825Y716D03*
X825Y666D03*
X1455Y1866D03*
X1455Y1816D03*
X1455Y1766D03*
X1455Y1716D03*
X1455Y1666D03*
X1455Y1616D03*
X1455Y1566D03*
X1455Y1516D03*
X1455Y1466D03*
X1455Y1416D03*
X1455Y1366D03*
X1455Y1316D03*
X1455Y1266D03*
X1455Y1216D03*
X1455Y1166D03*
X1455Y1116D03*
X1455Y1066D03*
X1455Y1016D03*
X1455Y966D03*
X1455Y916D03*
X1455Y866D03*
X1455Y816D03*
X1455Y766D03*
X1455Y716D03*
X1455Y666D03*
X1455Y1866D03*
X1455Y1816D03*
X1455Y1766D03*
X1455Y1716D03*
X1455Y1666D03*
X1455Y1616D03*
X1455Y1566D03*
X1455Y1516D03*
X1455Y1466D03*
X1455Y1416D03*
X1455Y1366D03*
X1455Y1316D03*
X1455Y1266D03*
X1455Y1216D03*
X1455Y1166D03*
X1455Y1116D03*
X1455Y1066D03*
X1455Y1016D03*
X1455Y966D03*
X1455Y916D03*
X1455Y866D03*
X1455Y816D03*
X1455Y766D03*
X1455Y716D03*
X1455Y666D03*
G54D14*
X1536Y509D03*
X1615Y509D03*
X1694Y509D03*
X1772Y509D03*
X1536Y509D03*
X1615Y509D03*
X1694Y509D03*
X1772Y509D03*
X2828Y1653D03*
X2907Y1653D03*
X2985Y1653D03*
X3064Y1653D03*
X2828Y1653D03*
X2907Y1653D03*
X2985Y1653D03*
X3064Y1653D03*
G54D10*
X3289Y683D03*
X3289Y583D03*
X3289Y683D03*
X3289Y583D03*
G54D15*
X243Y1100D03*
X394Y950D03*
X394Y1251D03*
X243Y1100D03*
X394Y950D03*
X394Y1251D03*
X243Y1100D03*
X394Y950D03*
X394Y1251D03*
X242Y1603D03*
X393Y1454D03*
X393Y1754D03*
X242Y1603D03*
X393Y1454D03*
X393Y1754D03*
X242Y1603D03*
X393Y1454D03*
X393Y1754D03*
G54D16*
X549Y579D03*
X309Y579D03*
X429Y769D03*
X549Y579D03*
X309Y579D03*
X429Y769D03*
G54D10*
X3072Y1801D03*
X3172Y1801D03*
X3272Y1801D03*
G54D17*
X3122Y403D03*
X3221Y403D03*
G54D18*
X3071Y867D03*
G54D19*
X2263Y1623D03*
X2243Y1623D03*
X2224Y1623D03*
X2204Y1623D03*
X2184Y1623D03*
X2164Y1623D03*
X2145Y1623D03*
X2125Y1623D03*
X2105Y1623D03*
X2086Y1623D03*
X2066Y1623D03*
X2046Y1623D03*
X2027Y1623D03*
X2007Y1623D03*
X1987Y1623D03*
X1968Y1623D03*
X1948Y1623D03*
X1928Y1623D03*
X1909Y1623D03*
X1889Y1623D03*
X1869Y1623D03*
X1849Y1623D03*
X1830Y1623D03*
X1810Y1623D03*
X1790Y1623D03*
X1771Y1623D03*
X1751Y1623D03*
X1731Y1623D03*
X1731Y808D03*
X1751Y808D03*
X1771Y808D03*
X1790Y808D03*
X1810Y808D03*
X1830Y808D03*
X1849Y808D03*
X1869Y808D03*
X1889Y808D03*
X1909Y808D03*
X1928Y808D03*
X1948Y808D03*
X1968Y808D03*
X1987Y808D03*
X2007Y808D03*
X2027Y808D03*
X2046Y808D03*
X2066Y808D03*
X2086Y808D03*
X2105Y808D03*
X2125Y808D03*
X2145Y808D03*
X2164Y808D03*
X2184Y808D03*
X2204Y808D03*
X2224Y808D03*
X2243Y808D03*
X2263Y808D03*
G54D20*
X1318Y129D03*
X1318Y129D03*
G54D18*
X275Y324D03*
X275Y224D03*
X3072Y1801D03*
G54D21*
X3122Y403D03*
G54D22*
X1217Y2081D02*
X1909Y2081D01*
D02*
X1194Y2104D02*
X1928Y2104D01*
D02*
X1170Y2127D02*
X1987Y2127D01*
D02*
X1170Y1716D02*
X1170Y2127D01*
D02*
X1194Y1666D02*
X1194Y2104D01*
D02*
X1217Y1616D02*
X1217Y2081D01*
D02*
X1909Y2081D02*
X1909Y1657D01*
D02*
X1928Y2104D02*
X1928Y1657D01*
D02*
X1987Y2127D02*
X1987Y1657D01*
D02*
X845Y1616D02*
X1217Y1616D01*
D02*
X845Y1666D02*
X1194Y1666D01*
D02*
X845Y1716D02*
X1170Y1716D01*
D02*
X1381Y1916D02*
X1771Y1916D01*
D02*
X1358Y1940D02*
X1790Y1940D01*
D02*
X1334Y1963D02*
X1810Y1963D01*
D02*
X1310Y1987D02*
X1830Y1987D01*
D02*
X1287Y2010D02*
X1850Y2010D01*
D02*
X1264Y2034D02*
X1869Y2034D01*
D02*
X1240Y2057D02*
X1889Y2057D01*
D02*
X1240Y1566D02*
X1240Y2057D01*
D02*
X1264Y1516D02*
X1264Y2034D01*
D02*
X1287Y1466D02*
X1287Y2010D01*
D02*
X1310Y1416D02*
X1310Y1987D01*
D02*
X1334Y1366D02*
X1334Y1963D01*
D02*
X1358Y1316D02*
X1358Y1940D01*
D02*
X1381Y1266D02*
X1381Y1916D01*
D02*
X1771Y1916D02*
X1771Y1657D01*
D02*
X1790Y1940D02*
X1790Y1657D01*
D02*
X1810Y1963D02*
X1810Y1657D01*
D02*
X1830Y1987D02*
X1830Y1657D01*
D02*
X1849Y2010D02*
X1849Y1657D01*
D02*
X1869Y2034D02*
X1869Y1657D01*
D02*
X1889Y2057D02*
X1889Y1657D01*
D02*
X845Y1266D02*
X1381Y1266D01*
D02*
X845Y1316D02*
X1358Y1316D01*
D02*
X845Y1366D02*
X1334Y1366D01*
D02*
X845Y1416D02*
X1310Y1416D01*
D02*
X845Y1466D02*
X1287Y1466D01*
D02*
X845Y1516D02*
X1264Y1516D01*
D02*
X845Y1566D02*
X1240Y1566D01*
D02*
X1381Y616D02*
X1771Y616D01*
D02*
X1357Y593D02*
X1790Y593D01*
D02*
X1333Y570D02*
X1830Y570D01*
D02*
X1309Y447D02*
X1850Y447D01*
D02*
X1285Y424D02*
X1869Y424D01*
D02*
X1261Y400D02*
X1889Y400D01*
D02*
X1074Y377D02*
X1909Y377D01*
D02*
X1050Y353D02*
X1928Y353D01*
D02*
X1027Y329D02*
X1948Y329D01*
D02*
X1003Y306D02*
X1968Y306D01*
D02*
X1003Y716D02*
X1003Y306D01*
D02*
X1027Y766D02*
X1027Y329D01*
D02*
X1050Y816D02*
X1050Y353D01*
D02*
X1074Y866D02*
X1074Y377D01*
D02*
X1261Y916D02*
X1261Y400D01*
D02*
X1285Y966D02*
X1285Y424D01*
D02*
X1309Y1016D02*
X1309Y447D01*
D02*
X1333Y1066D02*
X1333Y570D01*
D02*
X1357Y1166D02*
X1357Y593D01*
D02*
X1381Y1216D02*
X1381Y616D01*
D02*
X1771Y616D02*
X1771Y775D01*
D02*
X1790Y593D02*
X1790Y775D01*
D02*
X1830Y570D02*
X1830Y775D01*
D02*
X1849Y447D02*
X1849Y775D01*
D02*
X1869Y424D02*
X1869Y775D01*
D02*
X1889Y400D02*
X1889Y775D01*
D02*
X1909Y377D02*
X1909Y775D01*
D02*
X1928Y353D02*
X1928Y775D01*
D02*
X1948Y329D02*
X1948Y775D01*
D02*
X1968Y306D02*
X1968Y775D01*
D02*
X845Y716D02*
X1003Y716D01*
D02*
X845Y766D02*
X1027Y766D01*
D02*
X845Y816D02*
X1050Y816D01*
D02*
X845Y866D02*
X1074Y866D01*
D02*
X845Y916D02*
X1261Y916D01*
D02*
X845Y966D02*
X1285Y966D01*
D02*
X845Y1016D02*
X1309Y1016D01*
D02*
X845Y1066D02*
X1333Y1066D01*
D02*
X845Y1166D02*
X1357Y1166D01*
D02*
X845Y1216D02*
X1381Y1216D01*
D02*
X1693Y1716D02*
X1693Y1478D01*
D02*
X1670Y1666D02*
X1670Y1454D01*
D02*
X1646Y1616D02*
X1646Y1431D01*
D02*
X1622Y1566D02*
X1622Y1407D01*
D02*
X1599Y1516D02*
X1599Y1384D01*
D02*
X1575Y1466D02*
X1575Y1360D01*
D02*
X1552Y1416D02*
X1552Y1336D01*
D02*
X1528Y1366D02*
X1528Y1313D01*
D02*
X1693Y1478D02*
X2046Y1478D01*
D02*
X1670Y1454D02*
X2066Y1454D01*
D02*
X1646Y1431D02*
X2086Y1431D01*
D02*
X1622Y1407D02*
X2105Y1407D01*
D02*
X1599Y1384D02*
X2125Y1384D01*
D02*
X1575Y1360D02*
X2145Y1360D01*
D02*
X1552Y1336D02*
X2164Y1336D01*
D02*
X1528Y1313D02*
X2184Y1313D01*
D02*
X1505Y1289D02*
X2204Y1289D01*
D02*
X979Y282D02*
X1987Y282D01*
D02*
X979Y666D02*
X979Y282D01*
D02*
X1987Y282D02*
X1987Y775D01*
D02*
X2066Y1454D02*
X2066Y1590D01*
D02*
X2046Y1478D02*
X2046Y1590D01*
D02*
X2086Y1431D02*
X2086Y1590D01*
D02*
X2105Y1407D02*
X2105Y1590D01*
D02*
X2125Y1384D02*
X2125Y1590D01*
D02*
X2145Y1360D02*
X2145Y1590D01*
D02*
X2164Y1336D02*
X2164Y1590D01*
D02*
X2184Y1313D02*
X2184Y1590D01*
D02*
X2204Y1289D02*
X2204Y1590D01*
D02*
X1472Y1307D02*
X1505Y1289D01*
D02*
X1474Y1366D02*
X1528Y1366D01*
D02*
X1474Y1416D02*
X1552Y1416D01*
D02*
X1474Y1466D02*
X1575Y1466D01*
D02*
X1474Y1516D02*
X1599Y1516D01*
D02*
X1474Y1566D02*
X1622Y1566D01*
D02*
X1474Y1616D02*
X1646Y1616D01*
D02*
X1474Y1666D02*
X1670Y1666D01*
D02*
X1474Y1716D02*
X1693Y1716D01*
D02*
X845Y666D02*
X979Y666D01*
D02*
X1529Y1066D02*
X1529Y1118D01*
D02*
X1552Y1016D02*
X1552Y1095D01*
D02*
X1576Y966D02*
X1576Y1071D01*
D02*
X1600Y916D02*
X1600Y1047D01*
D02*
X1623Y866D02*
X1623Y1024D01*
D02*
X1647Y816D02*
X1647Y1000D01*
D02*
X1505Y1143D02*
X2263Y1142D01*
D02*
X1647Y1000D02*
X2066Y1000D01*
D02*
X1623Y1024D02*
X2086Y1024D01*
D02*
X1600Y1047D02*
X2105Y1047D01*
D02*
X1576Y1071D02*
X2125Y1071D01*
D02*
X1552Y1095D02*
X2145Y1095D01*
D02*
X1529Y1118D02*
X2164Y1118D01*
D02*
X2066Y1000D02*
X2066Y842D01*
D02*
X2086Y1024D02*
X2086Y842D01*
D02*
X2105Y1047D02*
X2105Y842D01*
D02*
X2125Y1071D02*
X2125Y842D01*
D02*
X2145Y1095D02*
X2145Y842D01*
D02*
X2164Y1118D02*
X2164Y842D01*
D02*
X2224Y1069D02*
X2224Y842D01*
D02*
X2224Y1266D02*
X2224Y1590D01*
D02*
X2243Y1166D02*
X2243Y1590D01*
D02*
X2263Y1142D02*
X2263Y1590D01*
D02*
X1474Y816D02*
X1647Y816D01*
D02*
X1474Y866D02*
X1623Y866D01*
D02*
X1474Y916D02*
X1600Y916D01*
D02*
X1474Y966D02*
X1576Y966D01*
D02*
X1474Y1016D02*
X1552Y1016D01*
D02*
X1474Y1066D02*
X1529Y1066D01*
D02*
X1472Y1125D02*
X1505Y1143D01*
D02*
X1474Y1166D02*
X2243Y1166D01*
D02*
X1474Y1266D02*
X2224Y1266D01*
D02*
X3171Y747D02*
X2243Y747D01*
D02*
X1670Y766D02*
X1670Y976D01*
D02*
X1694Y716D02*
X1694Y952D01*
D02*
X2007Y928D02*
X2007Y842D01*
D02*
X1731Y928D02*
X2007Y928D01*
D02*
X1731Y842D02*
X1731Y928D01*
D02*
X1731Y666D02*
X1731Y775D01*
D02*
X2243Y747D02*
X2243Y775D01*
D02*
X3171Y842D02*
X3171Y747D01*
D02*
X1474Y666D02*
X1731Y666D01*
D02*
X1694Y952D02*
X2027Y952D01*
D02*
X1670Y976D02*
X2046Y976D01*
D02*
X1146Y1766D02*
X1146Y2151D01*
D02*
X2046Y976D02*
X2046Y842D01*
D02*
X2027Y952D02*
X2027Y842D01*
D02*
X2263Y998D02*
X2263Y842D01*
D02*
X2294Y1110D02*
X2263Y998D01*
D02*
X2294Y2151D02*
X2294Y1110D01*
D02*
X1146Y2151D02*
X2294Y2151D01*
D02*
X845Y1766D02*
X1146Y1766D01*
D02*
X1474Y716D02*
X1694Y716D01*
D02*
X1474Y766D02*
X1670Y766D01*
G54D23*
D02*
X2184Y692D02*
X2184Y775D01*
D02*
X2100Y692D02*
X2184Y692D01*
D02*
X1968Y1544D02*
X1968Y1590D01*
G54D22*
D02*
X2007Y1726D02*
X2007Y1657D01*
D02*
X2027Y1726D02*
X2027Y1657D01*
D02*
X2123Y1726D02*
X2027Y1726D01*
D02*
X2123Y1726D02*
X2007Y1726D01*
G54D23*
D02*
X1810Y872D02*
X1810Y842D01*
G54D22*
D02*
X1474Y1216D02*
X2082Y1216D01*
G54D24*
D02*
X275Y417D02*
X275Y354D01*
D02*
X549Y324D02*
X549Y518D01*
D02*
X243Y742D02*
X161Y742D01*
D02*
X161Y224D02*
X245Y224D01*
D02*
X161Y742D02*
X161Y224D01*
D02*
X495Y608D02*
X243Y742D01*
D02*
X674Y224D02*
X674Y769D01*
D02*
X674Y769D02*
X490Y769D01*
D02*
X505Y224D02*
X674Y224D01*
D02*
X505Y324D02*
X549Y324D01*
D02*
X296Y520D02*
X275Y417D01*
D02*
X2828Y1246D02*
X2828Y1628D01*
D02*
X3014Y1246D02*
X2828Y1246D01*
D02*
X2907Y1423D02*
X2907Y1628D01*
D02*
X3014Y1423D02*
X2907Y1423D01*
D02*
X3071Y1246D02*
X3270Y1246D01*
D02*
X3071Y1423D02*
X3270Y1423D01*
D02*
X2985Y1801D02*
X2985Y1677D01*
D02*
X3042Y1801D02*
X2985Y1801D01*
D02*
X3172Y1653D02*
X3089Y1653D01*
D02*
X3172Y1771D02*
X3172Y1653D01*
D02*
X3289Y403D02*
X3248Y403D01*
D02*
X3289Y553D02*
X3289Y403D01*
D02*
X3122Y683D02*
X3122Y430D01*
D02*
X3259Y683D02*
X3122Y683D01*
G04 End of Copper1*
M02*